{
.appVersion = "1338";
DisplayStrings = (
"If/space ANYONE/space wishes/space to/space believe/space me/space a/space little/space loony/emdash which,/space might/space be/space possible,/space considering/space that/space I/space have/space quite/space intentionally/space made/space a/space considerable/space effort/space to/space insinuate/space that/space possibility/space indubitably/emdash may/space now/space consider/space the/space preceding/emdash as/space well/space as/space the/space following/emdash proof/space more/space or/space less/space conclusive./space Trust/space me/space on/space this.\012"
);
classes = (
{
automatic = 1;

glyphs = (
{
glyphname = A;
lastChange = "2020-05-25 16:03:58 +0000";
layers = (
{
anchors = (
{
name = bottom;
position = "{562, 0}";
},
{
name = ogonek;
position = "{1013, 0}";
},
{
name = top;
position = "{564, 1475}";
}
);
layerId = "A1A0948C-E637-4A65-8CCC-05505AD98C44";
paths = (
{
closed = 1;
nodes = (
"565 1449 LINE",
"563 1449 LINE",
"992 0 LINE",
"1026 0 LINE",
"585 1482 LINE",
"544 1482 LINE",
"100 0 LINE",
"134 0 LINE"
);
},
{
closed = 1;
nodes = (
"256 451 LINE",
"873 451 LINE",
"873 479 LINE",
"256 479 LINE"
);
}
);
width = 1126;
},
{
anchors = (
{
name = bottom;
position = "{702, 0}";
},
{
name = ogonek;
position = "{1227, 0}";
},
{
name = top;
position = "{704, 1475}";
}
);
layerId = "584F9D0D-8480-40C6-ABEA-8DD6EE64252D";
paths = (
{
closed = 1;
nodes = (
"714 1234 LINE",
"694 1234 LINE",
"942 0 LINE",
"1355 0 LINE",
"1014 1475 LINE",
"393 1475 LINE",
"50 0 LINE",
"463 0 LINE"
);
},
{
closed = 1;
nodes = (
"340 310 LINE",
"1068 310 LINE",
"1068 613 LINE",
"340 613 LINE"
);
}
);
width = 1405;
},
{
anchors = (
{
name = bottom;
position = "{590, 0}";
},
{
name = ogonek;
position = "{1102, 0}";
},
{
name = top;
position = "{904, 1475}";
}
);
layerId = "3FDD6C00-F7FD-4E85-84B0-0136AF7D7529";
paths = (
{
closed = 1;
nodes = (
"873 1234 LINE",
"853 1234 LINE",
"836 0 LINE",
"1242 0 LINE",
"1215 1475 LINE",
"594 1475 LINE",
"-63 0 LINE",
"357 0 LINE"
);
},
{
closed = 1;
nodes = (
"297 310 LINE",
"1025 310 LINE",
"1086 613 LINE",
"358 613 LINE"
);
}
);
width = 1405;
},
{
anchors = (
{
name = bottom;
position = "{454, 0}";
},
{
name = ogonek;
position = "{901, 0}";
},
{
name = top;
position = "{767, 1475}";
}
);
layerId = "2503C51C-5A6C-4B2C-A968-78FEA18C2585";
paths = (
{
closed = 1;
nodes = (
"762 1449 LINE",
"760 1449 LINE",
"881 0 LINE",
"913 0 LINE",
"788 1482 LINE",
"747 1482 LINE",
"-13 0 LINE",
"23 0 LINE"
);
},
{
closed = 1;
nodes = (
"241 451 LINE",
"858 451 LINE",
"864 479 LINE",
"247 479 LINE"
);
}
);
width = 1126;
}
);
leftKerningGroup = A;
note = A;
rightKerningGroup = A;
unicode = 0041;
},
{
glyphname = AE;
lastChange = "2020-05-25 15:04:23 +0000";
layers = (
{
anchors = (
{
name = bottom;
position = "{854, 0}";
},
{
name = top;
position = "{854, 1475}";
}
);
components = (
{
name = E;
transform = "{1, 0, 0, 1, 716, 0}";
}
);
layerId = "A1A0948C-E637-4A65-8CCC-05505AD98C44";
paths = (
{
closed = 1;
nodes = (
"36 0 LINE",
"308 461 LINE",
"875 461 LINE",
"875 0 LINE",
"897 0 LINE",
"897 1475 LINE",
"872 1475 LINE",
"0 0 LINE"
);
},
{
closed = 1;
nodes = (
"875 1416 LINE",
"875 490 LINE",
"324 490 LINE"
);
}
);
width = 1751;
},
{
anchors = (
{
name = bottom;
position = "{1022, 0}";
},
{
name = top;
position = "{1022, 1475}";
}
);
components = (
{
name = E;
transform = "{1, 0, 0, 1, 927, 0}";
}
);
layerId = "584F9D0D-8480-40C6-ABEA-8DD6EE64252D";
paths = (
{
closed = 1;
nodes = (
"447 0 LINE",
"573 199 LINE",
"999 199 LINE",
"999 0 LINE",
"1400 0 LINE",
"1400 1475 LINE",
"937 1475 LINE",
"0 0 LINE"
);
},
{
closed = 1;
nodes = (
"1001 951 LINE",
"1001 468 LINE",
"713 468 LINE"
);
}
);
width = 2064;
},
{
anchors = (
{
name = bottom;
position = "{913, 0}";
},
{
name = top;
position = "{1227, 1475}";
}
);
components = (
{
name = E;
transform = "{1, 0, 0, 1, 910, 0}";
}
);
layerId = "3FDD6C00-F7FD-4E85-84B0-0136AF7D7529";
paths = (
{
closed = 1;
nodes = (
"337 0 LINE",
"503 199 LINE",
"913 199 LINE",
"866 0 LINE",
"1270 0 LINE",
"1582 1475 LINE",
"1093 1475 LINE",
"-118 0 LINE"
);
},
{
closed = 1;
nodes = (
"1089 951 LINE",
"969 468 LINE",
"697 468 LINE"
);
}
);
width = 2047;
},
{
anchors = (
{
name = bottom;
position = "{733, 0}";
},
{
name = top;
position = "{1047, 1475}";
}
);
components = (
{
name = E;
transform = "{1, 0, 0, 1, 693, 0}";
}
);
layerId = "2503C51C-5A6C-4B2C-A968-78FEA18C2585";
paths = (
{
closed = 1;
nodes = (
"-77 0 LINE",
"289 461 LINE",
"836 461 LINE",
"735 0 LINE",
"767 0 LINE",
"1080 1475 LINE",
"1034 1475 LINE",
"-113 0 LINE"
);
},
{
closed = 1;
nodes = (
"1049 1447 LINE",
"840 490 LINE",
"310 490 LINE"
);
}
);
width = 1728;
}
);
leftKerningGroup = A;
rightKerningGroup = E;
rightMetricsKey = E;
unicode = 00C6;
},
{
glyphname = B;
lastChange = "2020-05-24 20:29:57 +0000";
layers = (
{
anchors = (
{
name = bottom;
position = "{540, 0}";
},
{
name = top;
position = "{540, 1475}";
}
);
layerId = "A1A0948C-E637-4A65-8CCC-05505AD98C44";
paths = (
{
closed = 1;
nodes = (
"160 1475 LINE",
"160 0 LINE",
"543 0 LINE SMOOTH",
"818 0 OFFCURVE",
"992 122 OFFCURVE",
"992 398 CURVE SMOOTH",
"992 670 OFFCURVE",
"817 775 OFFCURVE",
"619 779 CURVE",
"795 784 OFFCURVE",
"964 893 OFFCURVE",
"964 1130 CURVE SMOOTH",
"964 1390 OFFCURVE",
"794 1475 OFFCURVE",
"557 1475 CURVE SMOOTH"
);
},
{
closed = 1;
nodes = (
"193 1461 LINE",
"179 1447 LINE",
"554 1447 LINE SMOOTH",
"770 1447 OFFCURVE",
"932 1379 OFFCURVE",
"932 1130 CURVE SMOOTH",
"932 892 OFFCURVE",
"761 791 OFFCURVE",
"491 791 CURVE SMOOTH",
"179 791 LINE",
"193 777 LINE"
);
},
{
closed = 1;
nodes = (
"179 28 LINE",
"193 14 LINE",
"193 777 LINE",
"179 763 LINE",
"490 763 LINE SMOOTH",
"723 763 OFFCURVE",
"960 710 OFFCURVE",
"960 398 CURVE SMOOTH",
"960 131 OFFCURVE",
"791 28 OFFCURVE",
"538 28 CURVE SMOOTH"
);
}
);
width = 1142;
},
{
anchors = (
{
name = bottom;
position = "{669, 0}";
},
{
name = top;
position = "{669, 1475}";
}
);
layerId = "584F9D0D-8480-40C6-ABEA-8DD6EE64252D";
paths = (
{
closed = 1;
nodes = (
"90 1475 LINE",
"90 0 LINE",
"735 0 LINE SMOOTH",
"1119 0 OFFCURVE",
"1238 195 OFFCURVE",
"1238 424 CURVE SMOOTH",
"1238 674 OFFCURVE",
"1056 761 OFFCURVE",
"932 765 CURVE",
"1056 776 OFFCURVE",
"1199 904 OFFCURVE",
"1199 1115 CURVE SMOOTH",
"1199 1321 OFFCURVE",
"1066 1475 OFFCURVE",
"735 1475 CURVE SMOOTH"
);
},
{
closed = 1;
nodes = (
"494 1357 LINE",
"312 1175 LINE",
"630 1175 LINE SMOOTH",
"750 1175 OFFCURVE",
"797 1127 OFFCURVE",
"797 1045 CURVE SMOOTH",
"797 966 OFFCURVE",
"750 903 OFFCURVE",
"630 903 CURVE SMOOTH",
"312 903 LINE",
"494 721 LINE"
);
},
{
closed = 1;
nodes = (
"312 301 LINE",
"494 119 LINE",
"494 787 LINE",
"312 605 LINE",
"656 605 LINE SMOOTH",
"776 605 OFFCURVE",
"827 529 OFFCURVE",
"827 449 CURVE SMOOTH",
"827 367 OFFCURVE",
"776 301 OFFCURVE",
"656 301 CURVE SMOOTH"
);
}
);
width = 1308;
},
{
anchors = (
{
name = bottom;
position = "{513, 0}";
},
{
name = top;
position = "{827, 1475}";
}
);
layerId = "3FDD6C00-F7FD-4E85-84B0-0136AF7D7529";
paths = (
{
closed = 1;
nodes = (
"291 1475 LINE",
"-23 0 LINE",
"622 0 LINE SMOOTH",
"1006 0 OFFCURVE",
"1226 233 OFFCURVE",
"1226 507 CURVE SMOOTH",
"1226 648 OFFCURVE",
"1105 761 OFFCURVE",
"982 765 CURVE",
"1108 776 OFFCURVE",
"1334 927 OFFCURVE",
"1334 1202 CURVE SMOOTH",
"1334 1333 OFFCURVE",
"1267 1475 OFFCURVE",
"936 1475 CURVE SMOOTH"
);
},
{
closed = 1;
nodes = (
"670 1353 LINE",
"449 1175 LINE",
"767 1175 LINE SMOOTH",
"887 1175 OFFCURVE",
"911 1140 OFFCURVE",
"911 1078 CURVE SMOOTH",
"911 977 OFFCURVE",
"827 903 OFFCURVE",
"707 903 CURVE SMOOTH",
"389 903 LINE",
"532 725 LINE"
);
},
{
closed = 1;
nodes = (
"263 301 LINE",
"407 123 LINE",
"548 783 LINE",
"328 605 LINE",
"672 605 LINE SMOOTH",
"792 605 OFFCURVE",
"814 548 OFFCURVE",
"814 488 CURVE SMOOTH",
"814 374 OFFCURVE",
"727 301 OFFCURVE",
"607 301 CURVE SMOOTH"
);
}
);
width = 1312;
},
{
anchors = (
{
name = bottom;
position = "{412, 0}";
},
{
name = top;
position = "{726, 1475}";
}
);
layerId = "2503C51C-5A6C-4B2C-A968-78FEA18C2585";
paths = (
{
closed = 1;
nodes = (
"361 1475 LINE",
"47 0 LINE",
"430 0 LINE SMOOTH",
"750 0 OFFCURVE",
"968 155 OFFCURVE",
"968 462 CURVE SMOOTH",
"968 686 OFFCURVE",
"843 773 OFFCURVE",
"672 778 CURVE",
"922 785 OFFCURVE",
"1096 960 OFFCURVE",
"1096 1218 CURVE SMOOTH",
"1096 1399 OFFCURVE",
"965 1475 OFFCURVE",
"753 1475 CURVE SMOOTH"
);
},
{
closed = 1;
nodes = (
"391 1461 LINE",
"374 1447 LINE",
"749 1447 LINE SMOOTH",
"941 1447 OFFCURVE",
"1065 1386 OFFCURVE",
"1065 1219 CURVE SMOOTH",
"1065 931 OFFCURVE",
"856 791 OFFCURVE",
"546 791 CURVE SMOOTH",
"234 791 LINE",
"245 777 LINE"
);
},
{
closed = 1;
nodes = (
"72 28 LINE",
"83 14 LINE",
"245 777 LINE",
"228 763 LINE",
"549 763 LINE SMOOTH",
"764 763 OFFCURVE",
"937 709 OFFCURVE",
"937 465 CURVE SMOOTH",
"937 177 OFFCURVE",
"735 28 OFFCURVE",
"431 28 CURVE SMOOTH"
);
}
);
width = 1150;
}
);
leftKerningGroup = H;
leftMetricsKey = H;
note = B;
rightKerningGroup = B;
rightMetricsKey = R;
unicode = 0042;
},
{
glyphname = C;
lastChange = "2020-05-21 16:50:20 +0000";
layers = (
{
anchors = (
{
name = bottom;
position = "{649, -12}";
},
{
name = top;
position = "{649, 1488}";
}
);
layerId = "A1A0948C-E637-4A65-8CCC-05505AD98C44";
paths = (
{
closed = 1;
nodes = (
"1094 474 LINE",
"1094 269 OFFCURVE",
"939 11 OFFCURVE",
"649 11 CURVE SMOOTH",
"346 11 OFFCURVE",
"152 298 OFFCURVE",
"152 737 CURVE SMOOTH",
"152 1176 OFFCURVE",
"346 1460 OFFCURVE",
"649 1460 CURVE SMOOTH",
"909 1460 OFFCURVE",
"1060 1256 OFFCURVE",
"1089 1066 CURVE SMOOTH",
"1092 1043 OFFCURVE",
"1094 1021 OFFCURVE",
"1094 1000 CURVE",
"1125 1000 LINE",
"1125 1023 OFFCURVE",
"1123 1047 OFFCURVE",
"1119 1071 CURVE SMOOTH",
"1089 1271 OFFCURVE",
"931 1488 OFFCURVE",
"649 1488 CURVE SMOOTH",
"319 1488 OFFCURVE",
"120 1192 OFFCURVE",
"120 737 CURVE SMOOTH",
"120 282 OFFCURVE",
"319 -17 OFFCURVE",
"649 -17 CURVE SMOOTH",
"965 -17 OFFCURVE",
"1125 256 OFFCURVE",
"1125 474 CURVE"
);
}
);
width = 1245;
},
{
anchors = (
{
name = bottom;
position = "{746, -17}";
},
{
name = top;
position = "{739, 1500}";
}
);
layerId = "584F9D0D-8480-40C6-ABEA-8DD6EE64252D";
paths = (
{
closed = 1;
nodes = (
"984 577 LINE",
"984 423 OFFCURVE",
"897 285 OFFCURVE",
"749 285 CURVE SMOOTH",
"593 285 OFFCURVE",
"480 419 OFFCURVE",
"480 738 CURVE SMOOTH",
"480 1057 OFFCURVE",
"593 1188 OFFCURVE",
"749 1188 CURVE SMOOTH",
"879 1188 OFFCURVE",
"962 1084 OFFCURVE",
"980 954 CURVE SMOOTH",
"983 936 OFFCURVE",
"984 917 OFFCURVE",
"984 898 CURVE",
"1389 898 LINE",
"1389 947 OFFCURVE",
"1382 997 OFFCURVE",
"1369 1047 CURVE SMOOTH",
"1309 1273 OFFCURVE",
"1109 1500 OFFCURVE",
"749 1500 CURVE SMOOTH",
"304 1500 OFFCURVE",
"70 1158 OFFCURVE",
"70 738 CURVE SMOOTH",
"70 318 OFFCURVE",
"304 -26 OFFCURVE",
"749 -26 CURVE SMOOTH",
"1188 -26 OFFCURVE",
"1389 308 OFFCURVE",
"1389 577 CURVE"
);
}
);
width = 1459;
},
{
anchors = (
{
name = bottom;
position = "{645, -17}";
},
{
name = top;
position = "{935, 1500}";
}
);
layerId = "3FDD6C00-F7FD-4E85-84B0-0136AF7D7529";
paths = (
{
closed = 1;
nodes = (
"987 577 LINE",
"954 423 OFFCURVE",
"838 285 OFFCURVE",
"690 285 CURVE SMOOTH",
"567 285 OFFCURVE",
"503 368 OFFCURVE",
"503 544 CURVE SMOOTH",
"503 825 OFFCURVE",
"622 1188 OFFCURVE",
"882 1188 CURVE SMOOTH",
"1003 1188 OFFCURVE",
"1064 1098 OFFCURVE",
"1064 981 CURVE SMOOTH",
"1064 958 OFFCURVE",
"1060 921 OFFCURVE",
"1055 898 CURVE",
"1460 898 LINE",
"1469 938 OFFCURVE",
"1473 978 OFFCURVE",
"1473 1019 CURVE SMOOTH",
"1473 1254 OFFCURVE",
"1301 1500 OFFCURVE",
"926 1500 CURVE SMOOTH",
"435 1500 OFFCURVE",
"95 1063 OFFCURVE",
"95 554 CURVE SMOOTH",
"95 234 OFFCURVE",
"261 -26 OFFCURVE",
"646 -26 CURVE SMOOTH",
"1085 -26 OFFCURVE",
"1335 308 OFFCURVE",
"1392 577 CURVE"
);
}
);
width = 1448;
},
{
anchors = (
{
name = bottom;
position = "{533, -12}";
},
{
name = top;
position = "{848, 1488}";
}
);
layerId = "2503C51C-5A6C-4B2C-A968-78FEA18C2585";
paths = (
{
closed = 1;
nodes = (
"1079 474 LINE",
"1036 271 OFFCURVE",
"826 11 OFFCURVE",
"536 11 CURVE SMOOTH",
"288 11 OFFCURVE",
"177 204 OFFCURVE",
"177 493 CURVE SMOOTH",
"177 961 OFFCURVE",
"422 1460 OFFCURVE",
"844 1460 CURVE SMOOTH",
"1092 1460 OFFCURVE",
"1201 1275 OFFCURVE",
"1201 1092 CURVE SMOOTH",
"1201 1059 OFFCURVE",
"1195 1019 OFFCURVE",
"1191 1000 CURVE",
"1222 1000 LINE",
"1226 1015 OFFCURVE",
"1231 1056 OFFCURVE",
"1231 1089 CURVE SMOOTH",
"1231 1289 OFFCURVE",
"1121 1488 OFFCURVE",
"844 1488 CURVE SMOOTH",
"398 1488 OFFCURVE",
"144 980 OFFCURVE",
"144 489 CURVE SMOOTH",
"144 186 OFFCURVE",
"266 -17 OFFCURVE",
"538 -17 CURVE SMOOTH",
"854 -17 OFFCURVE",
"1064 256 OFFCURVE",
"1110 474 CURVE"
);
}
);
width = 1244;
}
);
leftKerningGroup = O;
leftMetricsKey = O;
note = C;
rightKerningGroup = O;
rightMetricsKey = O;
unicode = 0043;
},
{
glyphname = D;
lastChange = "2020-05-24 20:12:21 +0000";
layers = (
{
anchors = (
{
name = bottom;
position = "{567, 0}";
},
{
name = center;
position = "{326, 738}";
},
{
name = top;
position = "{567, 1475}";
}
);
layerId = "A1A0948C-E637-4A65-8CCC-05505AD98C44";
paths = (
{
closed = 1;
nodes = (
"442 0 LINE SMOOTH",
"825 0 OFFCURVE",
"1041 259 OFFCURVE",
"1041 736 CURVE SMOOTH",
"1041 1213 OFFCURVE",
"825 1475 OFFCURVE",
"442 1475 CURVE SMOOTH",
"160 1475 LINE",
"160 0 LINE"
);
},
{
closed = 1;
nodes = (
"193 1461 LINE",
"179 1447 LINE",
"443 1447 LINE SMOOTH",
"807 1447 OFFCURVE",
"1009 1185 OFFCURVE",
"1009 736 CURVE SMOOTH",
"1009 287 OFFCURVE",
"807 28 OFFCURVE",
"443 28 CURVE SMOOTH",
"179 28 LINE",
"193 14 LINE"
);
}
);
width = 1161;
},
{
anchors = (
{
name = bottom;
position = "{639, 0}";
},
{
name = center;
position = "{371, 735}";
},
{
name = top;
position = "{639, 1475}";
}
);
layerId = "584F9D0D-8480-40C6-ABEA-8DD6EE64252D";
paths = (
{
closed = 1;
nodes = (
"658 0 LINE SMOOTH",
"1056 0 OFFCURVE",
"1283 320 OFFCURVE",
"1283 741 CURVE SMOOTH",
"1283 1162 OFFCURVE",
"1056 1475 OFFCURVE",
"658 1475 CURVE SMOOTH",
"90 1475 LINE",
"90 0 LINE"
);
},
{
closed = 1;
nodes = (
"494 1357 LINE",
"312 1175 LINE",
"594 1175 LINE SMOOTH",
"745 1175 OFFCURVE",
"873 1014 OFFCURVE",
"873 741 CURVE SMOOTH",
"873 468 OFFCURVE",
"745 300 OFFCURVE",
"594 300 CURVE SMOOTH",
"312 300 LINE",
"494 118 LINE"
);
}
);
width = 1353;
},
{
anchors = (
{
name = bottom;
position = "{516, 0}";
},
{
name = center;
position = "{409, 735}";
},
{
name = top;
position = "{830, 1475}";
}
);
layerId = "3FDD6C00-F7FD-4E85-84B0-0136AF7D7529";
paths = (
{
closed = 1;
nodes = (
"545 0 LINE SMOOTH",
"1016 0 OFFCURVE",
"1338 426 OFFCURVE",
"1338 926 CURVE SMOOTH",
"1338 1248 OFFCURVE",
"1194 1475 OFFCURVE",
"849 1475 CURVE SMOOTH",
"291 1475 LINE",
"-23 0 LINE"
);
},
{
closed = 1;
nodes = (
"669 1353 LINE",
"449 1175 LINE",
"731 1175 LINE SMOOTH",
"856 1175 OFFCURVE",
"928 1072 OFFCURVE",
"928 894 CURVE SMOOTH",
"928 635 OFFCURVE",
"778 300 OFFCURVE",
"545 300 CURVE SMOOTH",
"263 300 LINE",
"407 122 LINE"
);
}
);
width = 1346;
},
{
anchors = (
{
name = bottom;
position = "{452, 0}";
},
{
name = center;
position = "{367, 738}";
},
{
name = top;
position = "{766, 1475}";
}
);
layerId = "2503C51C-5A6C-4B2C-A968-78FEA18C2585";
paths = (
{
closed = 1;
nodes = (
"339 0 LINE SMOOTH",
"722 0 OFFCURVE",
"1116 345 OFFCURVE",
"1116 981 CURVE SMOOTH",
"1116 1240 OFFCURVE",
"1026 1475 OFFCURVE",
"643 1475 CURVE SMOOTH",
"361 1475 LINE",
"47 0 LINE"
);
},
{
closed = 1;
nodes = (
"391 1461 LINE",
"374 1447 LINE",
"643 1447 LINE SMOOTH",
"1007 1447 OFFCURVE",
"1084 1221 OFFCURVE",
"1084 981 CURVE SMOOTH",
"1084 360 OFFCURVE",
"700 28 OFFCURVE",
"336 28 CURVE SMOOTH",
"72 28 LINE",
"83 14 LINE"
);
}
);
width = 1174;
}
);
leftKerningGroup = H;
leftMetricsKey = H;
note = D;
rightKerningGroup = O;
rightMetricsKey = O;
unicode = 0044;
},
{
glyphname = E;
lastChange = "2020-05-24 20:12:57 +0000";
layers = (
{
anchors = (
{
name = bottom;
position = "{557, 0}";
},
{
name = ogonek;
position = "{862, 0}";
},
{
name = top;
position = "{527, 1475}";
},
{
name = topleft;
position = "{59, 1475}";
}
);
layerId = "A1A0948C-E637-4A65-8CCC-05505AD98C44";
paths = (
{
closed = 1;
nodes = (
"875 1447 LINE",
"875 1475 LINE",
"160 1475 LINE",
"160 0 LINE",
"875 0 LINE",
"875 28 LINE",
"176 28 LINE",
"190 14 LINE",
"190 740 LINE",
"176 726 LINE",
"764 726 LINE",
"764 754 LINE",
"176 754 LINE",
"190 740 LINE",
"190 1461 LINE",
"176 1447 LINE"
);
}
);
width = 1035;
},
{
anchors = (
{
name = bottom;
position = "{583, 0}";
},
{
name = ogonek;
position = "{969, 0}";
},
{
name = top;
position = "{583, 1475}";
},
{
name = topleft;
position = "{23, 1475}";
}
);
layerId = "584F9D0D-8480-40C6-ABEA-8DD6EE64252D";
paths = (
{
closed = 1;
nodes = (
"1047 1175 LINE",
"1047 1475 LINE",
"90 1475 LINE",
"90 0 LINE",
"1047 0 LINE",
"1047 300 LINE",
"314 300 LINE",
"496 118 LINE",
"496 772 LINE",
"314 590 LINE",
"936 590 LINE",
"936 890 LINE",
"314 890 LINE",
"496 708 LINE",
"496 1357 LINE",
"314 1175 LINE"
);
}
);
width = 1137;
},
{
anchors = (
{
name = bottom;
position = "{474, 0}";
},
{
name = ogonek;
position = "{859, 0}";
},
{
name = top;
position = "{768, 1475}";
},
{
name = topleft;
position = "{228, 1475}";
}
);
layerId = "3FDD6C00-F7FD-4E85-84B0-0136AF7D7529";
paths = (
{
closed = 1;
nodes = (
"1184 1175 LINE",
"1248 1475 LINE",
"291 1475 LINE",
"-23 0 LINE",
"934 0 LINE",
"998 300 LINE",
"265 300 LINE",
"409 122 LINE",
"547 768 LINE",
"327 590 LINE",
"949 590 LINE",
"1012 890 LINE",
"390 890 LINE",
"534 712 LINE",
"671 1353 LINE",
"451 1175 LINE"
);
}
);
width = 1137;
},
{
anchors = (
{
name = bottom;
position = "{438, 0}";
},
{
name = ogonek;
position = "{748, 0}";
},
{
name = top;
position = "{752, 1475}";
},
{
name = topleft;
position = "{264, 1475}";
}
);
layerId = "2503C51C-5A6C-4B2C-A968-78FEA18C2585";
paths = (
{
closed = 1;
nodes = (
"1070 1447 LINE",
"1076 1475 LINE",
"361 1475 LINE",
"47 0 LINE",
"762 0 LINE",
"768 28 LINE",
"70 28 LINE",
"81 14 LINE",
"236 740 LINE",
"219 726 LINE",
"806 726 LINE",
"812 754 LINE",
"225 754 LINE",
"236 740 LINE",
"389 1461 LINE",
"372 1447 LINE"
);
}
);
width = 1035;
}
);
leftKerningGroup = H;
leftMetricsKey = H;
note = E;
rightKerningGroup = E;
rightMetricsKey = H;
unicode = 0045;
},
{
glyphname = F;
lastChange = "2020-05-24 20:27:36 +0000";
layers = (
{
anchors = (
{
name = bottom;
position = "{562, 0}";
},
{
name = top;
position = "{562, 1475}";
}
);
layerId = "A1A0948C-E637-4A65-8CCC-05505AD98C44";
paths = (
{
closed = 1;
nodes = (
"855 1447 LINE",
"855 1475 LINE",
"160 1475 LINE",
"160 0 LINE",
"190 0 LINE",
"190 734 LINE",
"176 720 LINE",
"766 720 LINE",
"766 748 LINE",
"176 748 LINE",
"190 734 LINE",
"190 1461 LINE",
"176 1447 LINE"
);
}
);
width = 955;
},
{
anchors = (
{
name = bottom;
position = "{580, 0}";
},
{
name = top;
position = "{580, 1475}";
}
);
layerId = "584F9D0D-8480-40C6-ABEA-8DD6EE64252D";
paths = (
{
closed = 1;
nodes = (
"1066 1175 LINE",
"1066 1475 LINE",
"90 1475 LINE",
"90 0 LINE",
"492 0 LINE",
"492 760 LINE",
"310 578 LINE",
"977 578 LINE",
"977 879 LINE",
"310 879 LINE",
"492 697 LINE",
"492 1357 LINE",
"310 1175 LINE"
);
}
);
width = 1156;
},
{
anchors = (
{
name = bottom;
position = "{471, 0}";
},
{
name = top;
position = "{785, 1475}";
}
);
layerId = "3FDD6C00-F7FD-4E85-84B0-0136AF7D7529";
paths = (
{
closed = 1;
nodes = (
"1203 1175 LINE",
"1267 1475 LINE",
"291 1475 LINE",
"-23 0 LINE",
"379 0 LINE",
"540 756 LINE",
"320 578 LINE",
"987 578 LINE",
"1051 879 LINE",
"384 879 LINE",
"528 701 LINE",
"667 1353 LINE",
"447 1175 LINE"
);
}
);
width = 1156;
},
{
anchors = (
{
name = bottom;
position = "{401, 0}";
},
{
name = top;
position = "{715, 1475}";
}
);
layerId = "2503C51C-5A6C-4B2C-A968-78FEA18C2585";
paths = (
{
closed = 1;
nodes = (
"1050 1447 LINE",
"1056 1475 LINE",
"361 1475 LINE",
"47 0 LINE",
"77 0 LINE",
"233 734 LINE",
"216 720 LINE",
"806 720 LINE",
"812 748 LINE",
"222 748 LINE",
"233 734 LINE",
"388 1461 LINE",
"371 1447 LINE"
);
}
);
width = 954;
}
);
leftKerningGroup = H;
leftMetricsKey = H;
note = F;
rightKerningGroup = F;
unicode = 0046;
},
{
glyphname = G;
lastChange = "2020-05-24 20:53:14 +0000";
layers = (
{
anchors = (
{
name = bottom;
position = "{651, -11}";
},
{
name = top;
position = "{655, 1488}";
}
);
layerId = "A1A0948C-E637-4A65-8CCC-05505AD98C44";
paths = (
{
closed = 1;
nodes = (
"931 -17 OFFCURVE",
"1053 138 OFFCURVE",
"1077 199 CURVE",
"1077 622 LINE",
"640 622 LINE",
"640 593 LINE",
"1060 593 LINE",
"1046 607 LINE",
"1046 202 LINE",
"1024 146 OFFCURVE",
"900 11 OFFCURVE",
"656 11 CURVE SMOOTH",
"369 11 OFFCURVE",
"151 262 OFFCURVE",
"151 732 CURVE SMOOTH",
"151 1202 OFFCURVE",
"369 1459 OFFCURVE",
"656 1459 CURVE SMOOTH",
"961 1459 OFFCURVE",
"1049 1202 OFFCURVE",
"1049 1005 CURVE",
"1079 1005 LINE",
"1079 1220 OFFCURVE",
"986 1488 OFFCURVE",
"656 1488 CURVE SMOOTH",
"351 1488 OFFCURVE",
"120 1232 OFFCURVE",
"120 732 CURVE SMOOTH",
"120 232 OFFCURVE",
"351 -17 OFFCURVE",
"656 -17 CURVE SMOOTH"
);
}
);
width = 1239;
},
{
anchors = (
{
name = bottom;
position = "{739, -17}";
},
{
name = top;
position = "{744, 1500}";
}
);
layerId = "584F9D0D-8480-40C6-ABEA-8DD6EE64252D";
paths = (
{
closed = 1;
nodes = (
"1138 -26 OFFCURVE",
"1333 253 OFFCURVE",
"1361 467 CURVE",
"1361 745 LINE",
"747 745 LINE",
"747 464 LINE",
"1156 464 LINE",
"974 646 LINE",
"974 459 LINE",
"964 362 OFFCURVE",
"893 285 OFFCURVE",
"756 285 CURVE SMOOTH",
"605 285 OFFCURVE",
"475 395 OFFCURVE",
"475 732 CURVE SMOOTH",
"475 1069 OFFCURVE",
"606 1188 OFFCURVE",
"755 1188 CURVE SMOOTH",
"892 1188 OFFCURVE",
"965 1054 OFFCURVE",
"965 913 CURVE",
"1361 913 LINE",
"1361 1196 OFFCURVE",
"1176 1500 OFFCURVE",
"757 1500 CURVE SMOOTH",
"335 1500 OFFCURVE",
"70 1199 OFFCURVE",
"70 732 CURVE SMOOTH",
"70 265 OFFCURVE",
"321 -26 OFFCURVE",
"746 -26 CURVE SMOOTH"
);
}
);
width = 1451;
},
{
anchors = (
{
name = bottom;
position = "{630, -17}";
},
{
name = top;
position = "{925, 1500}";
}
);
layerId = "3FDD6C00-F7FD-4E85-84B0-0136AF7D7529";
paths = (
{
closed = 1;
nodes = (
"1055 -26 OFFCURVE",
"1276 253 OFFCURVE",
"1340 467 CURVE",
"1399 745 LINE",
"785 745 LINE",
"725 464 LINE",
"1134 464 LINE",
"988 642 LINE",
"951 459 LINE",
"920 362 OFFCURVE",
"833 285 OFFCURVE",
"696 285 CURVE SMOOTH",
"578 285 OFFCURVE",
"502 358 OFFCURVE",
"502 558 CURVE SMOOTH",
"502 843 OFFCURVE",
"635 1188 OFFCURVE",
"879 1188 CURVE SMOOTH",
"1016 1188 OFFCURVE",
"1038 1062 OFFCURVE",
"1038 913 CURVE",
"1434 913 LINE",
"1434 1206 OFFCURVE",
"1344 1500 OFFCURVE",
"925 1500 CURVE SMOOTH",
"420 1500 OFFCURVE",
"96 1079 OFFCURVE",
"96 547 CURVE SMOOTH",
"96 204 OFFCURVE",
"268 -26 OFFCURVE",
"643 -26 CURVE SMOOTH"
);
}
);
width = 1444;
},
{
anchors = (
{
name = bottom;
position = "{514, -11}";
},
{
name = top;
position = "{784, 1488}";
}
);
layerId = "2503C51C-5A6C-4B2C-A968-78FEA18C2585";
paths = (
{
closed = 1;
nodes = (
"796 -17 OFFCURVE",
"914 138 OFFCURVE",
"951 199 CURVE",
"1041 622 LINE",
"634 622 LINE",
"627 593 LINE",
"1016 593 LINE",
"1005 607 LINE",
"919 202 LINE",
"885 146 OFFCURVE",
"758 11 OFFCURVE",
"514 11 CURVE SMOOTH",
"217 11 OFFCURVE",
"174 250 OFFCURVE",
"174 424 CURVE SMOOTH",
"174 1044 OFFCURVE",
"464 1459 OFFCURVE",
"781 1459 CURVE SMOOTH",
"1072 1459 OFFCURVE",
"1092 1162 OFFCURVE",
"1092 1005 CURVE",
"1124 1005 LINE",
"1124 1180 OFFCURVE",
"1100 1488 OFFCURVE",
"784 1488 CURVE SMOOTH",
"436 1488 OFFCURVE",
"139 1054 OFFCURVE",
"139 422 CURVE SMOOTH",
"139 209 OFFCURVE",
"206 -17 OFFCURVE",
"514 -17 CURVE SMOOTH"
);
}
);
width = 1183;
}
);
leftKerningGroup = O;
leftMetricsKey = O;
note = G;
rightKerningGroup = O;
rightMetricsKey = H;
unicode = 0047;
},
{
glyphname = G.ss01;
lastChange = "2020-05-24 20:06:26 +0000";
layers = (
{
anchors = (
{
name = bottom;
position = "{611, -15}";
},
{
name = top;
position = "{624, 1488}";
}
);
layerId = "A1A0948C-E637-4A65-8CCC-05505AD98C44";
paths = (
{
closed = 1;
nodes = (
"848 -17 OFFCURVE",
"979 122 OFFCURVE",
"1004 189 CURVE",
"1004 0 LINE",
"1036 0 LINE",
"1036 653 LINE",
"605 653 LINE",
"605 625 LINE",
"1005 625 LINE",
"1005 254 LINE",
"973 170 OFFCURVE",
"871 11 OFFCURVE",
"618 11 CURVE SMOOTH",
"326 11 OFFCURVE",
"151 308 OFFCURVE",
"151 738 CURVE SMOOTH",
"151 1168 OFFCURVE",
"326 1459 OFFCURVE",
"624 1459 CURVE SMOOTH",
"920 1459 OFFCURVE",
"1009 1201 OFFCURVE",
"1009 1005 CURVE",
"1039 1005 LINE",
"1039 1209 OFFCURVE",
"946 1488 OFFCURVE",
"624 1488 CURVE SMOOTH",
"310 1488 OFFCURVE",
"120 1198 OFFCURVE",
"120 738 CURVE SMOOTH",
"120 278 OFFCURVE",
"310 -17 OFFCURVE",
"619 -17 CURVE SMOOTH"
);
}
);
width = 1199;
},
{
anchors = (
{
name = bottom;
position = "{704, -14}";
},
{
name = top;
position = "{718, 1500}";
}
);
layerId = "584F9D0D-8480-40C6-ABEA-8DD6EE64252D";
paths = (
{
closed = 1;
nodes = (
"877 -26 OFFCURVE",
"1033 73 OFFCURVE",
"1052 143 CURVE",
"1073 0 LINE",
"1291 0 LINE",
"1291 769 LINE",
"718 769 LINE",
"718 480 LINE",
"924 480 LINE",
"924 404 LINE",
"907 347 OFFCURVE",
"843 285 OFFCURVE",
"730 285 CURVE SMOOTH",
"607 285 OFFCURVE",
"475 349 OFFCURVE",
"475 732 CURVE SMOOTH",
"475 1093 OFFCURVE",
"602 1188 OFFCURVE",
"725 1188 CURVE SMOOTH",
"844 1188 OFFCURVE",
"905 1085 OFFCURVE",
"905 983 CURVE",
"1297 983 LINE",
"1297 1174 OFFCURVE",
"1144 1500 OFFCURVE",
"725 1500 CURVE SMOOTH",
"365 1500 OFFCURVE",
"70 1232 OFFCURVE",
"70 732 CURVE SMOOTH",
"70 232 OFFCURVE",
"355 -26 OFFCURVE",
"710 -26 CURVE SMOOTH"
);
}
);
width = 1387;
},
{
anchors = (
{
name = bottom;
position = "{600, -14}";
},
{
name = top;
position = "{895, 1500}";
}
);
layerId = "3FDD6C00-F7FD-4E85-84B0-0136AF7D7529";
paths = (
{
closed = 1;
nodes = (
"765 -26 OFFCURVE",
"930 73 OFFCURVE",
"964 143 CURVE",
"954 0 LINE",
"1172 0 LINE",
"1336 769 LINE",
"763 769 LINE",
"701 480 LINE",
"907 480 LINE",
"891 404 LINE",
"862 347 OFFCURVE",
"785 285 OFFCURVE",
"672 285 CURVE SMOOTH",
"573 285 OFFCURVE",
"499 320 OFFCURVE",
"499 525 CURVE SMOOTH",
"499 806 OFFCURVE",
"584 1188 OFFCURVE",
"859 1188 CURVE SMOOTH",
"970 1188 OFFCURVE",
"995 1062 OFFCURVE",
"995 983 CURVE",
"1387 983 LINE",
"1387 1174 OFFCURVE",
"1322 1500 OFFCURVE",
"903 1500 CURVE SMOOTH",
"401 1500 OFFCURVE",
"94 1051 OFFCURVE",
"94 532 CURVE SMOOTH",
"94 166 OFFCURVE",
"296 -26 OFFCURVE",
"598 -26 CURVE SMOOTH"
);
}
);
width = 1381;
},
{
anchors = (
{
name = bottom;
position = "{505, -15}";
},
{
name = top;
position = "{816, 1488}";
}
);
layerId = "2503C51C-5A6C-4B2C-A968-78FEA18C2585";
paths = (
{
closed = 1;
nodes = (
"739 -17 OFFCURVE",
"892 122 OFFCURVE",
"932 189 CURVE",
"891 0 LINE",
"923 0 LINE",
"1062 653 LINE",
"631 653 LINE",
"625 625 LINE",
"1025 625 LINE",
"946 254 LINE",
"896 170 OFFCURVE",
"761 11 OFFCURVE",
"508 11 CURVE SMOOTH",
"281 11 OFFCURVE",
"179 200 OFFCURVE",
"179 503 CURVE SMOOTH",
"179 965 OFFCURVE",
"409 1459 OFFCURVE",
"822 1459 CURVE SMOOTH",
"1105 1459 OFFCURVE",
"1110 1211 OFFCURVE",
"1110 1005 CURVE",
"1140 1005 LINE",
"1140 1219 OFFCURVE",
"1135 1488 OFFCURVE",
"823 1488 CURVE SMOOTH",
"389 1488 OFFCURVE",
"147 985 OFFCURVE",
"147 499 CURVE SMOOTH",
"147 174 OFFCURVE",
"265 -17 OFFCURVE",
"510 -17 CURVE SMOOTH"
);
}
);
width = 1199;
}
);
leftKerningGroup = O;
leftMetricsKey = O;
rightKerningGroup = H;
rightMetricsKey = H;
},
{
glyphname = H;
lastChange = "2020-05-24 20:40:51 +0000";
layers = (
{
anchors = (
{
name = bottom;
position = "{581, 0}";
},
{
name = center;
position = "{581, 738}";
},
{
name = top;
position = "{581, 1475}";
},
{
name = topleft;
position = "{137, 1475}";
}
);
layerId = "A1A0948C-E637-4A65-8CCC-05505AD98C44";
paths = (
{
closed = 1;
nodes = (
"975 1475 LINE",
"975 734 LINE",
"989 748 LINE",
"176 748 LINE",
"190 734 LINE",
"190 1475 LINE",
"160 1475 LINE",
"160 0 LINE",
"190 0 LINE",
"190 733 LINE",
"176 719 LINE",
"989 719 LINE",
"975 733 LINE",
"975 0 LINE",
"1005 0 LINE",
"1005 1475 LINE"
);
}
);
width = 1165;
},
{
anchors = (
{
name = bottom;
position = "{721, 0}";
},
{
name = center;
position = "{721, 738}";
},
{
name = top;
position = "{721, 1475}";
},
{
name = topleft;
position = "{23, 1475}";
}
);
layerId = "584F9D0D-8480-40C6-ABEA-8DD6EE64252D";
paths = (
{
closed = 1;
nodes = (
"945 1475 LINE",
"945 702 LINE",
"1127 884 LINE",
"312 884 LINE",
"494 702 LINE",
"494 1475 LINE",
"90 1475 LINE",
"90 0 LINE",
"494 0 LINE",
"494 765 LINE",
"312 583 LINE",
"1127 583 LINE",
"945 765 LINE",
"945 0 LINE",
"1349 0 LINE",
"1349 1475 LINE"
);
}
);
width = 1439;
},
{
anchors = (
{
name = bottom;
position = "{610, 0}";
},
{
name = center;
position = "{767, 738}";
},
{
name = top;
position = "{924, 1475}";
},
{
name = topleft;
position = "{234, 1475}";
}
);
layerId = "3FDD6C00-F7FD-4E85-84B0-0136AF7D7529";
paths = (
{
closed = 1;
nodes = (
"1146 1475 LINE",
"982 706 LINE",
"1202 884 LINE",
"387 884 LINE",
"531 706 LINE",
"695 1475 LINE",
"291 1475 LINE",
"-23 0 LINE",
"381 0 LINE",
"543 761 LINE",
"323 583 LINE",
"1138 583 LINE",
"994 761 LINE",
"832 0 LINE",
"1236 0 LINE",
"1550 1475 LINE"
);
}
);
width = 1439;
},
{
anchors = (
{
name = bottom;
position = "{467, 0}";
},
{
name = center;
position = "{624, 738}";
},
{
name = top;
position = "{781, 1475}";
},
{
name = topleft;
position = "{317, 1475}";
}
);
layerId = "2503C51C-5A6C-4B2C-A968-78FEA18C2585";
paths = (
{
closed = 1;
nodes = (
"1176 1475 LINE",
"1018 734 LINE",
"1035 748 LINE",
"222 748 LINE",
"233 734 LINE",
"391 1475 LINE",
"361 1475 LINE",
"47 0 LINE",
"77 0 LINE",
"233 733 LINE",
"216 719 LINE",
"1029 719 LINE",
"1018 733 LINE",
"862 0 LINE",
"892 0 LINE",
"1206 1475 LINE"
);
}
);
width = 1165;
}
);
leftKerningGroup = H;
note = H;
rightKerningGroup = H;
unicode = 0048;
},
{
glyphname = Hbar;
lastChange = "2020-05-21 00:25:04 +0000";
layers = (
{
components = (
{
name = H;
}
);
layerId = "A1A0948C-E637-4A65-8CCC-05505AD98C44";
paths = (
{
closed = 1;
nodes = (
"1110 1143 LINE",
"1110 1169 LINE",
"54 1169 LINE",
"54 1143 LINE"
);
}
);
width = 1165;
},
{
components = (
{
name = H;
}
);
layerId = "584F9D0D-8480-40C6-ABEA-8DD6EE64252D";
paths = (
{
closed = 1;
nodes = (
"1413 1040 LINE",
"1413 1285 LINE",
"0 1285 LINE",
"0 1040 LINE"
);
}
);
width = 1413;
},
{
components = (
{
name = H;
}
);
layerId = "3FDD6C00-F7FD-4E85-84B0-0136AF7D7529";
paths = (
{
closed = 1;
nodes = (
"1521 1040 LINE",
"1573 1285 LINE",
"160 1285 LINE",
"108 1040 LINE"
);
}
);
width = 1413;
},
{
components = (
{
name = H;
}
);
layerId = "2503C51C-5A6C-4B2C-A968-78FEA18C2585";
paths = (
{
closed = 1;
nodes = (
"1242 1143 LINE",
"1248 1169 LINE",
"192 1169 LINE",
"186 1143 LINE"
);
}
);
width = 1165;
}
);
leftKerningGroup = H;
rightKerningGroup = H;
unicode = 0126;
},
{
glyphname = I;
lastChange = "2020-05-23 20:38:26 +0000";
layers = (
{
anchors = (
{
name = bottom;
position = "{204, 0}";
},
{
name = ogonek;
position = "{207, 0}";
},
{
name = top;
position = "{205, 1475}";
},
{
name = topleft;
position = "{43, 1475}";
}
);
layerId = "A1A0948C-E637-4A65-8CCC-05505AD98C44";
paths = (
{
closed = 1;
nodes = (
"220 0 LINE",
"220 1475 LINE",
"190 1475 LINE",
"190 0 LINE"
);
}
);
width = 410;
},
{
anchors = (
{
name = bottom;
position = "{290, 0}";
},
{
name = ogonek;
position = "{410, 0}";
},
{
name = top;
position = "{290, 1475}";
},
{
name = topleft;
position = "{-22, 1475}";
}
);
layerId = "584F9D0D-8480-40C6-ABEA-8DD6EE64252D";
paths = (
{
closed = 1;
nodes = (
"488 0 LINE",
"488 1475 LINE",
"90 1475 LINE",
"90 0 LINE"
);
}
);
width = 578;
},
{
anchors = (
{
name = bottom;
position = "{174, 0}";
},
{
name = ogonek;
position = "{301, 0}";
},
{
name = top;
position = "{488, 1475}";
},
{
name = topleft;
position = "{180, 1475}";
}
);
layerId = "3FDD6C00-F7FD-4E85-84B0-0136AF7D7529";
paths = (
{
closed = 1;
nodes = (
"376 0 LINE",
"688 1475 LINE",
"287 1475 LINE",
"-26 0 LINE"
);
}
);
width = 578;
},
{
anchors = (
{
name = bottom;
position = "{88, 0}";
},
{
name = ogonek;
position = "{90, 0}";
},
{
name = top;
position = "{403, 1475}";
},
{
name = topleft;
position = "{241, 1475}";
}
);
layerId = "2503C51C-5A6C-4B2C-A968-78FEA18C2585";
paths = (
{
closed = 1;
nodes = (
"104 0 LINE",
"417 1475 LINE",
"386 1475 LINE",
"73 0 LINE"
);
}
);
width = 410;
}
);
leftKerningGroup = H;
note = I;
rightKerningGroup = H;
unicode = 0049;
},
{
glyphname = I.ss01;
lastChange = "2020-05-24 20:06:26 +0000";
layers = (
{
anchors = (
{
name = bottom;
position = "{487, 0}";
},
{
name = ogonek;
position = "{820, 0}";
},
{
name = top;
position = "{487, 1475}";
},
{
name = topleft;
position = "{140, 1475}";
}
);
layerId = "A1A0948C-E637-4A65-8CCC-05505AD98C44";
paths = (
{
closed = 1;
nodes = (
"833 0 LINE",
"833 28 LINE",
"502 28 LINE",
"502 1447 LINE",
"833 1447 LINE",
"833 1475 LINE",
"140 1475 LINE",
"140 1447 LINE",
"471 1447 LINE",
"471 28 LINE",
"140 28 LINE",
"140 0 LINE"
);
}
);
width = 973;
},
{
anchors = (
{
name = bottom;
position = "{577, 0}";
},
{
name = ogonek;
position = "{996, 0}";
},
{
name = top;
position = "{577, 1475}";
},
{
name = topleft;
position = "{80, 1475}";
}
);
layerId = "584F9D0D-8480-40C6-ABEA-8DD6EE64252D";
paths = (
{
closed = 1;
nodes = (
"1074 0 LINE",
"1074 300 LINE",
"778 300 LINE",
"778 1175 LINE",
"1074 1175 LINE",
"1074 1475 LINE",
"80 1475 LINE",
"80 1175 LINE",
"375 1175 LINE",
"375 300 LINE",
"80 300 LINE",
"80 0 LINE"
);
}
);
width = 1154;
},
{
anchors = (
{
name = bottom;
position = "{374, 0}";
},
{
name = ogonek;
position = "{705, 0}";
},
{
name = top;
position = "{688, 1475}";
},
{
name = topleft;
position = "{340, 1475}";
}
);
layerId = "2503C51C-5A6C-4B2C-A968-78FEA18C2585";
paths = (
{
closed = 1;
nodes = (
"719 0 LINE",
"725 28 LINE",
"394 28 LINE",
"696 1447 LINE",
"1027 1447 LINE",
"1033 1475 LINE",
"340 1475 LINE",
"334 1447 LINE",
"665 1447 LINE",
"363 28 LINE",
"32 28 LINE",
"26 0 LINE"
);
}
);
width = 973;
},
{
anchors = (
{
name = bottom;
position = "{464, 0}";
},
{
name = ogonek;
position = "{885, 0}";
},
{
name = top;
position = "{778, 1475}";
},
{
name = topleft;
position = "{280, 1475}";
}
);
layerId = "3FDD6C00-F7FD-4E85-84B0-0136AF7D7529";
paths = (
{
closed = 1;
nodes = (
"960 0 LINE",
"1024 300 LINE",
"728 300 LINE",
"914 1175 LINE",
"1210 1175 LINE",
"1274 1475 LINE",
"280 1475 LINE",
"216 1175 LINE",
"511 1175 LINE",
"325 300 LINE",
"30 300 LINE",
"-34 0 LINE"
);
}
);
width = 1154;
}
);
leftKerningGroup = I.ss01;
rightKerningGroup = I.ss01;
},
{
glyphname = J;
lastChange = "2020-05-24 20:54:58 +0000";
layers = (
{
anchors = (
{
name = bottom;
position = "{475, -16}";
},
{
name = top;
position = "{825, 1475}";
}
);
layerId = "A1A0948C-E637-4A65-8CCC-05505AD98C44";
paths = (
{
closed = 1;
nodes = (
"721 -17 OFFCURVE",
"840 171 OFFCURVE",
"840 463 CURVE SMOOTH",
"840 1475 LINE",
"810 1475 LINE",
"810 463 LINE SMOOTH",
"810 186 OFFCURVE",
"698 11 OFFCURVE",
"472 11 CURVE SMOOTH",
"242 11 OFFCURVE",
"136 189 OFFCURVE",
"136 452 CURVE SMOOTH",
"136 466 OFFCURVE",
"136 480 OFFCURVE",
"136 494 CURVE",
"107 494 LINE",
"107 478 OFFCURVE",
"107 462 OFFCURVE",
"107 446 CURVE SMOOTH",
"107 166 OFFCURVE",
"226 -17 OFFCURVE",
"472 -17 CURVE SMOOTH"
);
}
);
width = 1000;
},
{
anchors = (
{
name = bottom;
position = "{579, -26}";
},
{
name = top;
position = "{907, 1475}";
}
);
layerId = "584F9D0D-8480-40C6-ABEA-8DD6EE64252D";
paths = (
{
closed = 1;
nodes = (
"1006 -26 OFFCURVE",
"1112 219 OFFCURVE",
"1112 493 CURVE SMOOTH",
"1112 1475 LINE",
"709 1475 LINE",
"709 551 LINE SMOOTH",
"709 418 OFFCURVE",
"704 285 OFFCURVE",
"579 285 CURVE SMOOTH",
"456 285 OFFCURVE",
"441 418 OFFCURVE",
"441 527 CURVE SMOOTH",
"441 540 OFFCURVE",
"441 557 OFFCURVE",
"441 567 CURVE",
"40 567 LINE",
"40 542 OFFCURVE",
"40 517 OFFCURVE",
"40 492 CURVE SMOOTH",
"40 185 OFFCURVE",
"179 -26 OFFCURVE",
"579 -26 CURVE SMOOTH"
);
}
);
width = 1202;
},
{
anchors = (
{
name = bottom;
position = "{498, -26}";
},
{
name = top;
position = "{1123, 1475}";
}
);
layerId = "3FDD6C00-F7FD-4E85-84B0-0136AF7D7529";
paths = (
{
closed = 1;
nodes = (
"921 -26 OFFCURVE",
"1047 219 OFFCURVE",
"1105 493 CURVE SMOOTH",
"1313 1475 LINE",
"910 1475 LINE",
"714 551 LINE SMOOTH",
"680 389 OFFCURVE",
"652 285 OFFCURVE",
"539 285 CURVE SMOOTH",
"451 285 OFFCURVE",
"424 332 OFFCURVE",
"424 402 CURVE SMOOTH",
"424 464 OFFCURVE",
"440 530 OFFCURVE",
"449 567 CURVE",
"48 567 LINE",
"30 495 OFFCURVE",
"11 417 OFFCURVE",
"11 334 CURVE SMOOTH",
"11 119 OFFCURVE",
"168 -26 OFFCURVE",
"494 -26 CURVE SMOOTH"
);
}
);
width = 1203;
},
{
anchors = (
{
name = bottom;
position = "{370, -17}";
},
{
name = top;
position = "{1026, 1475}";
}
);
layerId = "2503C51C-5A6C-4B2C-A968-78FEA18C2585";
paths = (
{
closed = 1;
nodes = (
"612 -17 OFFCURVE",
"764 171 OFFCURVE",
"826 463 CURVE SMOOTH",
"1041 1475 LINE",
"1011 1475 LINE",
"796 463 LINE SMOOTH",
"737 186 OFFCURVE",
"591 11 OFFCURVE",
"365 11 CURVE SMOOTH",
"185 11 OFFCURVE",
"102 121 OFFCURVE",
"102 294 CURVE SMOOTH",
"102 356 OFFCURVE",
"112 417 OFFCURVE",
"129 494 CURVE",
"100 494 LINE",
"86 436 OFFCURVE",
"72 352 OFFCURVE",
"72 290 CURVE SMOOTH",
"72 101 OFFCURVE",
"166 -17 OFFCURVE",
"363 -17 CURVE SMOOTH"
);
}
);
width = 1000;
}
);
leftKerningGroup = J;
note = J;
rightKerningGroup = H;
rightMetricsKey = H;
unicode = 004A;
},
{
glyphname = K;
lastChange = "2020-05-24 15:30:22 +0000";
layers = (
{
anchors = (
{
name = bottom;
position = "{561, 0}";
},
{
name = top;
position = "{561, 1475}";
}
);
layerId = "A1A0948C-E637-4A65-8CCC-05505AD98C44";
paths = (
{
closed = 1;
nodes = (
"884 1475 LINE",
"847 1475 LINE",
"183 621 LINE",
"191 619 LINE",
"191 1475 LINE",
"160 1475 LINE",
"160 0 LINE",
"191 0 LINE",
"191 601 LINE",
"181 575 LINE",
"341 774 LINE",
"324 776 LINE",
"897 0 LINE",
"934 0 LINE",
"344 804 LINE",
"345 778 LINE"
);
}
);
width = 1024;
},
{
anchors = (
{
name = bottom;
position = "{687, 0}";
},
{
name = top;
position = "{687, 1475}";
}
);
layerId = "584F9D0D-8480-40C6-ABEA-8DD6EE64252D";
paths = (
{
closed = 1;
nodes = (
"1339 1475 LINE",
"916 1475 LINE",
"419 769 LINE",
"493 739 LINE",
"493 1475 LINE",
"90 1475 LINE",
"90 0 LINE",
"493 0 LINE",
"493 555 LINE",
"461 304 LINE",
"730 671 LINE",
"557 695 LINE",
"927 0 LINE",
"1365 0 LINE",
"775 1003 LINE",
"763 695 LINE"
);
}
);
width = 1400;
},
{
anchors = (
{
name = bottom;
position = "{619, 0}";
},
{
name = top;
position = "{933, 1475}";
}
);
layerId = "3FDD6C00-F7FD-4E85-84B0-0136AF7D7529";
paths = (
{
closed = 1;
nodes = (
"1529 1475 LINE",
"1097 1475 LINE",
"443 769 LINE",
"537 739 LINE",
"695 1475 LINE",
"291 1475 LINE",
"-21 0 LINE",
"382 0 LINE",
"499 555 LINE",
"423 304 LINE",
"764 671 LINE",
"617 695 LINE",
"812 0 LINE",
"1233 0 LINE",
"866 1003 LINE",
"801 695 LINE"
);
}
);
width = 1400;
},
{
anchors = (
{
name = bottom;
position = "{443, 0}";
},
{
name = top;
position = "{757, 1475}";
}
);
layerId = "2503C51C-5A6C-4B2C-A968-78FEA18C2585";
paths = (
{
closed = 1;
nodes = (
"1069 1475 LINE",
"1032 1475 LINE",
"196 621 LINE",
"211 619 LINE",
"393 1475 LINE",
"361 1475 LINE",
"49 0 LINE",
"80 0 LINE",
"207 601 LINE",
"194 575 LINE",
"390 774 LINE",
"376 776 LINE",
"767 0 LINE",
"803 0 LINE",
"399 804 LINE",
"397 778 LINE"
);
}
);
width = 1006;
}
);
leftKerningGroup = H;
leftMetricsKey = H;
note = K;
rightKerningGroup = K;
unicode = 004B;
},
{
glyphname = L;
lastChange = "2020-05-24 20:15:04 +0000";
layers = (
{
anchors = (
{
name = bottom;
position = "{511, 0}";
},
{
name = center;
position = "{177, 738}";
},
{
name = top;
position = "{175, 1475}";
},
{
name = topright;
position = "{616, 1062}";
}
);
layerId = "A1A0948C-E637-4A65-8CCC-05505AD98C44";
paths = (
{
closed = 1;
nodes = (
"806 0 LINE",
"806 28 LINE",
"176 28 LINE",
"190 14 LINE",
"190 1475 LINE",
"160 1475 LINE",
"160 0 LINE"
);
}
);
width = 906;
},
{
anchors = (
{
name = bottom;
position = "{568, 0}";
},
{
name = center;
position = "{312, 738}";
},
{
name = top;
position = "{289, 1475}";
},
{
name = topright;
position = "{825, 1062}";
}
);
layerId = "584F9D0D-8480-40C6-ABEA-8DD6EE64252D";
paths = (
{
closed = 1;
nodes = (
"1020 0 LINE",
"1020 301 LINE",
"312 301 LINE",
"494 119 LINE",
"494 1475 LINE",
"90 1475 LINE",
"90 0 LINE"
);
}
);
width = 1085;
},
{
anchors = (
{
name = bottom;
position = "{459, 0}";
},
{
name = center;
position = "{330, 738}";
},
{
name = top;
position = "{485, 1475}";
},
{
name = topright;
position = "{874, 1062}";
}
);
layerId = "3FDD6C00-F7FD-4E85-84B0-0136AF7D7529";
paths = (
{
closed = 1;
nodes = (
"907 0 LINE",
"971 301 LINE",
"263 301 LINE",
"407 123 LINE",
"695 1475 LINE",
"291 1475 LINE",
"-23 0 LINE"
);
}
);
width = 1085;
},
{
anchors = (
{
name = bottom;
position = "{402, 0}";
},
{
name = center;
position = "{225, 738}";
},
{
name = top;
position = "{391, 1475}";
},
{
name = topright;
position = "{746, 1062}";
}
);
layerId = "2503C51C-5A6C-4B2C-A968-78FEA18C2585";
paths = (
{
closed = 1;
nodes = (
"694 0 LINE",
"701 28 LINE",
"69 28 LINE",
"80 14 LINE",
"391 1475 LINE",
"361 1475 LINE",
"48 0 LINE"
);
}
);
width = 906;
}
);
leftKerningGroup = H;
leftMetricsKey = H;
note = L;
rightKerningGroup = L;
unicode = 004C;
},
{
glyphname = Lslash;
lastChange = "2020-05-24 15:20:27 +0000";
layers = (
{
components = (
{
name = L;
}
);
layerId = "A1A0948C-E637-4A65-8CCC-05505AD98C44";
paths = (
{
closed = 1;
nodes = (
"426 911 LINE",
"-37 437 LINE",
"-14 417 LINE",
"449 892 LINE"
);
}
);
width = 906;
},
{
components = (
{
name = L;
transform = "{1, 0, 0, 1, 147, 0}";
}
);
layerId = "584F9D0D-8480-40C6-ABEA-8DD6EE64252D";
paths = (
{
closed = 1;
nodes = (
"874 1045 LINE",
"-22 643 LINE",
"108 365 LINE",
"1004 767 LINE"
);
}
);
width = 1232;
},
{
components = (
{
name = L;
transform = "{1, 0, 0, 1, 169, 0}";
}
);
layerId = "3FDD6C00-F7FD-4E85-84B0-0136AF7D7529";
paths = (
{
closed = 1;
nodes = (
"965 1045 LINE",
"0 643 LINE",
"83 365 LINE",
"1045 767 LINE"
);
}
);
width = 1254;
},
{
components = (
{
name = L;
}
);
layerId = "2503C51C-5A6C-4B2C-A968-78FEA18C2585";
paths = (
{
closed = 1;
nodes = (
"529 911 LINE",
"-35 437 LINE",
"-17 417 LINE",
"547 892 LINE"
);
}
);
width = 906;
}
);
leftKerningGroup = H;
rightKerningGroup = L;
rightMetricsKey = L;
unicode = 0141;
},
{
glyphname = M;
lastChange = "2020-05-24 15:18:20 +0000";
layers = (
{
anchors = (
{
name = bottom;
position = "{702, 0}";
},
{
name = top;
position = "{702, 1475}";
}
);
layerId = "A1A0948C-E637-4A65-8CCC-05505AD98C44";
paths = (
{
closed = 1;
nodes = (
"706 12 LINE",
"714 12 LINE",
"228 1475 LINE",
"180 1475 LINE",
"180 0 LINE",
"210 0 LINE",
"210 1450 LINE",
"206 1449 LINE",
"683 0 LINE",
"736 0 LINE",
"1215 1449 LINE",
"1211 1450 LINE",
"1211 0 LINE",
"1241 0 LINE",
"1241 1475 LINE",
"1193 1475 LINE"
);
}
);
width = 1421;
},
{
anchors = (
{
name = bottom;
position = "{971, 0}";
},
{
name = top;
position = "{971, 1475}";
}
);
layerId = "584F9D0D-8480-40C6-ABEA-8DD6EE64252D";
paths = (
{
closed = 1;
nodes = (
"944 164 LINE",
"985 164 LINE",
"771 1475 LINE",
"100 1475 LINE",
"100 0 LINE",
"504 0 LINE",
"504 1263 LINE",
"499 1259 LINE",
"713 0 LINE",
"1217 0 LINE",
"1434 1256 LINE",
"1429 1260 LINE",
"1429 0 LINE",
"1832 0 LINE",
"1832 1475 LINE",
"1161 1475 LINE"
);
}
);
width = 1932;
},
{
anchors = (
{
name = bottom;
position = "{882, 0}";
},
{
name = top;
position = "{1190, 1475}";
}
);
layerId = "3FDD6C00-F7FD-4E85-84B0-0136AF7D7529";
paths = (
{
closed = 1;
nodes = (
"853 165 LINE",
"899 165 LINE",
"951 1475 LINE",
"301 1475 LINE",
"-13 0 LINE",
"391 0 LINE",
"659 1259 LINE",
"645 1263 LINE",
"600 0 LINE",
"1104 0 LINE",
"1594 1246 LINE",
"1583 1256 LINE",
"1316 0 LINE",
"1719 0 LINE",
"2033 1475 LINE",
"1361 1475 LINE"
);
}
);
width = 1932;
},
{
anchors = (
{
name = bottom;
position = "{635, 0}";
},
{
name = top;
position = "{886, 1475}";
}
);
layerId = "2503C51C-5A6C-4B2C-A968-78FEA18C2585";
paths = (
{
closed = 1;
nodes = (
"592 11 LINE",
"600 11 LINE",
"435 1475 LINE",
"388 1475 LINE",
"74 0 LINE",
"105 0 LINE",
"410 1433 LINE",
"406 1433 LINE",
"570 0 LINE",
"622 0 LINE",
"1397 1431 LINE",
"1393 1433 LINE",
"1088 0 LINE",
"1119 0 LINE",
"1433 1475 LINE",
"1384 1475 LINE"
);
}
);
width = 1421;
},
{
anchors = (
{
name = bottom;
position = "{769, 0}";
},
{
name = top;
position = "{769, 1475}";
}
);
associatedMasterId = "A1A0948C-E637-4A65-8CCC-05505AD98C44";
layerId = "5E54D6FA-5846-4F2D-A52E-2346EB5FFA86";
name = "Regular{0,400}";
paths = (
{
closed = 1;
nodes = (
"762 155 LINE",
"782 155 LINE",
"441 1475 LINE",
"129 1475 LINE",
"129 0 LINE",
"299 0 LINE",
"299 1380 LINE",
"295 1378 LINE",
"661 0 LINE",
"883 0 LINE",
"1251 1377 LINE",
"1247 1379 LINE",
"1247 0 LINE",
"1417 0 LINE",
"1417 1475 LINE",
"1105 1475 LINE"
);
}
);
width = 1546;
},
{
anchors = (
{
name = bottom;
position = "{697, 0}";
},
{
name = top;
position = "{969, 1475}";
}
);
associatedMasterId = "2503C51C-5A6C-4B2C-A968-78FEA18C2585";
layerId = "96AA161A-E262-42C3-91DD-35169567FFD2";
name = "Italic{1,400}";
paths = (
{
closed = 1;
nodes = (
"678 155 LINE",
"698 155 LINE",
"638 1475 LINE",
"330 1475 LINE",
"16 0 LINE",
"186 0 LINE",
"480 1380 LINE",
"475 1378 LINE",
"548 0 LINE",
"770 0 LINE",
"1431 1377 LINE",
"1427 1379 LINE",
"1134 0 LINE",
"1304 0 LINE",
"1618 1475 LINE",
"1302 1475 LINE"
);
}
);
width = 1546;
}
);
leftKerningGroup = H;
note = M;
rightKerningGroup = H;
unicode = 004D;
},
{
glyphname = N;
lastChange = "2020-05-24 20:06:58 +0000";
layers = (
{
anchors = (
{
name = bottom;
position = "{605, 0}";
},
{
name = top;
position = "{605, 1475}";
}
);
layerId = "A1A0948C-E637-4A65-8CCC-05505AD98C44";
paths = (
{
closed = 1;
nodes = (
"190 1456 LINE",
"185 1454 LINE",
"999 0 LINE",
"1049 0 LINE",
"1049 1475 LINE",
"1019 1475 LINE",
"1019 17 LINE",
"1025 20 LINE",
"208 1475 LINE",
"160 1475 LINE",
"160 0 LINE",
"190 0 LINE"
);
}
);
width = 1209;
},
{
anchors = (
{
name = bottom;
position = "{782, 0}";
},
{
name = top;
position = "{782, 1475}";
}
);
layerId = "584F9D0D-8480-40C6-ABEA-8DD6EE64252D";
paths = (
{
closed = 1;
nodes = (
"493 1365 LINE",
"420 1349 LINE",
"787 0 LINE",
"1428 0 LINE",
"1428 1475 LINE",
"1025 1475 LINE",
"1025 105 LINE",
"1093 121 LINE",
"726 1475 LINE",
"90 1475 LINE",
"90 0 LINE",
"493 0 LINE"
);
}
);
width = 1518;
},
{
anchors = (
{
name = bottom;
position = "{676, 0}";
},
{
name = top;
position = "{990, 1475}";
}
);
layerId = "3FDD6C00-F7FD-4E85-84B0-0136AF7D7529";
paths = (
{
closed = 1;
nodes = (
"670 1365 LINE",
"637 1349 LINE",
"634 0 LINE",
"1315 0 LINE",
"1629 1475 LINE",
"1226 1475 LINE",
"935 105 LINE",
"963 121 LINE",
"967 1475 LINE",
"291 1475 LINE",
"-23 0 LINE",
"380 0 LINE"
);
}
);
width = 1518;
},
{
anchors = (
{
name = bottom;
position = "{504, 0}";
},
{
name = top;
position = "{818, 1475}";
}
);
layerId = "2503C51C-5A6C-4B2C-A968-78FEA18C2585";
paths = (
{
closed = 1;
nodes = (
"387 1456 LINE",
"385 1454 LINE",
"886 0 LINE",
"936 0 LINE",
"1250 1475 LINE",
"1220 1475 LINE",
"910 17 LINE",
"912 20 LINE",
"409 1475 LINE",
"361 1475 LINE",
"47 0 LINE",
"77 0 LINE"
);
}
);
width = 1209;
},
{
anchors = (
{
name = bottom;
position = "{653, 0}";
},
{
name = top;
position = "{653, 1475}";
}
);
associatedMasterId = "A1A0948C-E637-4A65-8CCC-05505AD98C44";
layerId = "14C02270-7490-4FB6-849C-FA9266540C34";
name = "Regular{0,400}";
paths = (
{
closed = 1;
nodes = (
"304 1382 LINE",
"288 1375 LINE",
"857 0 LINE",
"1154 0 LINE",
"1154 1475 LINE",
"984 1475 LINE",
"984 90 LINE",
"998 98 LINE",
"427 1475 LINE",
"134 1475 LINE",
"134 0 LINE",
"304 0 LINE"
);
}
);
width = 1288;
},
{
anchors = (
{
name = bottom;
position = "{552, 0}";
},
{
name = top;
position = "{866, 1475}";
}
);
associatedMasterId = "2503C51C-5A6C-4B2C-A968-78FEA18C2585";
layerId = "1E8F6C37-7555-47DC-A36F-C9BA52B65F47";
name = "Italic{1,400}";
paths = (
{
closed = 1;
nodes = (
"485 1382 LINE",
"468 1375 LINE",
"754 0 LINE",
"1041 0 LINE",
"1355 1475 LINE",
"1185 1475 LINE",
"890 90 LINE",
"906 98 LINE",
"618 1475 LINE",
"335 1475 LINE",
"21 0 LINE",
"191 0 LINE"
);
}
);
width = 1287;
}
);
leftKerningGroup = H;
leftMetricsKey = H;
note = N;
rightKerningGroup = H;
rightMetricsKey = H;
unicode = 004E;
},
{
glyphname = Eng;
lastChange = "2020-05-24 18:28:08 +0000";
layers = (
{
components = (
{
name = N;
}
);
layerId = "A1A0948C-E637-4A65-8CCC-05505AD98C44";
paths = (
{
closed = 1;
nodes = (
"1018 -96 LINE SMOOTH",
"1018 -224 OFFCURVE",
"995 -409 OFFCURVE",
"763 -409 CURVE SMOOTH",
"722 -409 OFFCURVE",
"683 -402 OFFCURVE",
"665 -396 CURVE",
"665 -424 LINE",
"681 -430 OFFCURVE",
"718 -437 OFFCURVE",
"763 -437 CURVE SMOOTH",
"1013 -437 OFFCURVE",
"1049 -255 OFFCURVE",
"1049 -96 CURVE SMOOTH",
"1049 0 LINE",
"1018 31 LINE"
);
}
);
width = 1209;
},
{
components = (
{
name = N;
}
);
layerId = "584F9D0D-8480-40C6-ABEA-8DD6EE64252D";
paths = (
{
closed = 1;
nodes = (
"1030 -15 LINE SMOOTH",
"1030 -133 OFFCURVE",
"888 -149 OFFCURVE",
"771 -149 CURVE SMOOTH",
"732 -149 OFFCURVE",
"694 -142 OFFCURVE",
"676 -136 CURVE",
"676 -428 LINE",
"691 -431 OFFCURVE",
"727 -435 OFFCURVE",
"771 -435 CURVE SMOOTH",
"1335 -435 OFFCURVE",
"1428 -241 OFFCURVE",
"1428 -15 CURVE SMOOTH",
"1428 0 LINE",
"1030 44 LINE"
);
}
);
width = 1518;
},
{
components = (
{
name = N;
}
);
layerId = "3FDD6C00-F7FD-4E85-84B0-0136AF7D7529";
paths = (
{
closed = 1;
nodes = (
"915 0 LINE SMOOTH",
"883 -140 OFFCURVE",
"682 -157 OFFCURVE",
"607 -157 CURVE",
"567 -157 OFFCURVE",
"534 -155 OFFCURVE",
"521 -153 CURVE",
"482 -424 LINE",
"507 -429 OFFCURVE",
"556 -435 OFFCURVE",
"597 -435 CURVE SMOOTH",
"1080 -435 OFFCURVE",
"1251 -302 OFFCURVE",
"1308 -33 CURVE SMOOTH",
"1315 0 LINE",
"925 44 LINE"
);
}
);
width = 1518;
},
{
components = (
{
name = N;
}
);
layerId = "2503C51C-5A6C-4B2C-A968-78FEA18C2585";
paths = (
{
closed = 1;
nodes = (
"852 -96 LINE SMOOTH",
"823 -225 OFFCURVE",
"758 -409 OFFCURVE",
"533 -409 CURVE",
"493 -409 OFFCURVE",
"456 -403 OFFCURVE",
"439 -398 CURVE",
"436 -424 LINE",
"450 -430 OFFCURVE",
"484 -437 OFFCURVE",
"529 -437 CURVE",
"770 -437 OFFCURVE",
"851 -268 OFFCURVE",
"886 -98 CURVE SMOOTH",
"906 0 LINE",
"879 23 LINE"
);
}
);
width = 1209;
}
);
leftKerningGroup = H;
leftMetricsKey = H;
rightKerningGroup = H;
rightMetricsKey = H;
unicode = 014A;
},
{
glyphname = O;
lastChange = "2020-05-25 16:03:48 +0000";
layers = (
{
anchors = (
{
name = bottom;
position = "{649, -17}";
},
{
name = center;
position = "{649, 738}";
},
{
name = ogonek;
position = "{836, 37}";
},
{
name = top;
position = "{649, 1488}";
},
{
name = topleft;
position = "{73, 1475}";
},
{
name = topright;
position = "{986, 1338}";
}
);
layerId = "A1A0948C-E637-4A65-8CCC-05505AD98C44";
paths = (
{
closed = 1;
nodes = (
"969 -17 OFFCURVE",
"1178 271 OFFCURVE",
"1178 739 CURVE SMOOTH",
"1178 1208 OFFCURVE",
"967 1488 OFFCURVE",
"649 1488 CURVE SMOOTH",
"332 1488 OFFCURVE",
"120 1208 OFFCURVE",
"120 739 CURVE SMOOTH",
"120 271 OFFCURVE",
"328 -17 OFFCURVE",
"649 -17 CURVE SMOOTH"
);
},
{
closed = 1;
nodes = (
"348 11 OFFCURVE",
"151 299 OFFCURVE",
"151 739 CURVE SMOOTH",
"151 1179 OFFCURVE",
"348 1460 OFFCURVE",
"649 1460 CURVE SMOOTH",
"950 1460 OFFCURVE",
"1147 1179 OFFCURVE",
"1147 739 CURVE SMOOTH",
"1147 300 OFFCURVE",
"953 11 OFFCURVE",
"649 11 CURVE SMOOTH"
);
}
);
width = 1298;
},
{
anchors = (
{
name = bottom;
position = "{762, -26}";
},
{
name = center;
position = "{762, 738}";
},
{
name = ogonek;
position = "{1004, 47}";
},
{
name = top;
position = "{762, 1500}";
},
{
name = topleft;
position = "{60, 1475}";
},
{
name = topright;
position = "{1140, 1392}";
}
);
layerId = "584F9D0D-8480-40C6-ABEA-8DD6EE64252D";
paths = (
{
closed = 1;
nodes = (
"1141 -26 OFFCURVE",
"1454 239 OFFCURVE",
"1454 739 CURVE SMOOTH",
"1454 1239 OFFCURVE",
"1149 1500 OFFCURVE",
"762 1500 CURVE SMOOTH",
"376 1500 OFFCURVE",
"70 1239 OFFCURVE",
"70 739 CURVE SMOOTH",
"70 239 OFFCURVE",
"381 -26 OFFCURVE",
"762 -26 CURVE SMOOTH"
);
},
{
closed = 1;
nodes = (
"615 286 OFFCURVE",
"480 389 OFFCURVE",
"480 739 CURVE SMOOTH",
"480 1089 OFFCURVE",
"615 1188 OFFCURVE",
"762 1188 CURVE SMOOTH",
"909 1188 OFFCURVE",
"1044 1089 OFFCURVE",
"1044 739 CURVE SMOOTH",
"1044 390 OFFCURVE",
"910 286 OFFCURVE",
"762 286 CURVE SMOOTH"
);
}
);
width = 1524;
},
{
anchors = (
{
name = bottom;
position = "{666, -26}";
},
{
name = center;
position = "{803, 738}";
},
{
name = ogonek;
position = "{939, 47}";
},
{
name = top;
position = "{950, 1500}";
},
{
name = topleft;
position = "{258, 1475}";
},
{
name = topright;
position = "{1290, 1392}";
}
);
layerId = "3FDD6C00-F7FD-4E85-84B0-0136AF7D7529";
paths = (
{
closed = 1;
nodes = (
"1183 -26 OFFCURVE",
"1511 388 OFFCURVE",
"1511 904 CURVE SMOOTH",
"1511 1287 OFFCURVE",
"1277 1500 OFFCURVE",
"936 1500 CURVE SMOOTH",
"426 1500 OFFCURVE",
"101 1095 OFFCURVE",
"101 578 CURVE SMOOTH",
"101 191 OFFCURVE",
"339 -26 OFFCURVE",
"676 -26 CURVE SMOOTH"
);
},
{
closed = 1;
nodes = (
"591 286 OFFCURVE",
"509 354 OFFCURVE",
"509 565 CURVE SMOOTH",
"509 854 OFFCURVE",
"614 1188 OFFCURVE",
"902 1188 CURVE SMOOTH",
"1021 1188 OFFCURVE",
"1103 1123 OFFCURVE",
"1103 913 CURVE SMOOTH",
"1103 626 OFFCURVE",
"995 286 OFFCURVE",
"710 286 CURVE SMOOTH"
);
}
);
width = 1524;
},
{
anchors = (
{
name = bottom;
position = "{539, -17}";
},
{
name = center;
position = "{691, 738}";
},
{
name = ogonek;
position = "{742, 37}";
},
{
name = top;
position = "{853, 1488}";
},
{
name = topleft;
position = "{272, 1475}";
},
{
name = topright;
position = "{1149, 1338}";
}
);
layerId = "2503C51C-5A6C-4B2C-A968-78FEA18C2585";
paths = (
{
closed = 1;
nodes = (
"981 -17 OFFCURVE",
"1241 493 OFFCURVE",
"1241 987 CURVE SMOOTH",
"1241 1304 OFFCURVE",
"1108 1488 OFFCURVE",
"847 1488 CURVE SMOOTH",
"404 1488 OFFCURVE",
"144 982 OFFCURVE",
"144 489 CURVE SMOOTH",
"144 173 OFFCURVE",
"276 -17 OFFCURVE",
"539 -17 CURVE SMOOTH"
);
},
{
closed = 1;
nodes = (
"295 11 OFFCURVE",
"176 199 OFFCURVE",
"176 495 CURVE SMOOTH",
"176 961 OFFCURVE",
"427 1460 OFFCURVE",
"847 1460 CURVE SMOOTH",
"1091 1460 OFFCURVE",
"1210 1278 OFFCURVE",
"1210 982 CURVE SMOOTH",
"1210 515 OFFCURVE",
"959 11 OFFCURVE",
"539 11 CURVE SMOOTH"
);
}
);
width = 1298;
}
);
leftKerningGroup = O;
note = O;
rightKerningGroup = O;
unicode = 004F;
},
{
glyphname = P;
lastChange = "2020-05-24 20:15:24 +0000";
layers = (
{
anchors = (
{
name = bottom;
position = "{560, 0}";
},
{
name = top;
position = "{560, 1475}";
}
);
layerId = "A1A0948C-E637-4A65-8CCC-05505AD98C44";
paths = (
{
closed = 1;
nodes = (
"190 574 LINE",
"483 574 LINE SMOOTH",
"816 574 OFFCURVE",
"963 780 OFFCURVE",
"963 1025 CURVE SMOOTH",
"963 1270 OFFCURVE",
"827 1475 OFFCURVE",
"483 1475 CURVE SMOOTH",
"160 1475 LINE",
"160 0 LINE",
"190 0 LINE"
);
},
{
closed = 1;
nodes = (
"190 1461 LINE",
"176 1447 LINE",
"474 1447 LINE SMOOTH",
"809 1447 OFFCURVE",
"932 1259 OFFCURVE",
"932 1025 CURVE SMOOTH",
"932 791 OFFCURVE",
"798 602 OFFCURVE",
"474 602 CURVE SMOOTH",
"176 602 LINE",
"190 588 LINE"
);
}
);
width = 1097;
},
{
anchors = (
{
name = bottom;
position = "{631, 0}";
},
{
name = top;
position = "{631, 1475}";
}
);
layerId = "584F9D0D-8480-40C6-ABEA-8DD6EE64252D";
paths = (
{
closed = 1;
nodes = (
"494 444 LINE",
"655 444 LINE SMOOTH",
"990 444 OFFCURVE",
"1211 677 OFFCURVE",
"1211 967 CURVE SMOOTH",
"1211 1257 OFFCURVE",
"990 1475 OFFCURVE",
"655 1475 CURVE SMOOTH",
"90 1475 LINE",
"90 0 LINE",
"494 0 LINE"
);
},
{
closed = 1;
nodes = (
"494 1357 LINE",
"312 1175 LINE",
"614 1175 LINE SMOOTH",
"713 1175 OFFCURVE",
"805 1117 OFFCURVE",
"805 967 CURVE SMOOTH",
"805 817 OFFCURVE",
"713 743 OFFCURVE",
"614 743 CURVE SMOOTH",
"312 743 LINE",
"494 561 LINE"
);
}
);
width = 1275;
},
{
anchors = (
{
name = bottom;
position = "{515, 0}";
},
{
name = top;
position = "{829, 1475}";
}
);
layerId = "3FDD6C00-F7FD-4E85-84B0-0136AF7D7529";
paths = (
{
closed = 1;
nodes = (
"476 444 LINE",
"637 444 LINE SMOOTH",
"995 444 OFFCURVE",
"1307 692 OFFCURVE",
"1307 1047 CURVE SMOOTH",
"1307 1281 OFFCURVE",
"1165 1475 OFFCURVE",
"856 1475 CURVE SMOOTH",
"291 1475 LINE",
"-23 0 LINE",
"381 0 LINE"
);
},
{
closed = 1;
nodes = (
"669 1353 LINE",
"449 1175 LINE",
"751 1175 LINE SMOOTH",
"843 1175 OFFCURVE",
"899 1116 OFFCURVE",
"899 1010 CURVE SMOOTH",
"899 859 OFFCURVE",
"807 743 OFFCURVE",
"659 743 CURVE SMOOTH",
"357 743 LINE",
"501 565 LINE"
);
}
);
width = 1282;
},
{
anchors = (
{
name = bottom;
position = "{444, 0}";
},
{
name = top;
position = "{758, 1475}";
}
);
layerId = "2503C51C-5A6C-4B2C-A968-78FEA18C2585";
paths = (
{
closed = 1;
nodes = (
"199 574 LINE",
"495 574 LINE SMOOTH",
"835 574 OFFCURVE",
"1075 807 OFFCURVE",
"1075 1139 CURVE SMOOTH",
"1075 1321 OFFCURVE",
"976 1475 OFFCURVE",
"677 1475 CURVE SMOOTH",
"361 1475 LINE",
"47 0 LINE",
"77 0 LINE"
);
},
{
closed = 1;
nodes = (
"388 1461 LINE",
"371 1447 LINE",
"669 1447 LINE SMOOTH",
"954 1447 OFFCURVE",
"1045 1312 OFFCURVE",
"1045 1145 CURVE SMOOTH",
"1045 824 OFFCURVE",
"822 602 OFFCURVE",
"489 602 CURVE SMOOTH",
"191 602 LINE",
"202 588 LINE"
);
}
);
width = 1101;
}
);
leftKerningGroup = H;
leftMetricsKey = H;
note = P;
rightKerningGroup = P;
unicode = 0050;
},
{
glyphname = Thorn;
lastChange = "2020-05-23 20:36:22 +0000";
layers = (
{
layerId = "A1A0948C-E637-4A65-8CCC-05505AD98C44";
paths = (
{
closed = 1;
nodes = (
"190 0 LINE",
"190 315 LINE",
"461 315 LINE SMOOTH",
"709 315 OFFCURVE",
"900 461 OFFCURVE",
"900 729 CURVE SMOOTH",
"900 992 OFFCURVE",
"714 1143 OFFCURVE",
"461 1143 CURVE SMOOTH",
"190 1143 LINE",
"190 1473 LINE",
"160 1473 LINE",
"160 0 LINE"
);
},
{
closed = 1;
nodes = (
"190 1115 LINE",
"461 1115 LINE SMOOTH",
"691 1115 OFFCURVE",
"870 975 OFFCURVE",
"870 729 CURVE SMOOTH",
"870 485 OFFCURVE",
"692 343 OFFCURVE",
"461 343 CURVE SMOOTH",
"190 343 LINE"
);
}
);
width = 1020;
},
{
layerId = "584F9D0D-8480-40C6-ABEA-8DD6EE64252D";
paths = (
{
closed = 1;
nodes = (
"493 0 LINE",
"493 305 LINE",
"660 305 LINE SMOOTH",
"957 305 OFFCURVE",
"1160 444 OFFCURVE",
"1160 728 CURVE SMOOTH",
"1160 1012 OFFCURVE",
"960 1153 OFFCURVE",
"660 1153 CURVE SMOOTH",
"493 1153 LINE",
"493 1473 LINE",
"90 1473 LINE",
"90 0 LINE"
);
},
{
closed = 1;
nodes = (
"493 852 LINE",
"618 852 LINE SMOOTH",
"702 852 OFFCURVE",
"759 810 OFFCURVE",
"759 729 CURVE SMOOTH",
"759 651 OFFCURVE",
"704 605 OFFCURVE",
"618 605 CURVE SMOOTH",
"493 605 LINE"
);
}
);
width = 1230;
},
{
layerId = "3FDD6C00-F7FD-4E85-84B0-0136AF7D7529";
paths = (
{
closed = 1;
nodes = (
"380 0 LINE",
"445 305 LINE",
"612 305 LINE SMOOTH",
"952 305 OFFCURVE",
"1209 480 OFFCURVE",
"1209 815 CURVE SMOOTH",
"1209 1041 OFFCURVE",
"1060 1153 OFFCURVE",
"793 1153 CURVE SMOOTH",
"626 1153 LINE",
"694 1473 LINE",
"291 1473 LINE",
"-23 0 LINE"
);
},
{
closed = 1;
nodes = (
"562 852 LINE",
"687 852 LINE SMOOTH",
"763 852 OFFCURVE",
"803 818 OFFCURVE",
"803 752 CURVE SMOOTH",
"803 659 OFFCURVE",
"728 605 OFFCURVE",
"634 605 CURVE SMOOTH",
"509 605 LINE"
);
}
);
width = 1228;
},
{
layerId = "2503C51C-5A6C-4B2C-A968-78FEA18C2585";
paths = (
{
closed = 1;
nodes = (
"77 0 LINE",
"144 315 LINE",
"418 315 LINE SMOOTH",
"713 315 OFFCURVE",
"944 517 OFFCURVE",
"944 818 CURVE SMOOTH",
"944 1022 OFFCURVE",
"819 1143 OFFCURVE",
"584 1143 CURVE SMOOTH",
"320 1143 LINE",
"391 1473 LINE",
"361 1473 LINE",
"47 0 LINE"
);
},
{
closed = 1;
nodes = (
"314 1115 LINE",
"585 1115 LINE SMOOTH",
"796 1115 OFFCURVE",
"915 1005 OFFCURVE",
"915 820 CURVE SMOOTH",
"915 542 OFFCURVE",
"698 343 OFFCURVE",
"421 343 CURVE SMOOTH",
"150 343 LINE"
);
}
);
width = 1017;
}
);
leftKerningGroup = H;
leftMetricsKey = H;
note = Thorn;
rightKerningGroup = D;
rightMetricsKey = D;
unicode = 00DE;
},
{
glyphname = Q;
lastChange = "2020-05-21 15:27:40 +0000";
layers = (
{
anchors = (
{
name = bottom;
position = "{649, -17}";
},
{
name = top;
position = "{647, 1487}";
}
);
components = (
{
name = O;
}
);
layerId = "A1A0948C-E637-4A65-8CCC-05505AD98C44";
paths = (
{
closed = 1;
nodes = (
"630 -232 OFFCURVE",
"883 -307 OFFCURVE",
"950 -323 CURVE",
"966 -296 LINE",
"907 -283 OFFCURVE",
"664 -207 OFFCURVE",
"664 -10 CURVE",
"630 -10 LINE"
);
}
);
width = 1298;
},
{
anchors = (
{
name = bottom;
position = "{762, -26}";
},
{
name = top;
position = "{762, 1500}";
}
);
components = (
{
name = O;
}
);
layerId = "584F9D0D-8480-40C6-ABEA-8DD6EE64252D";
paths = (
{
closed = 1;
nodes = (
"598 -343 OFFCURVE",
"1030 -378 OFFCURVE",
"1076 -378 CURVE",
"1188 -111 LINE",
"1148 -107 OFFCURVE",
"938 -85 OFFCURVE",
"938 22 CURVE",
"598 22 LINE"
);
}
);
width = 1524;
},
{
anchors = (
{
name = bottom;
position = "{645, -25}";
},
{
name = top;
position = "{966, 1500}";
}
);
components = (
{
name = O;
}
);
layerId = "3FDD6C00-F7FD-4E85-84B0-0136AF7D7529";
paths = (
{
closed = 1;
nodes = (
"480 -360 OFFCURVE",
"824 -378 OFFCURVE",
"877 -378 CURVE",
"1037 -111 LINE",
"998 -107 OFFCURVE",
"821 -84 OFFCURVE",
"821 22 CURVE",
"480 22 LINE"
);
}
);
width = 1524;
},
{
anchors = (
{
name = bottom;
position = "{532, -17}";
},
{
name = top;
position = "{853, 1487}";
}
);
components = (
{
name = O;
}
);
layerId = "2503C51C-5A6C-4B2C-A968-78FEA18C2585";
paths = (
{
closed = 1;
nodes = (
"513 -235 OFFCURVE",
"709 -298 OFFCURVE",
"769 -313 CURVE",
"787 -285 LINE",
"723 -272 OFFCURVE",
"548 -209 OFFCURVE",
"548 -2 CURVE",
"513 2 LINE"
);
}
);
width = 1298;
}
);
leftKerningGroup = O;
leftMetricsKey = O;
note = Q;
rightKerningGroup = O;
rightMetricsKey = O;
unicode = 0051;
},
{
glyphname = R;
lastChange = "2020-05-24 20:15:50 +0000";
layers = (
{
anchors = (
{
name = bottom;
position = "{572, 0}";
},
{
name = top;
position = "{572, 1475}";
}
);
layerId = "A1A0948C-E637-4A65-8CCC-05505AD98C44";
paths = (
{
closed = 1;
nodes = (
"190 0 LINE",
"190 714 LINE",
"176 700 LINE",
"597 700 LINE SMOOTH",
"766 700 OFFCURVE",
"881 636 OFFCURVE",
"881 476 CURVE SMOOTH",
"881 354 OFFCURVE",
"881 213 OFFCURVE",
"881 91 CURVE SMOOTH",
"881 40 OFFCURVE",
"892 7 OFFCURVE",
"896 0 CURVE",
"928 0 LINE",
"924 7 OFFCURVE",
"912 41 OFFCURVE",
"912 91 CURVE SMOOTH",
"912 216 OFFCURVE",
"912 358 OFFCURVE",
"912 483 CURVE SMOOTH",
"912 646 OFFCURVE",
"787 707 OFFCURVE",
"693 716 CURVE",
"787 729 OFFCURVE",
"955 862 OFFCURVE",
"955 1106 CURVE SMOOTH",
"955 1367 OFFCURVE",
"819 1475 OFFCURVE",
"587 1475 CURVE SMOOTH",
"160 1475 LINE",
"160 0 LINE"
);
},
{
closed = 1;
nodes = (
"190 1461 LINE",
"176 1447 LINE",
"580 1447 LINE SMOOTH",
"805 1447 OFFCURVE",
"924 1347 OFFCURVE",
"924 1106 CURVE SMOOTH",
"924 872 OFFCURVE",
"771 728 OFFCURVE",
"597 728 CURVE SMOOTH",
"176 728 LINE",
"190 714 LINE"
);
}
);
width = 1105;
},
{
anchors = (
{
name = bottom;
position = "{669, 0}";
},
{
name = top;
position = "{669, 1475}";
}
);
layerId = "584F9D0D-8480-40C6-ABEA-8DD6EE64252D";
paths = (
{
closed = 1;
nodes = (
"494 0 LINE",
"494 723 LINE",
"312 541 LINE",
"647 541 LINE SMOOTH",
"765 541 OFFCURVE",
"804 475 OFFCURVE",
"804 368 CURVE SMOOTH",
"804 295 OFFCURVE",
"804 243 OFFCURVE",
"804 170 CURVE SMOOTH",
"804 99 OFFCURVE",
"815 33 OFFCURVE",
"837 0 CURVE",
"1241 0 LINE",
"1217 29 OFFCURVE",
"1206 99 OFFCURVE",
"1206 170 CURVE SMOOTH",
"1206 255 OFFCURVE",
"1206 329 OFFCURVE",
"1206 414 CURVE SMOOTH",
"1206 616 OFFCURVE",
"1089 684 OFFCURVE",
"960 692 CURVE",
"1086 702 OFFCURVE",
"1237 829 OFFCURVE",
"1237 1053 CURVE SMOOTH",
"1237 1318 OFFCURVE",
"1080 1475 OFFCURVE",
"744 1475 CURVE SMOOTH",
"90 1475 LINE",
"90 0 LINE"
);
},
{
closed = 1;
nodes = (
"494 1358 LINE",
"312 1176 LINE",
"649 1176 LINE SMOOTH",
"756 1176 OFFCURVE",
"822 1101 OFFCURVE",
"822 1015 CURVE SMOOTH",
"822 908 OFFCURVE",
"753 841 OFFCURVE",
"651 841 CURVE SMOOTH",
"312 841 LINE",
"494 659 LINE"
);
}
);
width = 1311;
},
{
anchors = (
{
name = bottom;
position = "{553, 0}";
},
{
name = top;
position = "{867, 1475}";
}
);
layerId = "3FDD6C00-F7FD-4E85-84B0-0136AF7D7529";
paths = (
{
closed = 1;
nodes = (
"381 0 LINE",
"534 719 LINE",
"314 541 LINE",
"649 541 LINE SMOOTH",
"741 541 OFFCURVE",
"777 501 OFFCURVE",
"777 432 CURVE SMOOTH",
"777 340 OFFCURVE",
"714 165 OFFCURVE",
"714 62 CURVE SMOOTH",
"714 36 OFFCURVE",
"717 15 OFFCURVE",
"724 0 CURVE",
"1128 0 LINE",
"1120 13 OFFCURVE",
"1116 36 OFFCURVE",
"1116 63 CURVE SMOOTH",
"1116 174 OFFCURVE",
"1191 391 OFFCURVE",
"1191 500 CURVE SMOOTH",
"1191 636 OFFCURVE",
"1102 685 OFFCURVE",
"994 692 CURVE",
"1200 708 OFFCURVE",
"1355 938 OFFCURVE",
"1355 1156 CURVE SMOOTH",
"1355 1346 OFFCURVE",
"1240 1475 OFFCURVE",
"945 1475 CURVE SMOOTH",
"291 1475 LINE",
"-23 0 LINE"
);
},
{
closed = 1;
nodes = (
"669 1354 LINE",
"449 1176 LINE",
"786 1176 LINE SMOOTH",
"884 1176 OFFCURVE",
"926 1113 OFFCURVE",
"926 1036 CURVE SMOOTH",
"926 914 OFFCURVE",
"825 841 OFFCURVE",
"717 841 CURVE SMOOTH",
"378 841 LINE",
"522 663 LINE"
);
}
);
width = 1311;
},
{
anchors = (
{
name = bottom;
position = "{456, 0}";
},
{
name = top;
position = "{770, 1475}";
}
);
layerId = "2503C51C-5A6C-4B2C-A968-78FEA18C2585";
paths = (
{
closed = 1;
nodes = (
"77 0 LINE",
"229 714 LINE",
"212 700 LINE",
"633 700 LINE SMOOTH",
"780 700 OFFCURVE",
"876 655 OFFCURVE",
"876 535 CURVE SMOOTH",
"876 454 OFFCURVE",
"781 105 OFFCURVE",
"781 27 CURVE SMOOTH",
"781 13 OFFCURVE",
"782 3 OFFCURVE",
"783 0 CURVE",
"815 0 LINE",
"814 4 OFFCURVE",
"812 15 OFFCURVE",
"812 31 CURVE SMOOTH",
"812 115 OFFCURVE",
"909 463 OFFCURVE",
"909 541 CURVE SMOOTH",
"909 661 OFFCURVE",
"813 708 OFFCURVE",
"732 716 CURVE",
"934 740 OFFCURVE",
"1083 993 OFFCURVE",
"1083 1200 CURVE SMOOTH",
"1083 1369 OFFCURVE",
"985 1475 OFFCURVE",
"781 1475 CURVE SMOOTH",
"361 1475 LINE",
"47 0 LINE"
);
},
{
closed = 1;
nodes = (
"388 1461 LINE",
"371 1447 LINE",
"775 1447 LINE SMOOTH",
"970 1447 OFFCURVE",
"1052 1349 OFFCURVE",
"1052 1199 CURVE SMOOTH",
"1052 956 OFFCURVE",
"874 728 OFFCURVE",
"639 728 CURVE SMOOTH",
"218 728 LINE",
"229 714 LINE"
);
}
);
width = 1105;
}
);
leftKerningGroup = H;
leftMetricsKey = H;
note = R;
rightKerningGroup = R;
unicode = 0052;
},
{
glyphname = R.ss01;
lastChange = "2020-05-24 20:06:26 +0000";
layers = (
{
anchors = (
{
name = bottom;
position = "{568, 0}";
},
{
name = top;
position = "{568, 1475}";
}
);
layerId = "A1A0948C-E637-4A65-8CCC-05505AD98C44";
paths = (
{
closed = 1;
nodes = (
"160 1475 LINE",
"160 0 LINE",
"190 0 LINE",
"190 679 LINE",
"652 679 LINE",
"820 679 OFFCURVE",
"986 821 OFFCURVE",
"986 1082 CURVE SMOOTH",
"986 1343 OFFCURVE",
"829 1475 OFFCURVE",
"597 1475 CURVE SMOOTH"
);
},
{
closed = 1;
nodes = (
"190 708 LINE",
"190 1447 LINE",
"580 1447 LINE SMOOTH",
"805 1447 OFFCURVE",
"955 1327 OFFCURVE",
"955 1082 CURVE SMOOTH",
"955 837 OFFCURVE",
"794 708 OFFCURVE",
"652 708 CURVE SMOOTH"
);
},
{
closed = 1;
nodes = (
"915 0 LINE",
"949 0 LINE",
"679 696 LINE",
"647 696 LINE"
);
}
);
width = 1135;
},
{
anchors = (
{
name = bottom;
position = "{674, 0}";
},
{
name = top;
position = "{674, 1475}";
}
);
layerId = "584F9D0D-8480-40C6-ABEA-8DD6EE64252D";
paths = (
{
closed = 1;
nodes = (
"90 1475 LINE",
"90 0 LINE",
"494 0 LINE",
"494 562 LINE",
"652 562 LINE SMOOTH",
"969 562 OFFCURVE",
"1221 663 OFFCURVE",
"1221 1043 CURVE SMOOTH",
"1221 1308 OFFCURVE",
"1080 1475 OFFCURVE",
"744 1475 CURVE SMOOTH"
);
},
{
closed = 1;
nodes = (
"494 852 LINE",
"494 1185 LINE",
"649 1185 LINE SMOOTH",
"756 1185 OFFCURVE",
"805 1113 OFFCURVE",
"805 1027 CURVE SMOOTH",
"805 920 OFFCURVE",
"755 852 OFFCURVE",
"656 852 CURVE SMOOTH"
);
},
{
closed = 1;
nodes = (
"810 0 LINE",
"1222 0 LINE",
"951 693 LINE",
"582 693 LINE"
);
}
);
width = 1335;
},
{
anchors = (
{
name = bottom;
position = "{564, 0}";
},
{
name = top;
position = "{878, 1475}";
}
);
layerId = "3FDD6C00-F7FD-4E85-84B0-0136AF7D7529";
paths = (
{
closed = 1;
nodes = (
"291 1475 LINE",
"-23 0 LINE",
"381 0 LINE",
"501 562 LINE",
"679 562 LINE SMOOTH",
"1080 562 OFFCURVE",
"1340 755 OFFCURVE",
"1340 1145 CURVE SMOOTH",
"1340 1344 OFFCURVE",
"1214 1475 OFFCURVE",
"925 1475 CURVE SMOOTH"
);
},
{
closed = 1;
nodes = (
"562 852 LINE",
"633 1185 LINE",
"788 1185 LINE SMOOTH",
"877 1185 OFFCURVE",
"916 1135 OFFCURVE",
"916 1069 CURVE SMOOTH",
"916 957 OFFCURVE",
"840 852 OFFCURVE",
"724 852 CURVE SMOOTH"
);
},
{
closed = 1;
nodes = (
"697 0 LINE",
"1109 0 LINE",
"986 693 LINE",
"617 693 LINE"
);
}
);
width = 1340;
},
{
anchors = (
{
name = bottom;
position = "{459, 0}";
},
{
name = top;
position = "{773, 1475}";
}
);
layerId = "2503C51C-5A6C-4B2C-A968-78FEA18C2585";
paths = (
{
closed = 1;
nodes = (
"361 1475 LINE",
"47 0 LINE",
"78 0 LINE",
"223 679 LINE",
"688 679 LINE",
"933 679 OFFCURVE",
"1109 920 OFFCURVE",
"1109 1177 CURVE SMOOTH",
"1109 1370 OFFCURVE",
"998 1475 OFFCURVE",
"791 1475 CURVE SMOOTH"
);
},
{
closed = 1;
nodes = (
"229 708 LINE",
"386 1447 LINE",
"776 1447 LINE SMOOTH",
"976 1447 OFFCURVE",
"1078 1352 OFFCURVE",
"1078 1174 CURVE SMOOTH",
"1078 943 OFFCURVE",
"916 708 OFFCURVE",
"691 708 CURVE SMOOTH"
);
},
{
closed = 1;
nodes = (
"803 0 LINE",
"835 0 LINE",
"713 696 LINE",
"683 696 LINE"
);
}
);
width = 1143;
}
);
leftKerningGroup = H;
leftMetricsKey = H;
note = R;
rightKerningGroup = R;
},
{
glyphname = S;
lastChange = "2020-05-24 20:47:36 +0000";
layers = (
{
anchors = (
{
name = bottom;
position = "{552, -13}";
},
{
name = top;
position = "{547, 1488}";
}
);
layerId = "A1A0948C-E637-4A65-8CCC-05505AD98C44";
paths = (
{
closed = 1;
nodes = (
"834 -17 OFFCURVE",
"979 120 OFFCURVE",
"979 347 CURVE SMOOTH",
"979 579 OFFCURVE",
"834 674 OFFCURVE",
"575 761 CURVE SMOOTH",
"339 840 OFFCURVE",
"164 934 OFFCURVE",
"164 1155 CURVE SMOOTH",
"164 1353 OFFCURVE",
"301 1460 OFFCURVE",
"539 1460 CURVE SMOOTH",
"790 1460 OFFCURVE",
"937 1350 OFFCURVE",
"937 1091 CURVE SMOOTH",
"937 1054 OFFCURVE",
"937 1027 OFFCURVE",
"937 990 CURVE",
"968 990 LINE",
"968 1027 OFFCURVE",
"968 1054 OFFCURVE",
"968 1091 CURVE SMOOTH",
"968 1364 OFFCURVE",
"813 1488 OFFCURVE",
"538 1488 CURVE SMOOTH",
"282 1488 OFFCURVE",
"132 1375 OFFCURVE",
"132 1155 CURVE SMOOTH",
"132 923 OFFCURVE",
"302 824 OFFCURVE",
"570 731 CURVE SMOOTH",
"802 651 OFFCURVE",
"947 565 OFFCURVE",
"947 345 CURVE SMOOTH",
"947 133 OFFCURVE",
"815 11 OFFCURVE",
"547 11 CURVE SMOOTH",
"292 11 OFFCURVE",
"151 135 OFFCURVE",
"151 405 CURVE SMOOTH",
"151 438 OFFCURVE",
"151 451 OFFCURVE",
"151 484 CURVE",
"120 484 LINE",
"120 451 OFFCURVE",
"120 438 OFFCURVE",
"120 405 CURVE SMOOTH",
"120 122 OFFCURVE",
"260 -17 OFFCURVE",
"552 -17 CURVE"
);
}
);
width = 1099;
},
{
anchors = (
{
name = bottom;
position = "{647, -18}";
},
{
name = top;
position = "{649, 1500}";
}
);
layerId = "584F9D0D-8480-40C6-ABEA-8DD6EE64252D";
paths = (
{
closed = 1;
nodes = (
"981 -26 OFFCURVE",
"1226 127 OFFCURVE",
"1226 406 CURVE SMOOTH",
"1226 672 OFFCURVE",
"1044 775 OFFCURVE",
"777 859 CURVE SMOOTH",
"596 916 OFFCURVE",
"467 969 OFFCURVE",
"467 1065 CURVE SMOOTH",
"467 1146 OFFCURVE",
"533 1190 OFFCURVE",
"650 1190 CURVE SMOOTH",
"768 1190 OFFCURVE",
"812 1121 OFFCURVE",
"812 1035 CURVE SMOOTH",
"812 1028 OFFCURVE",
"812 1011 OFFCURVE",
"812 1004 CURVE",
"1215 1004 LINE",
"1215 1021 OFFCURVE",
"1215 1037 OFFCURVE",
"1215 1054 CURVE SMOOTH",
"1215 1325 OFFCURVE",
"970 1500 OFFCURVE",
"645 1500 CURVE SMOOTH",
"330 1500 OFFCURVE",
"79 1337 OFFCURVE",
"79 1064 CURVE SMOOTH",
"79 798 OFFCURVE",
"280 663 OFFCURVE",
"488 597 CURVE SMOOTH",
"680 536 OFFCURVE",
"834 480 OFFCURVE",
"834 394 CURVE SMOOTH",
"834 317 OFFCURVE",
"764 285 OFFCURVE",
"649 285 CURVE SMOOTH",
"530 285 OFFCURVE",
"473 355 OFFCURVE",
"473 449 CURVE SMOOTH",
"473 464 OFFCURVE",
"473 478 OFFCURVE",
"473 493 CURVE",
"70 493 LINE",
"70 476 OFFCURVE",
"70 458 OFFCURVE",
"70 441 CURVE SMOOTH",
"70 142 OFFCURVE",
"317 -26 OFFCURVE",
"645 -26 CURVE"
);
}
);
width = 1296;
},
{
anchors = (
{
name = bottom;
position = "{549, -18}";
},
{
name = top;
position = "{837, 1500}";
}
);
layerId = "3FDD6C00-F7FD-4E85-84B0-0136AF7D7529";
paths = (
{
closed = 1;
nodes = (
"907 -26 OFFCURVE",
"1207 154 OFFCURVE",
"1207 481 CURVE SMOOTH",
"1207 688 OFFCURVE",
"1050 786 OFFCURVE",
"833 859 CURVE SMOOTH",
"678 911 OFFCURVE",
"574 960 OFFCURVE",
"574 1042 CURVE SMOOTH",
"574 1139 OFFCURVE",
"668 1190 OFFCURVE",
"786 1190 CURVE SMOOTH",
"883 1190 OFFCURVE",
"920 1144 OFFCURVE",
"920 1080 CURVE SMOOTH",
"920 1050 OFFCURVE",
"912 1016 OFFCURVE",
"909 1004 CURVE",
"1312 1004 LINE",
"1320 1029 OFFCURVE",
"1331 1085 OFFCURVE",
"1331 1139 CURVE SMOOTH",
"1331 1361 OFFCURVE",
"1117 1500 OFFCURVE",
"827 1500 CURVE SMOOTH",
"480 1500 OFFCURVE",
"178 1294 OFFCURVE",
"178 969 CURVE SMOOTH",
"178 765 OFFCURVE",
"360 655 OFFCURVE",
"528 597 CURVE SMOOTH",
"686 543 OFFCURVE",
"803 487 OFFCURVE",
"803 409 CURVE SMOOTH",
"803 321 OFFCURVE",
"705 285 OFFCURVE",
"593 285 CURVE SMOOTH",
"493 285 OFFCURVE",
"447 335 OFFCURVE",
"447 406 CURVE SMOOTH",
"447 428 OFFCURVE",
"452 460 OFFCURVE",
"461 493 CURVE",
"58 493 LINE",
"46 449 OFFCURVE",
"37 409 OFFCURVE",
"37 346 CURVE SMOOTH",
"37 107 OFFCURVE",
"262 -26 OFFCURVE",
"543 -26 CURVE"
);
}
);
width = 1295;
},
{
anchors = (
{
name = bottom;
position = "{439, -13}";
},
{
name = top;
position = "{743, 1488}";
}
);
layerId = "2503C51C-5A6C-4B2C-A968-78FEA18C2585";
paths = (
{
closed = 1;
nodes = (
"737 -17 OFFCURVE",
"948 142 OFFCURVE",
"948 419 CURVE SMOOTH",
"948 586 OFFCURVE",
"835 686 OFFCURVE",
"625 761 CURVE SMOOTH",
"425 833 OFFCURVE",
"295 924 OFFCURVE",
"295 1099 CURVE SMOOTH",
"295 1334 OFFCURVE",
"483 1460 OFFCURVE",
"739 1460 CURVE SMOOTH",
"950 1460 OFFCURVE",
"1071 1383 OFFCURVE",
"1071 1203 CURVE SMOOTH",
"1071 1145 OFFCURVE",
"1057 1081 OFFCURVE",
"1037 990 CURVE",
"1068 990 LINE",
"1088 1078 OFFCURVE",
"1102 1146 OFFCURVE",
"1102 1207 CURVE SMOOTH",
"1102 1400 OFFCURVE",
"971 1488 OFFCURVE",
"739 1488 CURVE SMOOTH",
"463 1488 OFFCURVE",
"263 1354 OFFCURVE",
"263 1094 CURVE SMOOTH",
"263 910 OFFCURVE",
"394 813 OFFCURVE",
"617 731 CURVE SMOOTH",
"806 662 OFFCURVE",
"916 571 OFFCURVE",
"916 415 CURVE SMOOTH",
"916 158 OFFCURVE",
"719 11 OFFCURVE",
"439 11 CURVE SMOOTH",
"227 11 OFFCURVE",
"112 97 OFFCURVE",
"112 281 CURVE SMOOTH",
"112 343 OFFCURVE",
"121 392 OFFCURVE",
"143 484 CURVE",
"112 484 LINE",
"91 394 OFFCURVE",
"80 341 OFFCURVE",
"80 275 CURVE SMOOTH",
"80 80 OFFCURVE",
"204 -17 OFFCURVE",
"443 -17 CURVE"
);
}
);
width = 1105;
}
);
leftKerningGroup = S;
leftMetricsKey = O;
note = S;
rightKerningGroup = S;
rightMetricsKey = O;
unicode = 0053;
},
{
glyphname = Germandbls;
lastChange = "2020-05-24 15:20:27 +0000";
layers = (
{
layerId = "A1A0948C-E637-4A65-8CCC-05505AD98C44";
paths = (
{
closed = 1;
nodes = (
"190 0 LINE",
"190 1133 LINE",
"190 1340 OFFCURVE",
"291 1447 OFFCURVE",
"487 1447 CURVE",
"870 1447 LINE",
"447 894 LINE",
"480 863 LINE",
"508 869 OFFCURVE",
"537 872 OFFCURVE",
"566 872 CURVE SMOOTH",
"766 872 OFFCURVE",
"954 720 OFFCURVE",
"954 449 CURVE SMOOTH",
"954 139 OFFCURVE",
"771 15 OFFCURVE",
"540 15 CURVE SMOOTH",
"473 15 OFFCURVE",
"398 36 OFFCURVE",
"374 47 CURVE",
"360 17 LINE",
"389 5 OFFCURVE",
"462 -13 OFFCURVE",
"542 -13 CURVE SMOOTH",
"801 -13 OFFCURVE",
"986 129 OFFCURVE",
"986 449 CURVE SMOOTH",
"986 732 OFFCURVE",
"794 900 OFFCURVE",
"570 900 CURVE SMOOTH",
"541 900 OFFCURVE",
"512 897 OFFCURVE",
"482 891 CURVE",
"905 1445 LINE",
"905 1475 LINE",
"486 1475 LINE",
"269 1475 OFFCURVE",
"160 1353 OFFCURVE",
"160 1128 CURVE",
"160 0 LINE"
);
}
);
width = 1106;
},
{
layerId = "584F9D0D-8480-40C6-ABEA-8DD6EE64252D";
paths = (
{
closed = 1;
nodes = (
"494 0 LINE",
"494 1061 LINE",
"494 1129 OFFCURVE",
"518 1175 OFFCURVE",
"588 1175 CURVE",
"833 1175 LINE",
"523 869 LINE",
"712 623 LINE",
"723 631 OFFCURVE",
"756 653 OFFCURVE",
"806 653 CURVE SMOOTH",
"890 653 OFFCURVE",
"945 600 OFFCURVE",
"945 476 CURVE SMOOTH",
"945 352 OFFCURVE",
"877 287 OFFCURVE",
"794 287 CURVE SMOOTH",
"707 287 OFFCURVE",
"608 310 OFFCURVE",
"584 321 CURVE",
"584 17 LINE",
"613 5 OFFCURVE",
"686 -13 OFFCURVE",
"786 -13 CURVE SMOOTH",
"1100 -13 OFFCURVE",
"1351 109 OFFCURVE",
"1351 459 CURVE SMOOTH",
"1351 793 OFFCURVE",
"1175 891 OFFCURVE",
"1004 891 CURVE SMOOTH",
"984 891 OFFCURVE",
"954 889 OFFCURVE",
"935 885 CURVE",
"1239 1157 LINE",
"1239 1475 LINE",
"535 1475 LINE",
"293 1475 OFFCURVE",
"90 1365 OFFCURVE",
"90 1097 CURVE",
"90 0 LINE"
);
}
);
width = 1421;
},
{
layerId = "2503C51C-5A6C-4B2C-A968-78FEA18C2585";
paths = (
{
closed = 1;
nodes = (
"78 0 LINE",
"318 1133 LINE",
"362 1340 OFFCURVE",
"486 1447 OFFCURVE",
"682 1447 CURVE",
"1061 1447 LINE",
"521 894 LINE",
"551 863 LINE",
"580 869 OFFCURVE",
"620 872 OFFCURVE",
"649 872 CURVE SMOOTH",
"819 872 OFFCURVE",
"949 762 OFFCURVE",
"949 561 CURVE SMOOTH",
"949 254 OFFCURVE",
"740 15 OFFCURVE",
"427 15 CURVE SMOOTH",
"360 15 OFFCURVE",
"293 36 OFFCURVE",
"272 47 CURVE",
"251 17 LINE",
"278 5 OFFCURVE",
"347 -13 OFFCURVE",
"427 -13 CURVE SMOOTH",
"758 -13 OFFCURVE",
"980 232 OFFCURVE",
"980 561 CURVE SMOOTH",
"980 776 OFFCURVE",
"842 900 OFFCURVE",
"649 900 CURVE SMOOTH",
"620 900 OFFCURVE",
"590 897 OFFCURVE",
"559 891 CURVE",
"1100 1445 LINE",
"1106 1475 LINE",
"687 1475 LINE",
"470 1475 OFFCURVE",
"335 1353 OFFCURVE",
"287 1128 CURVE",
"48 0 LINE"
);
}
);
width = 1111;
},
{
layerId = "3FDD6C00-F7FD-4E85-84B0-0136AF7D7529";
paths = (
{
closed = 1;
nodes = (
"381 0 LINE",
"606 1061 LINE",
"621 1129 OFFCURVE",
"654 1175 OFFCURVE",
"724 1175 CURVE",
"959 1175 LINE",
"594 869 LINE",
"731 623 LINE",
"744 631 OFFCURVE",
"781 653 OFFCURVE",
"831 653 CURVE SMOOTH",
"902 653 OFFCURVE",
"937 609 OFFCURVE",
"937 533 CURVE SMOOTH",
"937 406 OFFCURVE",
"862 287 OFFCURVE",
"742 287 CURVE SMOOTH",
"655 287 OFFCURVE",
"561 310 OFFCURVE",
"539 321 CURVE",
"474 17 LINE",
"501 5 OFFCURVE",
"613 -13 OFFCURVE",
"713 -13 CURVE SMOOTH",
"1110 -13 OFFCURVE",
"1344 187 OFFCURVE",
"1344 575 CURVE SMOOTH",
"1344 816 OFFCURVE",
"1213 891 OFFCURVE",
"1090 891 CURVE SMOOTH",
"1070 891 OFFCURVE",
"1040 889 OFFCURVE",
"1020 885 CURVE",
"1372 1157 LINE",
"1439 1475 LINE",
"735 1475 LINE",
"493 1475 OFFCURVE",
"267 1365 OFFCURVE",
"210 1097 CURVE",
"-23 0 LINE"
);
}
);
width = 1420;
}
);
leftKerningGroup = H;
leftMetricsKey = H;
rightKerningGroup = S;
rightMetricsKey = S;
unicode = 1E9E;
},
{
glyphname = Schwa;
lastChange = "2020-05-20 16:30:11 +0000";
layers = (
{
anchors = (
{
name = bottom;
position = "{577, 0}";
},
{
name = top;
position = "{577, 1475}";
}
);
layerId = "A1A0948C-E637-4A65-8CCC-05505AD98C44";
paths = (
{
closed = 1;
nodes = (
"918 -11 OFFCURVE",
"1053 368 OFFCURVE",
"1053 739 CURVE SMOOTH",
"1053 1161 OFFCURVE",
"907 1484 OFFCURVE",
"577 1484 CURVE SMOOTH",
"258 1484 OFFCURVE",
"125 1169 OFFCURVE",
"125 1021 CURVE",
"156 1021 LINE",
"156 1145 OFFCURVE",
"270 1456 OFFCURVE",
"577 1456 CURVE SMOOTH",
"888 1456 OFFCURVE",
"1020 1134 OFFCURVE",
"1020 739 CURVE SMOOTH",
"1020 394 OFFCURVE",
"904 17 OFFCURVE",
"575 17 CURVE SMOOTH",
"271 17 OFFCURVE",
"152 369 OFFCURVE",
"152 661 CURVE SMOOTH",
"152 669 OFFCURVE",
"152 686 OFFCURVE",
"152 697 CURVE",
"140 690 LINE",
"1027 690 LINE",
"1027 718 LINE",
"120 718 LINE",
"120 706 OFFCURVE",
"120 687 OFFCURVE",
"120 675 CURVE SMOOTH",
"120 339 OFFCURVE",
"251 -11 OFFCURVE",
"575 -11 CURVE SMOOTH"
);
}
);
width = 1173;
},
{
anchors = (
{
name = bottom;
position = "{684, 0}";
},
{
name = top;
position = "{684, 1475}";
}
);
layerId = "584F9D0D-8480-40C6-ABEA-8DD6EE64252D";
paths = (
{
closed = 1;
nodes = (
"1018 -11 OFFCURVE",
"1307 208 OFFCURVE",
"1307 739 CURVE SMOOTH",
"1307 1311 OFFCURVE",
"1007 1484 OFFCURVE",
"687 1484 CURVE SMOOTH",
"358 1484 OFFCURVE",
"95 1299 OFFCURVE",
"85 1001 CURVE",
"472 1001 LINE",
"482 1115 OFFCURVE",
"566 1192 OFFCURVE",
"687 1192 CURVE SMOOTH",
"800 1192 OFFCURVE",
"901 1124 OFFCURVE",
"901 739 CURVE SMOOTH",
"901 381 OFFCURVE",
"806 280 OFFCURVE",
"675 280 CURVE SMOOTH",
"557 280 OFFCURVE",
"468 359 OFFCURVE",
"468 641 CURVE SMOOTH",
"468 649 OFFCURVE",
"468 666 OFFCURVE",
"468 677 CURVE",
"456 589 LINE",
"908 589 LINE",
"908 868 LINE",
"73 868 LINE",
"71 856 OFFCURVE",
"70 815 OFFCURVE",
"70 735 CURVE SMOOTH",
"70 189 OFFCURVE",
"332 -11 OFFCURVE",
"675 -11 CURVE SMOOTH"
);
}
);
width = 1377;
},
{
anchors = (
{
name = bottom;
position = "{474, 0}";
},
{
name = top;
position = "{778, 1475}";
}
);
layerId = "2503C51C-5A6C-4B2C-A968-78FEA18C2585";
paths = (
{
closed = 1;
nodes = (
"887 -11 OFFCURVE",
"1123 512 OFFCURVE",
"1123 1009 CURVE SMOOTH",
"1123 1287 OFFCURVE",
"1029 1484 OFFCURVE",
"775 1484 CURVE SMOOTH",
"456 1484 OFFCURVE",
"254 1189 OFFCURVE",
"230 1021 CURVE",
"261 1021 LINE",
"280 1165 OFFCURVE",
"468 1456 OFFCURVE",
"775 1456 CURVE SMOOTH",
"1009 1456 OFFCURVE",
"1090 1268 OFFCURVE",
"1090 1011 CURVE SMOOTH",
"1090 528 OFFCURVE",
"867 17 OFFCURVE",
"467 17 CURVE SMOOTH",
"233 17 OFFCURVE",
"165 231 OFFCURVE",
"165 458 CURVE SMOOTH",
"165 524 OFFCURVE",
"174 640 OFFCURVE",
"189 697 CURVE",
"175 690 LINE",
"1062 690 LINE",
"1068 718 LINE",
"161 718 LINE",
"142 623 OFFCURVE",
"134 565 OFFCURVE",
"134 456 CURVE SMOOTH",
"134 206 OFFCURVE",
"215 -11 OFFCURVE",
"467 -11 CURVE SMOOTH"
);
}
);
width = 1179;
},
{
anchors = (
{
name = bottom;
position = "{562, 0}";
},
{
name = top;
position = "{876, 1475}";
}
);
layerId = "3FDD6C00-F7FD-4E85-84B0-0136AF7D7529";
paths = (
{
closed = 1;
nodes = (
"1079 -11 OFFCURVE",
"1374 454 OFFCURVE",
"1374 978 CURVE SMOOTH",
"1374 1361 OFFCURVE",
"1139 1484 OFFCURVE",
"869 1484 CURVE SMOOTH",
"540 1484 OFFCURVE",
"256 1299 OFFCURVE",
"182 1001 CURVE",
"569 1001 LINE",
"603 1115 OFFCURVE",
"704 1192 OFFCURVE",
"825 1192 CURVE SMOOTH",
"907 1192 OFFCURVE",
"975 1156 OFFCURVE",
"975 989 CURVE SMOOTH",
"975 718 OFFCURVE",
"859 280 OFFCURVE",
"619 280 CURVE SMOOTH",
"530 280 OFFCURVE",
"467 325 OFFCURVE",
"467 467 CURVE SMOOTH",
"467 541 OFFCURVE",
"475 587 OFFCURVE",
"496 677 CURVE",
"466 589 LINE",
"918 589 LINE",
"977 868 LINE",
"142 868 LINE",
"113 799 OFFCURVE",
"88 590 OFFCURVE",
"88 499 CURVE SMOOTH",
"88 130 OFFCURVE",
"289 -11 OFFCURVE",
"577 -11 CURVE SMOOTH"
);
}
);
width = 1375;
}
);
leftKerningGroup = O;
leftMetricsKey = O;
rightKerningGroup = O;
rightMetricsKey = O;
unicode = 018F;
},
{
glyphname = T;
lastChange = "2020-05-25 16:02:50 +0000";
layers = (
{
anchors = (
{
name = bottom;
position = "{528, 0}";
},
{
name = center;
position = "{526, 738}";
},
{
name = top;
position = "{526, 1475}";
}
);
layerId = "A1A0948C-E637-4A65-8CCC-05505AD98C44";
paths = (
{
closed = 1;
nodes = (
"953 1475 LINE",
"100 1475 LINE",
"100 1447 LINE",
"525 1447 LINE",
"511 1461 LINE",
"511 0 LINE",
"542 0 LINE",
"542 1461 LINE",
"528 1447 LINE",
"953 1447 LINE"
);
}
);
width = 1053;
},
{
anchors = (
{
name = bottom;
position = "{598, 0}";
},
{
name = center;
position = "{598, 738}";
},
{
name = top;
position = "{598, 1475}";
}
);
layerId = "584F9D0D-8480-40C6-ABEA-8DD6EE64252D";
paths = (
{
closed = 1;
nodes = (
"1144 1475 LINE",
"50 1475 LINE",
"50 1175 LINE",
"577 1175 LINE",
"395 1357 LINE",
"395 0 LINE",
"798 0 LINE",
"798 1357 LINE",
"616 1175 LINE",
"1144 1175 LINE"
);
}
);
width = 1194;
},
{
anchors = (
{
name = bottom;
position = "{490, 0}";
},
{
name = center;
position = "{637, 738}";
},
{
name = top;
position = "{794, 1475}";
}
);
layerId = "3FDD6C00-F7FD-4E85-84B0-0136AF7D7529";
paths = (
{
closed = 1;
nodes = (
"1345 1475 LINE",
"251 1475 LINE",
"187 1175 LINE",
"714 1175 LINE",
"570 1353 LINE",
"282 0 LINE",
"685 0 LINE",
"973 1353 LINE",
"753 1175 LINE",
"1281 1175 LINE"
);
}
);
width = 1194;
},
{
anchors = (
{
name = bottom;
position = "{415, 0}";
},
{
name = center;
position = "{571, 738}";
},
{
name = top;
position = "{728, 1475}";
}
);
layerId = "2503C51C-5A6C-4B2C-A968-78FEA18C2585";
paths = (
{
closed = 1;
nodes = (
"1156 1475 LINE",
"301 1475 LINE",
"296 1447 LINE",
"721 1447 LINE",
"710 1461 LINE",
"400 0 LINE",
"432 0 LINE",
"741 1461 LINE",
"724 1447 LINE",
"1149 1447 LINE"
);
}
);
width = 1055;
}
);
leftKerningGroup = T;
leftMetricsKey = V;
note = T;
rightKerningGroup = T;
rightMetricsKey = V;
unicode = 0054;
},
{
glyphname = U;
lastChange = "2020-05-24 20:55:14 +0000";
layers = (
{
anchors = (
{
name = bottom;
position = "{620, -17}";
},
{
name = ogonek;
position = "{758, 4}";
},
{
name = top;
position = "{619, 1475}";
},
{
name = topright;
position = "{1070, 1475}";
}
);
layerId = "A1A0948C-E637-4A65-8CCC-05505AD98C44";
paths = (
{
closed = 1;
nodes = (
"1080 1475 LINE",
"1050 1475 LINE",
"1050 566 LINE SMOOTH",
"1050 182 OFFCURVE",
"891 11 OFFCURVE",
"620 11 CURVE SMOOTH",
"349 11 OFFCURVE",
"190 182 OFFCURVE",
"190 566 CURVE SMOOTH",
"190 631 OFFCURVE",
"190 707 OFFCURVE",
"190 794 CURVE SMOOTH",
"190 1475 LINE",
"160 1475 LINE",
"160 781 LINE SMOOTH",
"160 695 OFFCURVE",
"160 620 OFFCURVE",
"160 555 CURVE SMOOTH",
"160 162 OFFCURVE",
"328 -17 OFFCURVE",
"620 -17 CURVE SMOOTH",
"912 -17 OFFCURVE",
"1080 162 OFFCURVE",
"1080 555 CURVE SMOOTH"
);
}
);
width = 1240;
},
{
anchors = (
{
name = bottom;
position = "{673, -26}";
},
{
name = ogonek;
position = "{840, 29}";
},
{
name = top;
position = "{674, 1475}";
},
{
name = topright;
position = "{1091, 1475}";
}
);
layerId = "584F9D0D-8480-40C6-ABEA-8DD6EE64252D";
paths = (
{
closed = 1;
nodes = (
"1258 1475 LINE",
"854 1475 LINE",
"854 515 LINE SMOOTH",
"854 366 OFFCURVE",
"809 285 OFFCURVE",
"673 285 CURVE SMOOTH",
"537 285 OFFCURVE",
"494 366 OFFCURVE",
"494 515 CURVE SMOOTH",
"494 544 OFFCURVE",
"494 577 OFFCURVE",
"494 615 CURVE SMOOTH",
"494 1475 LINE",
"90 1475 LINE",
"90 678 LINE SMOOTH",
"90 623 OFFCURVE",
"90 572 OFFCURVE",
"90 525 CURVE SMOOTH",
"90 158 OFFCURVE",
"313 -26 OFFCURVE",
"673 -26 CURVE SMOOTH",
"1033 -26 OFFCURVE",
"1258 158 OFFCURVE",
"1258 525 CURVE SMOOTH"
);
}
);
width = 1348;
},
{
anchors = (
{
name = bottom;
position = "{592, -26}";
},
{
name = ogonek;
position = "{741, 29}";
},
{
name = top;
position = "{889, 1475}";
},
{
name = topright;
position = "{1319, 1475}";
}
);
layerId = "3FDD6C00-F7FD-4E85-84B0-0136AF7D7529";
paths = (
{
closed = 1;
nodes = (
"1463 1475 LINE",
"1059 1475 LINE",
"855 515 LINE SMOOTH",
"823 366 OFFCURVE",
"761 285 OFFCURVE",
"625 285 CURVE SMOOTH",
"523 285 OFFCURVE",
"483 331 OFFCURVE",
"483 417 CURVE SMOOTH",
"483 472 OFFCURVE",
"491 516 OFFCURVE",
"513 617 CURVE SMOOTH",
"699 1475 LINE",
"295 1475 LINE",
"122 680 LINE SMOOTH",
"92 541 OFFCURVE",
"77 467 OFFCURVE",
"77 381 CURVE SMOOTH",
"77 113 OFFCURVE",
"263 -26 OFFCURVE",
"592 -26 CURVE SMOOTH",
"932 -26 OFFCURVE",
"1183 158 OFFCURVE",
"1261 525 CURVE SMOOTH"
);
}
);
width = 1352;
},
{
anchors = (
{
name = bottom;
position = "{513, -17}";
},
{
name = ogonek;
position = "{651, 4}";
},
{
name = top;
position = "{831, 1475}";
},
{
name = topright;
position = "{1269, 1475}";
}
);
layerId = "2503C51C-5A6C-4B2C-A968-78FEA18C2585";
paths = (
{
closed = 1;
nodes = (
"1282 1475 LINE",
"1252 1475 LINE",
"1059 566 LINE SMOOTH",
"977 182 OFFCURVE",
"783 11 OFFCURVE",
"512 11 CURVE SMOOTH",
"296 11 OFFCURVE",
"178 117 OFFCURVE",
"178 354 CURVE SMOOTH",
"178 474 OFFCURVE",
"199 573 OFFCURVE",
"246 794 CURVE SMOOTH",
"392 1475 LINE",
"362 1475 LINE",
"213 781 LINE SMOOTH",
"169 574 OFFCURVE",
"147 464 OFFCURVE",
"147 348 CURVE SMOOTH",
"147 98 OFFCURVE",
"270 -17 OFFCURVE",
"512 -17 CURVE SMOOTH",
"797 -17 OFFCURVE",
"1004 162 OFFCURVE",
"1087 555 CURVE SMOOTH"
);
}
);
width = 1242;
}
);
leftKerningGroup = U;
leftMetricsKey = H;
note = U;
rightKerningGroup = U;
rightMetricsKey = H;
unicode = 0055;
},
{
glyphname = V;
lastChange = "2020-05-25 15:39:12 +0000";
layers = (
{
anchors = (
{
name = bottom;
position = "{551, 0}";
},
{
name = top;
position = "{551, 1475}";
}
);
layerId = "A1A0948C-E637-4A65-8CCC-05505AD98C44";
paths = (
{
closed = 1;
nodes = (
"572 -13 LINE",
"1004 1475 LINE",
"972 1475 LINE",
"550 15 LINE",
"559 15 LINE",
"132 1475 LINE",
"100 1475 LINE",
"538 -13 LINE"
);
}
);
width = 1104;
},
{
anchors = (
{
name = bottom;
position = "{696, 0}";
},
{
name = top;
position = "{696, 1475}";
}
);
layerId = "584F9D0D-8480-40C6-ABEA-8DD6EE64252D";
paths = (
{
closed = 1;
nodes = (
"998 0 LINE",
"1336 1475 LINE",
"889 1475 LINE",
"686 231 LINE",
"701 231 LINE",
"497 1475 LINE",
"50 1475 LINE",
"390 0 LINE"
);
}
);
width = 1386;
},
{
anchors = (
{
name = bottom;
position = "{569, 0}";
},
{
name = top;
position = "{883, 1475}";
}
);
layerId = "3FDD6C00-F7FD-4E85-84B0-0136AF7D7529";
paths = (
{
closed = 1;
nodes = (
"885 0 LINE",
"1537 1475 LINE",
"1080 1475 LINE",
"622 231 LINE",
"637 231 LINE",
"688 1475 LINE",
"251 1475 LINE",
"277 0 LINE"
);
}
);
width = 1386;
},
{
anchors = (
{
name = bottom;
position = "{443, 0}";
},
{
name = top;
position = "{757, 1475}";
}
);
layerId = "2503C51C-5A6C-4B2C-A968-78FEA18C2585";
paths = (
{
closed = 1;
nodes = (
"457 -13 LINE",
"1205 1475 LINE",
"1171 1475 LINE",
"440 12 LINE",
"449 12 LINE",
"333 1475 LINE",
"301 1475 LINE",
"423 -13 LINE"
);
}
);
width = 1104;
}
);
leftKerningGroup = V;
leftMetricsKey = A;
note = V;
rightKerningGroup = V;
rightMetricsKey = A;
unicode = 0056;
},
{
glyphname = W;
lastChange = "2020-05-24 23:58:34 +0000";
layers = (
{
anchors = (
{
name = bottom;
position = "{783, 0}";
},
{
name = top;
position = "{785, 1475}";
}
);
layerId = "A1A0948C-E637-4A65-8CCC-05505AD98C44";
paths = (
{
closed = 1;
nodes = (
"425 0 LINE",
"783 1434 LINE",
"775 1434 LINE",
"1132 0 LINE",
"1167 0 LINE",
"1459 1475 LINE",
"1426 1475 LINE",
"1146 31 LINE",
"1153 31 LINE",
"796 1475 LINE",
"762 1475 LINE",
"404 31 LINE",
"412 31 LINE",
"133 1475 LINE",
"100 1475 LINE",
"391 0 LINE"
);
}
);
width = 1559;
},
{
anchors = (
{
name = bottom;
position = "{1002, 0}";
},
{
name = top;
position = "{1002, 1475}";
}
);
layerId = "584F9D0D-8480-40C6-ABEA-8DD6EE64252D";
paths = (
{
closed = 1;
nodes = (
"872 0 LINE",
"1020 1213 LINE",
"980 1213 LINE",
"1127 0 LINE",
"1744 0 LINE",
"1938 1475 LINE",
"1523 1475 LINE",
"1405 63 LINE",
"1462 66 LINE",
"1246 1475 LINE",
"753 1475 LINE",
"536 66 LINE",
"593 63 LINE",
"475 1475 LINE",
"60 1475 LINE",
"254 0 LINE"
);
}
);
width = 1998;
},
{
anchors = (
{
name = bottom;
position = "{891, 0}";
},
{
name = top;
position = "{1205, 1475}";
}
);
layerId = "3FDD6C00-F7FD-4E85-84B0-0136AF7D7529";
paths = (
{
closed = 1;
nodes = (
"759 0 LINE",
"1165 1213 LINE",
"1125 1213 LINE",
"1014 0 LINE",
"1631 0 LINE",
"2139 1475 LINE",
"1724 1475 LINE",
"1306 63 LINE",
"1354 66 LINE",
"1438 1475 LINE",
"945 1475 LINE",
"428 66 LINE",
"494 63 LINE",
"676 1475 LINE",
"261 1475 LINE",
"141 0 LINE"
);
}
);
width = 1998;
},
{
anchors = (
{
name = bottom;
position = "{661, 0}";
},
{
name = top;
position = "{975, 1475}";
}
);
layerId = "2503C51C-5A6C-4B2C-A968-78FEA18C2585";
paths = (
{
closed = 1;
nodes = (
"312 0 LINE",
"978 1434 LINE",
"968 1434 LINE",
"1017 0 LINE",
"1054 0 LINE",
"1660 1475 LINE",
"1626 1475 LINE",
"1037 31 LINE",
"1045 31 LINE",
"997 1475 LINE",
"961 1475 LINE",
"296 31 LINE",
"306 31 LINE",
"334 1475 LINE",
"301 1475 LINE",
"278 0 LINE"
);
}
);
width = 1559;
},
{
anchors = (
{
name = bottom;
position = "{861, 0}";
},
{
name = top;
position = "{862, 1475}";
}
);
associatedMasterId = "A1A0948C-E637-4A65-8CCC-05505AD98C44";
layerId = "81A38537-478C-4AB5-8A06-B03E6807589D";
name = "Regular{0,400}";
paths = (
{
closed = 1;
nodes = (
"581 0 LINE",
"868 1341 LINE",
"848 1341 LINE",
"1134 0 LINE",
"1417 0 LINE",
"1635 1475 LINE",
"1458 1475 LINE",
"1267 43 LINE",
"1292 44 LINE",
"981 1475 LINE",
"735 1475 LINE",
"422 43 LINE",
"458 43 LINE",
"257 1475 LINE",
"81 1475 LINE",
"308 0 LINE"
);
}
);
width = 1716;
},
{
anchors = (
{
name = bottom;
position = "{746, 0}";
},
{
name = top;
position = "{1060, 1475}";
}
);
associatedMasterId = "2503C51C-5A6C-4B2C-A968-78FEA18C2585";
layerId = "FC7673FD-390B-479C-89F9-726E9C896683";
name = "Italic{1,400}";
paths = (
{
closed = 1;
nodes = (
"468 0 LINE",
"1040 1341 LINE",
"1020 1341 LINE",
"1021 0 LINE",
"1304 0 LINE",
"1836 1475 LINE",
"1659 1475 LINE",
"1163 43 LINE",
"1184 44 LINE",
"1177 1475 LINE",
"931 1475 LINE",
"313 43 LINE",
"354 43 LINE",
"458 1475 LINE",
"282 1475 LINE",
"195 0 LINE"
);
}
);
width = 1715;
}
);
leftKerningGroup = V;
note = W;
rightKerningGroup = V;
unicode = 0057;
},
{
glyphname = X;
lastChange = "2020-05-24 20:51:27 +0000";
layers = (
{
anchors = (
{
name = bottom;
position = "{556, 0}";
},
{
name = top;
position = "{556, 1475}";
}
);
layerId = "A1A0948C-E637-4A65-8CCC-05505AD98C44";
paths = (
{
closed = 1;
nodes = (
"100 0 LINE",
"134 0 LINE",
"561 717 LINE",
"548 717 LINE",
"975 0 LINE",
"1009 0 LINE",
"567 743 LINE",
"567 717 LINE",
"994 1475 LINE",
"960 1475 LINE",
"548 743 LINE",
"561 743 LINE",
"146 1475 LINE",
"112 1475 LINE",
"542 717 LINE",
"542 743 LINE"
);
}
);
width = 1109;
},
{
anchors = (
{
name = bottom;
position = "{718, 0}";
},
{
name = top;
position = "{718, 1475}";
}
);
layerId = "584F9D0D-8480-40C6-ABEA-8DD6EE64252D";
paths = (
{
closed = 1;
nodes = (
"46 0 LINE",
"499 0 LINE",
"788 625 LINE",
"648 625 LINE",
"937 0 LINE",
"1391 0 LINE",
"896 892 LINE",
"899 566 LINE",
"1377 1475 LINE",
"923 1475 LINE",
"655 833 LINE",
"782 833 LINE",
"511 1475 LINE",
"58 1475 LINE",
"540 566 LINE",
"544 892 LINE"
);
}
);
width = 1438;
},
{
anchors = (
{
name = bottom;
position = "{605, 0}";
},
{
name = top;
position = "{919, 1475}";
}
);
layerId = "3FDD6C00-F7FD-4E85-84B0-0136AF7D7529";
paths = (
{
closed = 1;
nodes = (
"-59 0 LINE",
"402 0 LINE",
"839 625 LINE",
"677 625 LINE",
"824 0 LINE",
"1271 0 LINE",
"971 892 LINE",
"918 566 LINE",
"1579 1475 LINE",
"1118 1475 LINE",
"697 833 LINE",
"845 833 LINE",
"722 1475 LINE",
"275 1475 LINE",
"559 566 LINE",
"618 892 LINE"
);
}
);
width = 1438;
},
{
anchors = (
{
name = bottom;
position = "{439, 0}";
},
{
name = top;
position = "{753, 1475}";
}
);
layerId = "2503C51C-5A6C-4B2C-A968-78FEA18C2585";
paths = (
{
closed = 1;
nodes = (
"-4 0 LINE",
"37 0 LINE",
"604 717 LINE",
"589 717 LINE",
"857 0 LINE",
"887 0 LINE",
"612 743 LINE",
"609 717 LINE",
"1189 1475 LINE",
"1151 1475 LINE",
"593 743 LINE",
"609 743 LINE",
"357 1475 LINE",
"323 1475 LINE",
"586 717 LINE",
"589 745 LINE"
);
}
);
width = 1109;
}
);
leftKerningGroup = X;
note = X;
rightKerningGroup = X;
unicode = 0058;
},
{
glyphname = Y;
lastChange = "2020-05-25 16:04:08 +0000";
layers = (
{
anchors = (
{
name = bottom;
position = "{501, 0}";
},
{
name = top;
position = "{501, 1475}";
},
{
name = topleft;
position = "{55, 1475}";
}
);
layerId = "A1A0948C-E637-4A65-8CCC-05505AD98C44";
paths = (
{
closed = 1;
nodes = (
"870 1475 LINE",
"495 544 LINE",
"508 544 LINE",
"133 1475 LINE",
"100 1475 LINE",
"486 517 LINE",
"486 0 LINE",
"517 0 LINE",
"517 517 LINE",
"903 1475 LINE"
);
}
);
width = 1003;
},
{
anchors = (
{
name = bottom;
position = "{709, 0}";
},
{
name = top;
position = "{709, 1475}";
},
{
name = topleft;
position = "{46, 1475}";
}
);
layerId = "584F9D0D-8480-40C6-ABEA-8DD6EE64252D";
paths = (
{
closed = 1;
nodes = (
"937 1475 LINE",
"648 692 LINE",
"766 692 LINE",
"477 1475 LINE",
"50 1475 LINE",
"505 505 LINE",
"505 0 LINE",
"907 0 LINE",
"907 505 LINE",
"1365 1475 LINE"
);
}
);
width = 1415;
},
{
anchors = (
{
name = bottom;
position = "{609, 0}";
},
{
name = top;
position = "{923, 1475}";
},
{
name = topleft;
position = "{250, 1475}";
}
);
layerId = "3FDD6C00-F7FD-4E85-84B0-0136AF7D7529";
paths = (
{
closed = 1;
nodes = (
"1128 1475 LINE",
"669 692 LINE",
"787 692 LINE",
"668 1475 LINE",
"251 1475 LINE",
"500 505 LINE",
"392 0 LINE",
"794 0 LINE",
"903 505 LINE",
"1566 1475 LINE"
);
}
);
width = 1415;
},
{
anchors = (
{
name = bottom;
position = "{386, 0}";
},
{
name = top;
position = "{700, 1475}";
},
{
name = topleft;
position = "{211, 1475}";
}
);
layerId = "2503C51C-5A6C-4B2C-A968-78FEA18C2585";
paths = (
{
closed = 1;
nodes = (
"1070 1475 LINE",
"497 544 LINE",
"510 544 LINE",
"332 1475 LINE",
"301 1475 LINE",
"483 517 LINE",
"373 0 LINE",
"404 0 LINE",
"514 517 LINE",
"1104 1475 LINE"
);
}
);
width = 1003;
}
);
leftKerningGroup = Y;
leftMetricsKey = V;
note = Y;
rightKerningGroup = Y;
rightMetricsKey = V;
unicode = 0059;
},
{
glyphname = Z;
lastChange = "2020-05-25 15:51:31 +0000";
layers = (
{
anchors = (
{
name = bottom;
position = "{516, 11}";
},
{
name = center;
position = "{516, 738}";
},
{
name = top;
position = "{516, 1475}";
}
);
layerId = "A1A0948C-E637-4A65-8CCC-05505AD98C44";
paths = (
{
closed = 1;
nodes = (
"157 31 LINE",
"917 1449 LINE",
"917 1475 LINE",
"166 1475 LINE",
"166 1447 LINE",
"884 1447 LINE",
"883 1448 LINE",
"120 28 LINE",
"120 0 LINE",
"907 0 LINE",
"907 28 LINE",
"157 28 LINE"
);
}
);
width = 1037;
},
{
anchors = (
{
name = bottom;
position = "{613, 0}";
},
{
name = center;
position = "{613, 738}";
},
{
name = top;
position = "{613, 1475}";
}
);
layerId = "584F9D0D-8480-40C6-ABEA-8DD6EE64252D";
paths = (
{
closed = 1;
nodes = (
"528 303 LINE",
"1135 1221 LINE",
"1135 1475 LINE",
"122 1475 LINE",
"122 1175 LINE",
"688 1175 LINE",
"686 1177 LINE",
"77 257 LINE",
"77 0 LINE",
"1126 0 LINE",
"1126 301 LINE",
"528 301 LINE"
);
}
);
width = 1212;
},
{
anchors = (
{
name = bottom;
position = "{505, 0}";
},
{
name = center;
position = "{662, 738}";
},
{
name = top;
position = "{819, 1475}";
}
);
layerId = "3FDD6C00-F7FD-4E85-84B0-0136AF7D7529";
paths = (
{
closed = 1;
nodes = (
"490 303 LINE",
"1282 1221 LINE",
"1336 1475 LINE",
"323 1475 LINE",
"259 1175 LINE",
"815 1175 LINE",
"813 1177 LINE",
"19 257 LINE",
"-36 0 LINE",
"1013 0 LINE",
"1077 301 LINE",
"489 301 LINE"
);
}
);
width = 1212;
},
{
anchors = (
{
name = bottom;
position = "{417, 0}";
},
{
name = center;
position = "{574, 738}";
},
{
name = top;
position = "{731, 1475}";
}
);
layerId = "2503C51C-5A6C-4B2C-A968-78FEA18C2585";
paths = (
{
closed = 1;
nodes = (
"50 27 LINE",
"1112 1449 LINE",
"1118 1475 LINE",
"367 1475 LINE",
"361 1447 LINE",
"1079 1447 LINE",
"1076 1448 LINE",
"13 28 LINE",
"7 0 LINE",
"794 0 LINE",
"800 28 LINE",
"50 28 LINE"
);
}
);
width = 1037;
}
);
leftKerningGroup = H;
note = Z;
rightKerningGroup = H;
unicode = 005A;
},
{
glyphname = a;
lastChange = "2020-05-25 15:28:10 +0000";
layers = (
{
anchors = (
{
name = bottom;
position = "{582, 0}";
},
{
name = ogonek;
position = "{1011, 0}";
},
{
name = top;
position = "{607, 1075}";
}
);
layerId = "A1A0948C-E637-4A65-8CCC-05505AD98C44";
paths = (
{
closed = 1;
nodes = (
"1035 7 OFFCURVE",
"1024 28 OFFCURVE",
"1016 63 CURVE SMOOTH",
"1009 89 OFFCURVE",
"1004 123 OFFCURVE",
"1004 164 CURVE SMOOTH",
"1004 681 LINE",
"1004 710 OFFCURVE",
"1004 738 OFFCURVE",
"1004 763 CURVE SMOOTH",
"1004 958 OFFCURVE",
"846 1075 OFFCURVE",
"607 1075 CURVE SMOOTH",
"338 1075 OFFCURVE",
"162 939 OFFCURVE",
"162 721 CURVE",
"193 721 LINE",
"193 921 OFFCURVE",
"355 1047 OFFCURVE",
"607 1047 CURVE SMOOTH",
"850 1047 OFFCURVE",
"973 929 OFFCURVE",
"973 763 CURVE SMOOTH",
"973 738 OFFCURVE",
"973 712 OFFCURVE",
"973 684 CURVE",
"973 162 LINE SMOOTH",
"973 121 OFFCURVE",
"979 83 OFFCURVE",
"987 55 CURVE SMOOTH",
"996 24 OFFCURVE",
"1005 4 OFFCURVE",
"1010 0 CURVE",
"1041 0 LINE"
);
},
{
closed = 1;
nodes = (
"792 -17 OFFCURVE",
"1002 128 OFFCURVE",
"1002 332 CURVE",
"973 348 LINE",
"973 149 OFFCURVE",
"781 11 OFFCURVE",
"546 11 CURVE SMOOTH",
"307 11 OFFCURVE",
"169 113 OFFCURVE",
"169 288 CURVE SMOOTH",
"169 467 OFFCURVE",
"301 543 OFFCURVE",
"569 568 CURVE SMOOTH",
"812 591 OFFCURVE",
"1002 625 OFFCURVE",
"1003 709 CURVE",
"973 726 LINE",
"973 653 OFFCURVE",
"846 625 OFFCURVE",
"557 597 CURVE SMOOTH",
"275 570 OFFCURVE",
"138 481 OFFCURVE",
"138 290 CURVE SMOOTH",
"138 89 OFFCURVE",
"290 -17 OFFCURVE",
"543 -17 CURVE SMOOTH"
);
}
);
width = 1226;
},
{
anchors = (
{
name = bottom;
position = "{611, -23}";
},
{
name = ogonek;
position = "{1138, 0}";
},
{
name = top;
position = "{650, 1084}";
}
);
layerId = "584F9D0D-8480-40C6-ABEA-8DD6EE64252D";
paths = (
{
closed = 1;
nodes = (
"1251 13 OFFCURVE",
"1232 50 OFFCURVE",
"1217 100 CURVE SMOOTH",
"1204 146 OFFCURVE",
"1194 202 OFFCURVE",
"1194 261 CURVE SMOOTH",
"1194 590 LINE SMOOTH",
"1194 620 OFFCURVE",
"1194 648 OFFCURVE",
"1194 674 CURVE SMOOTH",
"1194 956 OFFCURVE",
"943 1084 OFFCURVE",
"650 1084 CURVE SMOOTH",
"340 1084 OFFCURVE",
"82 943 OFFCURVE",
"82 675 CURVE",
"479 675 LINE",
"479 749 OFFCURVE",
"540 790 OFFCURVE",
"647 790 CURVE SMOOTH",
"746 790 OFFCURVE",
"790 749 OFFCURVE",
"790 700 CURVE SMOOTH",
"790 695 OFFCURVE",
"790 689 OFFCURVE",
"790 684 CURVE SMOOTH",
"790 249 LINE SMOOTH",
"790 210 OFFCURVE",
"812 131 OFFCURVE",
"827 88 CURVE SMOOTH",
"842 47 OFFCURVE",
"860 12 OFFCURVE",
"872 0 CURVE",
"1266 0 LINE"
);
},
{
closed = 1;
nodes = (
"693 -24 OFFCURVE",
"906 83 OFFCURVE",
"906 325 CURVE",
"797 518 LINE",
"797 333 OFFCURVE",
"679 272 OFFCURVE",
"576 272 CURVE SMOOTH",
"504 272 OFFCURVE",
"462 288 OFFCURVE",
"462 333 CURVE SMOOTH",
"462 378 OFFCURVE",
"506 389 OFFCURVE",
"598 400 CURVE SMOOTH",
"755 418 OFFCURVE",
"948 474 OFFCURVE",
"993 565 CURVE",
"790 684 LINE",
"790 647 OFFCURVE",
"731 634 OFFCURVE",
"517 614 CURVE SMOOTH",
"291 593 OFFCURVE",
"58 523 OFFCURVE",
"58 288 CURVE SMOOTH",
"58 88 OFFCURVE",
"228 -24 OFFCURVE",
"456 -24 CURVE SMOOTH"
);
}
);
width = 1314;
},
{
anchors = (
{
name = bottom;
position = "{516, -23}";
},
{
name = ogonek;
position = "{1150, 0}";
},
{
name = top;
position = "{743, 1084}";
}
);
layerId = "3FDD6C00-F7FD-4E85-84B0-0136AF7D7529";
paths = (
{
closed = 1;
nodes = (
"1137 24 OFFCURVE",
"1122 77 OFFCURVE",
"1122 148 CURVE SMOOTH",
"1122 182 OFFCURVE",
"1125 220 OFFCURVE",
"1134 261 CURVE SMOOTH",
"1222 674 LINE SMOOTH",
"1228 704 OFFCURVE",
"1231 732 OFFCURVE",
"1231 758 CURVE SMOOTH",
"1231 980 OFFCURVE",
"1005 1084 OFFCURVE",
"743 1084 CURVE SMOOTH",
"433 1084 OFFCURVE",
"167 943 OFFCURVE",
"110 675 CURVE",
"507 675 LINE",
"523 749 OFFCURVE",
"592 790 OFFCURVE",
"699 790 CURVE SMOOTH",
"787 790 OFFCURVE",
"825 757 OFFCURVE",
"825 716 CURVE SMOOTH",
"825 711 OFFCURVE",
"824 705 OFFCURVE",
"823 700 CURVE SMOOTH",
"735 284 LINE SMOOTH",
"731 266 OFFCURVE",
"724 182 OFFCURVE",
"726 162 CURVE SMOOTH",
"733 96 OFFCURVE",
"743 26 OFFCURVE",
"756 0 CURVE",
"1150 0 LINE"
);
},
{
closed = 1;
nodes = (
"594 -24 OFFCURVE",
"850 103 OFFCURVE",
"902 345 CURVE",
"791 518 LINE",
"752 333 OFFCURVE",
"621 272 OFFCURVE",
"518 272 CURVE SMOOTH",
"453 272 OFFCURVE",
"416 284 OFFCURVE",
"416 324 CURVE SMOOTH",
"416 379 OFFCURVE",
"483 389 OFFCURVE",
"567 400 CURVE SMOOTH",
"716 419 OFFCURVE",
"967 466 OFFCURVE",
"1023 565 CURVE",
"823 700 LINE",
"811 643 OFFCURVE",
"689 628 OFFCURVE",
"501 609 CURVE SMOOTH",
"215 580 OFFCURVE",
"4 504 OFFCURVE",
"4 249 CURVE SMOOTH",
"4 106 OFFCURVE",
"119 -24 OFFCURVE",
"357 -24 CURVE SMOOTH"
);
}
);
width = 1314;
},
{
anchors = (
{
name = bottom;
position = "{511, 0}";
},
{
name = ogonek;
position = "{906, 0}";
},
{
name = top;
position = "{734, 1075}";
}
);
layerId = "2503C51C-5A6C-4B2C-A968-78FEA18C2585";
paths = (
{
closed = 1;
nodes = (
"934 7 OFFCURVE",
"921 36 OFFCURVE",
"921 71 CURVE SMOOTH",
"921 97 OFFCURVE",
"925 123 OFFCURVE",
"934 164 CURVE SMOOTH",
"1044 681 LINE",
"1060 758 OFFCURVE",
"1065 785 OFFCURVE",
"1065 828 CURVE SMOOTH",
"1065 983 OFFCURVE",
"935 1075 OFFCURVE",
"724 1075 CURVE SMOOTH",
"455 1075 OFFCURVE",
"257 939 OFFCURVE",
"211 721 CURVE",
"242 721 LINE",
"284 921 OFFCURVE",
"473 1047 OFFCURVE",
"725 1047 CURVE SMOOTH",
"936 1047 OFFCURVE",
"1034 957 OFFCURVE",
"1034 825 CURVE SMOOTH",
"1034 788 OFFCURVE",
"1028 751 OFFCURVE",
"1014 684 CURVE",
"903 162 LINE SMOOTH",
"894 121 OFFCURVE",
"890 92 OFFCURVE",
"890 63 CURVE SMOOTH",
"890 32 OFFCURVE",
"903 4 OFFCURVE",
"908 0 CURVE",
"939 0 LINE"
);
},
{
closed = 1;
nodes = (
"690 -17 OFFCURVE",
"925 128 OFFCURVE",
"968 332 CURVE",
"944 348 LINE",
"901 149 OFFCURVE",
"679 11 OFFCURVE",
"444 11 CURVE SMOOTH",
"219 11 OFFCURVE",
"124 102 OFFCURVE",
"124 242 CURVE SMOOTH",
"124 481 OFFCURVE",
"323 544 OFFCURVE",
"585 568 CURVE SMOOTH",
"833 591 OFFCURVE",
"1030 625 OFFCURVE",
"1049 709 CURVE",
"1024 731 LINE",
"1008 658 OFFCURVE",
"874 625 OFFCURVE",
"579 597 CURVE SMOOTH",
"307 571 OFFCURVE",
"93 497 OFFCURVE",
"93 242 CURVE SMOOTH",
"93 78 OFFCURVE",
"201 -17 OFFCURVE",
"441 -17 CURVE SMOOTH"
);
}
);
width = 1234;
}
);
leftKerningGroup = o;
leftMetricsKey = o;
note = a;
rightKerningGroup = n;
unicode = 0061;
},
{
glyphname = a.ss01;
lastChange = "2020-05-25 15:30:06 +0000";
layers = (
{
anchors = (
{
name = bottom;
position = "{606, -17}";
},
{
name = ogonek;
position = "{999, 0}";
},
{
name = top;
position = "{602, 1075}";
}
);
layerId = "A1A0948C-E637-4A65-8CCC-05505AD98C44";
paths = (
{
closed = 1;
nodes = (
"842 -17 OFFCURVE",
"1010 166 OFFCURVE",
"1010 383 CURVE",
"981 383 LINE",
"981 186 OFFCURVE",
"825 11 OFFCURVE",
"606 11 CURVE SMOOTH",
"364 11 OFFCURVE",
"169 204 OFFCURVE",
"169 534 CURVE SMOOTH",
"169 862 OFFCURVE",
"364 1047 OFFCURVE",
"606 1047 CURVE SMOOTH",
"825 1047 OFFCURVE",
"981 872 OFFCURVE",
"981 675 CURVE SMOOTH",
"981 672 OFFCURVE",
"981 668 OFFCURVE",
"981 665 CURVE",
"1010 665 LINE",
"1010 668 OFFCURVE",
"1010 672 OFFCURVE",
"1010 675 CURVE SMOOTH",
"1010 892 OFFCURVE",
"842 1075 OFFCURVE",
"606 1075 CURVE SMOOTH",
"346 1075 OFFCURVE",
"138 881 OFFCURVE",
"138 534 CURVE SMOOTH",
"138 177 OFFCURVE",
"347 -17 OFFCURVE",
"606 -17 CURVE SMOOTH"
);
},
{
closed = 1;
nodes = (
"1012 1062 LINE",
"981 1062 LINE",
"981 708 OFFCURVE",
"981 354 OFFCURVE",
"981 0 CURVE",
"1012 0 LINE"
);
}
);
width = 1197;
},
{
anchors = (
{
name = bottom;
position = "{560, -26}";
},
{
name = ogonek;
position = "{1159, 0}";
},
{
name = top;
position = "{576, 1084}";
}
);
layerId = "584F9D0D-8480-40C6-ABEA-8DD6EE64252D";
paths = (
{
closed = 1;
nodes = (
"805 -26 OFFCURVE",
"1026 179 OFFCURVE",
"1026 494 CURVE",
"884 514 LINE",
"884 381 OFFCURVE",
"785 313 OFFCURVE",
"689 313 CURVE SMOOTH",
"588 313 OFFCURVE",
"484 382 OFFCURVE",
"484 539 CURVE SMOOTH",
"484 696 OFFCURVE",
"588 756 OFFCURVE",
"689 756 CURVE SMOOTH",
"783 756 OFFCURVE",
"884 693 OFFCURVE",
"884 560 CURVE SMOOTH",
"884 556 OFFCURVE",
"884 553 OFFCURVE",
"884 549 CURVE",
"1026 557 LINE",
"1026 565 OFFCURVE",
"1026 572 OFFCURVE",
"1026 580 CURVE SMOOTH",
"1026 882 OFFCURVE",
"805 1084 OFFCURVE",
"560 1084 CURVE SMOOTH",
"303 1084 OFFCURVE",
"58 891 OFFCURVE",
"58 539 CURVE SMOOTH",
"58 167 OFFCURVE",
"293 -26 OFFCURVE",
"560 -26 CURVE SMOOTH"
);
},
{
closed = 1;
nodes = (
"1287 1062 LINE",
"884 1062 LINE",
"884 708 OFFCURVE",
"884 354 OFFCURVE",
"884 0 CURVE",
"1287 0 LINE"
);
}
);
width = 1387;
},
{
anchors = (
{
name = bottom;
position = "{460, -26}";
},
{
name = ogonek;
position = "{1027, 0}";
},
{
name = top;
position = "{661, 1084}";
}
);
layerId = "3FDD6C00-F7FD-4E85-84B0-0136AF7D7529";
paths = (
{
closed = 1;
nodes = (
"713 -26 OFFCURVE",
"947 179 OFFCURVE",
"1014 494 CURVE",
"876 514 LINE",
"848 381 OFFCURVE",
"744 313 OFFCURVE",
"638 313 CURVE SMOOTH",
"545 313 OFFCURVE",
"480 378 OFFCURVE",
"480 498 CURVE SMOOTH",
"480 653 OFFCURVE",
"589 756 OFFCURVE",
"723 756 CURVE SMOOTH",
"806 756 OFFCURVE",
"891 707 OFFCURVE",
"891 605 CURVE SMOOTH",
"891 587 OFFCURVE",
"888 568 OFFCURVE",
"883 549 CURVE",
"1027 557 LINE",
"1037 595 OFFCURVE",
"1044 652 OFFCURVE",
"1044 690 CURVE SMOOTH",
"1044 928 OFFCURVE",
"865 1084 OFFCURVE",
"651 1084 CURVE SMOOTH",
"301 1084 OFFCURVE",
"51 795 OFFCURVE",
"51 434 CURVE SMOOTH",
"51 135 OFFCURVE",
"223 -26 OFFCURVE",
"468 -26 CURVE SMOOTH"
);
},
{
closed = 1;
nodes = (
"1395 1062 LINE",
"992 1062 LINE",
"917 708 OFFCURVE",
"842 354 OFFCURVE",
"767 0 CURVE",
"1170 0 LINE"
);
}
);
width = 1392;
},
{
anchors = (
{
name = bottom;
position = "{500, -17}";
},
{
name = ogonek;
position = "{894, 0}";
},
{
name = top;
position = "{717, 1075}";
}
);
layerId = "2503C51C-5A6C-4B2C-A968-78FEA18C2585";
paths = (
{
closed = 1;
nodes = (
"748 -17 OFFCURVE",
"939 166 OFFCURVE",
"985 383 CURVE",
"956 383 LINE",
"914 186 OFFCURVE",
"731 11 OFFCURVE",
"502 11 CURVE SMOOTH",
"284 11 OFFCURVE",
"172 172 OFFCURVE",
"172 427 CURVE SMOOTH",
"172 776 OFFCURVE",
"382 1047 OFFCURVE",
"722 1047 CURVE SMOOTH",
"912 1047 OFFCURVE",
"1026 915 OFFCURVE",
"1026 752 CURVE SMOOTH",
"1026 728 OFFCURVE",
"1021 680 OFFCURVE",
"1016 665 CURVE",
"1045 665 LINE",
"1049 678 OFFCURVE",
"1056 729 OFFCURVE",
"1056 758 CURVE SMOOTH",
"1056 936 OFFCURVE",
"926 1075 OFFCURVE",
"721 1075 CURVE SMOOTH",
"363 1075 OFFCURVE",
"141 794 OFFCURVE",
"141 422 CURVE SMOOTH",
"141 145 OFFCURVE",
"268 -17 OFFCURVE",
"502 -17 CURVE SMOOTH"
);
},
{
closed = 1;
nodes = (
"1131 1062 LINE",
"1100 1062 LINE",
"1025 708 OFFCURVE",
"950 354 OFFCURVE",
"875 0 CURVE",
"906 0 LINE"
);
}
);
width = 1217;
}
);
leftKerningGroup = o;
leftMetricsKey = o;
rightKerningGroup = n;
rightMetricsKey = u;
},
{
glyphname = ae;
lastChange = "2020-05-25 15:30:06 +0000";
layers = (
{
anchors = (
{
name = bottom;
position = "{1060, 0}";
},
{
name = top;
position = "{1060, 1062}";
}
);
components = (
{
name = e;
transform = "{1, 0, 0, 1, 884, 0}";
}
);
layerId = "A1A0948C-E637-4A65-8CCC-05505AD98C44";
paths = (
{
closed = 1;
nodes = (
"1045 526 LINE",
"1045 555 OFFCURVE",
"1045 738 OFFCURVE",
"1045 763 CURVE SMOOTH",
"1045 965 OFFCURVE",
"866 1075 OFFCURVE",
"627 1075 CURVE SMOOTH",
"358 1075 OFFCURVE",
"162 942 OFFCURVE",
"162 721 CURVE",
"195 721 LINE",
"195 921 OFFCURVE",
"377 1047 OFFCURVE",
"627 1047 CURVE SMOOTH",
"870 1047 OFFCURVE",
"1013 929 OFFCURVE",
"1013 763 CURVE SMOOTH",
"1013 738 OFFCURVE",
"1013 570 OFFCURVE",
"1013 542 CURVE"
);
},
{
closed = 1;
nodes = (
"830 -16 OFFCURVE",
"1045 110 OFFCURVE",
"1045 526 CURVE",
"1013 542 LINE",
"1013 114 OFFCURVE",
"808 12 OFFCURVE",
"566 12 CURVE SMOOTH",
"334 12 OFFCURVE",
"171 83 OFFCURVE",
"171 278 CURVE SMOOTH",
"171 477 OFFCURVE",
"320 554 OFFCURVE",
"589 569 CURVE SMOOTH",
"832 583 OFFCURVE",
"1044 625 OFFCURVE",
"1044 709 CURVE",
"1013 726 LINE",
"1013 653 OFFCURVE",
"866 615 OFFCURVE",
"577 597 CURVE SMOOTH",
"294 579 OFFCURVE",
"138 491 OFFCURVE",
"138 280 CURVE SMOOTH",
"138 59 OFFCURVE",
"317 -16 OFFCURVE",
"563 -16 CURVE SMOOTH"
);
}
);
width = 2144;
},
{
anchors = (
{
name = bottom;
position = "{1033, 0}";
},
{
name = top;
position = "{1033, 1062}";
}
);
components = (
{
name = e;
transform = "{1, 0, 0, 1, 747, 0}";
}
);
layerId = "584F9D0D-8480-40C6-ABEA-8DD6EE64252D";
paths = (
{
closed = 1;
nodes = (
"1194 590 LINE",
"1194 611 OFFCURVE",
"1194 648 OFFCURVE",
"1194 674 CURVE SMOOTH",
"1194 956 OFFCURVE",
"943 1084 OFFCURVE",
"650 1084 CURVE SMOOTH",
"340 1084 OFFCURVE",
"82 943 OFFCURVE",
"82 675 CURVE",
"479 675 LINE",
"479 749 OFFCURVE",
"540 790 OFFCURVE",
"647 790 CURVE SMOOTH",
"746 790 OFFCURVE",
"790 749 OFFCURVE",
"790 700 CURVE SMOOTH",
"790 695 OFFCURVE",
"790 600 OFFCURVE",
"790 561 CURVE"
);
},
{
closed = 1;
nodes = (
"756 -26 OFFCURVE",
"1039 65 OFFCURVE",
"1039 345 CURVE",
"797 518 LINE",
"797 333 OFFCURVE",
"679 272 OFFCURVE",
"576 272 CURVE SMOOTH",
"504 272 OFFCURVE",
"462 288 OFFCURVE",
"462 333 CURVE SMOOTH",
"462 378 OFFCURVE",
"506 388 OFFCURVE",
"598 400 CURVE SMOOTH",
"743 419 OFFCURVE",
"959 498 OFFCURVE",
"959 565 CURVE",
"790 690 LINE",
"790 643 OFFCURVE",
"712 626 OFFCURVE",
"537 609 CURVE SMOOTH",
"311 587 OFFCURVE",
"58 523 OFFCURVE",
"58 288 CURVE SMOOTH",
"58 45 OFFCURVE",
"291 -26 OFFCURVE",
"519 -26 CURVE SMOOTH"
);
}
);
width = 2081;
},
{
anchors = (
{
name = bottom;
position = "{910, 0}";
},
{
name = top;
position = "{1136, 1062}";
}
);
components = (
{
name = e;
transform = "{1, 0, 0, 1, 740, 0}";
}
);
layerId = "3FDD6C00-F7FD-4E85-84B0-0136AF7D7529";
paths = (
{
closed = 1;
nodes = (
"1189 492 LINE",
"1195 522 OFFCURVE",
"1230 732 OFFCURVE",
"1230 758 CURVE SMOOTH",
"1230 980 OFFCURVE",
"1004 1084 OFFCURVE",
"742 1084 CURVE SMOOTH",
"432 1084 OFFCURVE",
"166 943 OFFCURVE",
"109 675 CURVE",
"506 675 LINE",
"522 749 OFFCURVE",
"591 790 OFFCURVE",
"698 790 CURVE SMOOTH",
"786 790 OFFCURVE",
"824 757 OFFCURVE",
"824 716 CURVE SMOOTH",
"824 711 OFFCURVE",
"791 523 OFFCURVE",
"790 518 CURVE"
);
},
{
closed = 1;
nodes = (
"699 -26 OFFCURVE",
"990 72 OFFCURVE",
"1051 345 CURVE",
"790 518 LINE",
"751 333 OFFCURVE",
"620 272 OFFCURVE",
"517 272 CURVE SMOOTH",
"452 272 OFFCURVE",
"415 284 OFFCURVE",
"415 324 CURVE SMOOTH",
"415 379 OFFCURVE",
"482 389 OFFCURVE",
"566 400 CURVE SMOOTH",
"715 419 OFFCURVE",
"948 498 OFFCURVE",
"962 565 CURVE",
"820 690 LINE",
"810 643 OFFCURVE",
"718 628 OFFCURVE",
"540 609 CURVE SMOOTH",
"254 579 OFFCURVE",
"3 504 OFFCURVE",
"3 249 CURVE SMOOTH",
"3 106 OFFCURVE",
"159 -26 OFFCURVE",
"387 -26 CURVE SMOOTH"
);
}
);
width = 2063;
},
{
anchors = (
{
name = bottom;
position = "{948, 0}";
},
{
name = top;
position = "{1174, 1062}";
}
);
components = (
{
name = e;
transform = "{1, 0, 0, 1, 862, 0}";
}
);
layerId = "2503C51C-5A6C-4B2C-A968-78FEA18C2585";
paths = (
{
closed = 1;
nodes = (
"1034 523 LINE",
"1042 552 OFFCURVE",
"1093 746 OFFCURVE",
"1093 845 CURVE SMOOTH",
"1093 994 OFFCURVE",
"946 1075 OFFCURVE",
"742 1075 CURVE SMOOTH",
"473 1075 OFFCURVE",
"279 942 OFFCURVE",
"232 721 CURVE",
"265 721 LINE",
"307 921 OFFCURVE",
"492 1047 OFFCURVE",
"742 1047 CURVE SMOOTH",
"944 1047 OFFCURVE",
"1061 965 OFFCURVE",
"1061 842 CURVE SMOOTH",
"1061 743 OFFCURVE",
"1009 551 OFFCURVE",
"1001 523 CURVE"
);
},
{
closed = 1;
nodes = (
"769 -16 OFFCURVE",
"955 149 OFFCURVE",
"1034 523 CURVE",
"1001 523 LINE",
"923 158 OFFCURVE",
"747 12 OFFCURVE",
"485 12 CURVE SMOOTH",
"233 12 OFFCURVE",
"127 111 OFFCURVE",
"127 260 CURVE SMOOTH",
"127 451 OFFCURVE",
"344 555 OFFCURVE",
"617 569 CURVE SMOOTH",
"862 582 OFFCURVE",
"1056 620 OFFCURVE",
"1075 709 CURVE",
"1049 726 LINE",
"1033 653 OFFCURVE",
"903 615 OFFCURVE",
"610 597 CURVE SMOOTH",
"324 579 OFFCURVE",
"94 471 OFFCURVE",
"94 260 CURVE SMOOTH",
"94 85 OFFCURVE",
"217 -16 OFFCURVE",
"483 -16 CURVE SMOOTH"
);
}
);
width = 2123;
}
);
leftKerningGroup = a;
leftMetricsKey = a;
rightKerningGroup = e;
rightMetricsKey = e;
unicode = 00E6;
},
{
glyphname = b;
lastChange = "2020-05-23 20:45:43 +0000";
layers = (
{
anchors = (
{
name = bottom;
position = "{592, -17}";
},
{
name = top;
position = "{583, 1563}";
}
);
layerId = "A1A0948C-E637-4A65-8CCC-05505AD98C44";
paths = (
{
closed = 1;
nodes = (
"848 -17 OFFCURVE",
"1023 181 OFFCURVE",
"1023 529 CURVE SMOOTH",
"1023 877 OFFCURVE",
"848 1075 OFFCURVE",
"589 1075 CURVE SMOOTH",
"349 1075 OFFCURVE",
"159 886 OFFCURVE",
"159 675 CURVE",
"189 675 LINE",
"189 872 OFFCURVE",
"373 1047 OFFCURVE",
"589 1047 CURVE SMOOTH",
"829 1047 OFFCURVE",
"992 858 OFFCURVE",
"992 529 CURVE SMOOTH",
"992 200 OFFCURVE",
"829 11 OFFCURVE",
"589 11 CURVE SMOOTH",
"373 11 OFFCURVE",
"189 186 OFFCURVE",
"189 383 CURVE SMOOTH",
"189 385 OFFCURVE",
"189 388 OFFCURVE",
"189 390 CURVE",
"159 390 LINE",
"159 388 OFFCURVE",
"159 385 OFFCURVE",
"159 383 CURVE SMOOTH",
"159 172 OFFCURVE",
"349 -17 OFFCURVE",
"589 -17 CURVE SMOOTH"
);
},
{
closed = 1;
nodes = (
"189 0 LINE",
"189 1563 LINE",
"158 1563 LINE",
"158 0 LINE"
);
}
);
width = 1166;
},
{
anchors = (
{
name = bottom;
position = "{663, 0}";
},
{
name = top;
position = "{663, 1563}";
}
);
layerId = "584F9D0D-8480-40C6-ABEA-8DD6EE64252D";
paths = (
{
closed = 1;
nodes = (
"1059 -25 OFFCURVE",
"1294 166 OFFCURVE",
"1294 538 CURVE SMOOTH",
"1294 890 OFFCURVE",
"1049 1083 OFFCURVE",
"792 1083 CURVE SMOOTH",
"537 1083 OFFCURVE",
"336 866 OFFCURVE",
"336 571 CURVE",
"478 561 LINE",
"478 694 OFFCURVE",
"582 757 OFFCURVE",
"676 757 CURVE SMOOTH",
"778 757 OFFCURVE",
"878 695 OFFCURVE",
"878 538 CURVE SMOOTH",
"878 381 OFFCURVE",
"777 314 OFFCURVE",
"676 314 CURVE SMOOTH",
"580 314 OFFCURVE",
"478 382 OFFCURVE",
"478 515 CURVE SMOOTH",
"478 519 OFFCURVE",
"478 524 OFFCURVE",
"478 528 CURVE",
"336 525 LINE",
"336 518 OFFCURVE",
"336 512 OFFCURVE",
"336 505 CURVE SMOOTH",
"336 210 OFFCURVE",
"537 -25 OFFCURVE",
"792 -25 CURVE SMOOTH"
);
},
{
closed = 1;
nodes = (
"478 0 LINE",
"478 1563 LINE",
"74 1563 LINE",
"74 0 LINE"
);
}
);
width = 1352;
},
{
anchors = (
{
name = bottom;
position = "{668, -25}";
},
{
name = top;
position = "{942, 1563}";
}
);
layerId = "3FDD6C00-F7FD-4E85-84B0-0136AF7D7529";
paths = (
{
closed = 1;
nodes = (
"1058 -25 OFFCURVE",
"1295 252 OFFCURVE",
"1295 628 CURVE SMOOTH",
"1295 917 OFFCURVE",
"1126 1083 OFFCURVE",
"885 1083 CURVE SMOOTH",
"630 1083 OFFCURVE",
"405 866 OFFCURVE",
"342 571 CURVE",
"481 561 LINE",
"509 694 OFFCURVE",
"627 757 OFFCURVE",
"721 757 CURVE SMOOTH",
"815 757 OFFCURVE",
"878 706 OFFCURVE",
"878 593 CURVE SMOOTH",
"878 434 OFFCURVE",
"794 314 OFFCURVE",
"627 314 CURVE SMOOTH",
"543 314 OFFCURVE",
"467 366 OFFCURVE",
"467 467 CURVE SMOOTH",
"467 482 OFFCURVE",
"470 512 OFFCURVE",
"474 528 CURVE",
"332 525 LINE",
"323 501 OFFCURVE",
"315 457 OFFCURVE",
"315 386 CURVE SMOOTH",
"315 151 OFFCURVE",
"474 -25 OFFCURVE",
"693 -25 CURVE SMOOTH"
);
},
{
closed = 1;
nodes = (
"362 0 LINE",
"695 1563 LINE",
"291 1563 LINE",
"-42 0 LINE"
);
}
);
width = 1348;
},
{
anchors = (
{
name = bottom;
position = "{470, 0}";
},
{
name = top;
position = "{802, 1563}";
}
);
layerId = "2503C51C-5A6C-4B2C-A968-78FEA18C2585";
paths = (
{
closed = 1;
nodes = (
"821 -17 OFFCURVE",
"1026 295 OFFCURVE",
"1026 664 CURVE SMOOTH",
"1026 920 OFFCURVE",
"924 1075 OFFCURVE",
"696 1075 CURVE SMOOTH",
"456 1075 OFFCURVE",
"232 886 OFFCURVE",
"187 675 CURVE",
"216 675 LINE",
"258 872 OFFCURVE",
"480 1047 OFFCURVE",
"696 1047 CURVE SMOOTH",
"905 1047 OFFCURVE",
"995 902 OFFCURVE",
"995 663 CURVE SMOOTH",
"995 317 OFFCURVE",
"804 11 OFFCURVE",
"476 11 CURVE SMOOTH",
"285 11 OFFCURVE",
"148 148 OFFCURVE",
"148 316 CURVE SMOOTH",
"148 347 OFFCURVE",
"156 388 OFFCURVE",
"156 390 CURVE",
"126 390 LINE",
"126 389 OFFCURVE",
"117 344 OFFCURVE",
"117 311 CURVE SMOOTH",
"117 131 OFFCURVE",
"264 -17 OFFCURVE",
"476 -17 CURVE SMOOTH"
);
},
{
closed = 1;
nodes = (
"73 0 LINE",
"406 1563 LINE",
"375 1563 LINE",
"42 0 LINE"
);
}
);
width = 1161;
}
);
leftKerningGroup = h;
leftMetricsKey = h;
note = b;
rightKerningGroup = o;
rightMetricsKey = o;
unicode = 0062;
},
{
glyphname = c;
lastChange = "2020-05-25 15:30:06 +0000";
layers = (
{
anchors = (
{
name = bottom;
position = "{643, -15}";
},
{
name = top;
position = "{628, 1075}";
}
);
layerId = "A1A0948C-E637-4A65-8CCC-05505AD98C44";
paths = (
{
closed = 1;
nodes = (
"940 -17 OFFCURVE",
"1087 170 OFFCURVE",
"1087 325 CURVE",
"1056 325 LINE",
"1056 183 OFFCURVE",
"923 11 OFFCURVE",
"645 11 CURVE SMOOTH",
"398 11 OFFCURVE",
"169 193 OFFCURVE",
"169 529 CURVE SMOOTH",
"169 865 OFFCURVE",
"399 1047 OFFCURVE",
"645 1047 CURVE SMOOTH",
"860 1047 OFFCURVE",
"1030 915 OFFCURVE",
"1055 750 CURVE SMOOTH",
"1056 743 OFFCURVE",
"1056 734 OFFCURVE",
"1056 727 CURVE",
"1087 727 LINE",
"1087 729 OFFCURVE",
"1087 731 OFFCURVE",
"1087 733 CURVE SMOOTH",
"1087 878 OFFCURVE",
"922 1075 OFFCURVE",
"645 1075 CURVE SMOOTH",
"380 1075 OFFCURVE",
"138 882 OFFCURVE",
"138 529 CURVE SMOOTH",
"138 176 OFFCURVE",
"380 -17 OFFCURVE",
"645 -17 CURVE SMOOTH"
);
}
);
width = 1230;
},
{
anchors = (
{
name = bottom;
position = "{665, -16}";
},
{
name = top;
position = "{650, 1083}";
}
);
layerId = "584F9D0D-8480-40C6-ABEA-8DD6EE64252D";
paths = (
{
closed = 1;
nodes = (
"1059 -26 OFFCURVE",
"1240 220 OFFCURVE",
"1240 424 CURVE",
"840 424 LINE",
"828 364 OFFCURVE",
"778 285 OFFCURVE",
"665 285 CURVE SMOOTH",
"543 285 OFFCURVE",
"467 389 OFFCURVE",
"467 536 CURVE SMOOTH",
"467 685 OFFCURVE",
"543 773 OFFCURVE",
"665 773 CURVE SMOOTH",
"774 773 OFFCURVE",
"817 714 OFFCURVE",
"835 659 CURVE SMOOTH",
"837 654 OFFCURVE",
"841 639 OFFCURVE",
"841 631 CURVE",
"1240 631 LINE",
"1240 634 OFFCURVE",
"1240 637 OFFCURVE",
"1240 640 CURVE SMOOTH",
"1240 844 OFFCURVE",
"1059 1084 OFFCURVE",
"673 1084 CURVE SMOOTH",
"300 1084 OFFCURVE",
"58 861 OFFCURVE",
"58 536 CURVE SMOOTH",
"58 211 OFFCURVE",
"300 -26 OFFCURVE",
"673 -26 CURVE SMOOTH"
);
}
);
width = 1298;
},
{
anchors = (
{
name = bottom;
position = "{560, -16}";
},
{
name = top;
position = "{775, 1083}";
}
);
layerId = "3FDD6C00-F7FD-4E85-84B0-0136AF7D7529";
paths = (
{
closed = 1;
nodes = (
"957 -26 OFFCURVE",
"1168 220 OFFCURVE",
"1212 424 CURVE",
"812 424 LINE",
"787 364 OFFCURVE",
"715 285 OFFCURVE",
"607 285 CURVE SMOOTH",
"504 285 OFFCURVE",
"461 356 OFFCURVE",
"461 466 CURVE SMOOTH",
"461 669 OFFCURVE",
"583 773 OFFCURVE",
"711 773 CURVE SMOOTH",
"824 773 OFFCURVE",
"859 703 OFFCURVE",
"859 647 CURVE SMOOTH",
"859 642 OFFCURVE",
"858 634 OFFCURVE",
"857 631 CURVE",
"1256 631 LINE",
"1258 638 OFFCURVE",
"1265 676 OFFCURVE",
"1265 707 CURVE SMOOTH",
"1265 891 OFFCURVE",
"1107 1084 OFFCURVE",
"763 1084 CURVE SMOOTH",
"363 1084 OFFCURVE",
"51 828 OFFCURVE",
"51 439 CURVE SMOOTH",
"51 165 OFFCURVE",
"222 -26 OFFCURVE",
"571 -26 CURVE SMOOTH"
);
}
);
width = 1290;
},
{
anchors = (
{
name = bottom;
position = "{528, -15}";
},
{
name = top;
position = "{749, 1075}";
}
);
layerId = "2503C51C-5A6C-4B2C-A968-78FEA18C2585";
paths = (
{
closed = 1;
nodes = (
"838 -17 OFFCURVE",
"1016 180 OFFCURVE",
"1049 335 CURVE",
"1018 335 LINE",
"987 193 OFFCURVE",
"817 11 OFFCURVE",
"538 11 CURVE SMOOTH",
"312 11 OFFCURVE",
"168 173 OFFCURVE",
"168 419 CURVE SMOOTH",
"168 764 OFFCURVE",
"422 1047 OFFCURVE",
"758 1047 CURVE SMOOTH",
"989 1047 OFFCURVE",
"1105 900 OFFCURVE",
"1105 767 CURVE SMOOTH",
"1105 751 OFFCURVE",
"1101 723 OFFCURVE",
"1099 717 CURVE",
"1130 717 LINE",
"1132 723 OFFCURVE",
"1136 752 OFFCURVE",
"1136 772 CURVE SMOOTH",
"1136 916 OFFCURVE",
"1009 1075 OFFCURVE",
"758 1075 CURVE SMOOTH",
"400 1075 OFFCURVE",
"138 787 OFFCURVE",
"138 418 CURVE SMOOTH",
"138 154 OFFCURVE",
"289 -17 OFFCURVE",
"538 -17 CURVE SMOOTH"
);
}
);
width = 1233;
}
);
leftKerningGroup = o;
leftMetricsKey = o;
note = c;
rightKerningGroup = o;
rightMetricsKey = o;
unicode = 0063;
},
{
glyphname = d;
lastChange = "2020-05-25 15:30:06 +0000";
layers = (
{
anchors = (
{
name = bottom;
position = "{572, -12}";
},
{
name = center;
position = "{986, 1295}";
},
{
name = top;
position = "{592, 1563}";
},
{
name = topright;
position = "{1054, 1062}";
}
);
layerId = "A1A0948C-E637-4A65-8CCC-05505AD98C44";
paths = (
{
closed = 1;
nodes = (
"801 -17 OFFCURVE",
"1002 159 OFFCURVE",
"1002 390 CURVE",
"972 390 LINE",
"972 179 OFFCURVE",
"784 11 OFFCURVE",
"572 11 CURVE SMOOTH",
"332 11 OFFCURVE",
"169 200 OFFCURVE",
"169 529 CURVE SMOOTH",
"169 858 OFFCURVE",
"332 1047 OFFCURVE",
"572 1047 CURVE SMOOTH",
"788 1047 OFFCURVE",
"972 872 OFFCURVE",
"972 675 CURVE SMOOTH",
"972 670 OFFCURVE",
"972 666 OFFCURVE",
"972 661 CURVE",
"1002 657 LINE",
"1002 663 OFFCURVE",
"1002 669 OFFCURVE",
"1002 675 CURVE SMOOTH",
"1002 886 OFFCURVE",
"812 1075 OFFCURVE",
"572 1075 CURVE SMOOTH",
"313 1075 OFFCURVE",
"138 877 OFFCURVE",
"138 529 CURVE SMOOTH",
"138 181 OFFCURVE",
"313 -17 OFFCURVE",
"572 -17 CURVE SMOOTH"
);
},
{
closed = 1;
nodes = (
"1003 1563 LINE",
"972 1563 LINE",
"972 0 LINE",
"1003 0 LINE"
);
}
);
width = 1219;
},
{
anchors = (
{
name = bottom;
position = "{560, -19}";
},
{
name = center;
position = "{1072, 1298}";
},
{
name = top;
position = "{637, 1563}";
},
{
name = topright;
position = "{1353, 1062}";
}
);
layerId = "584F9D0D-8480-40C6-ABEA-8DD6EE64252D";
paths = (
{
closed = 1;
nodes = (
"815 -26 OFFCURVE",
"1016 210 OFFCURVE",
"1016 505 CURVE",
"874 515 LINE",
"874 382 OFFCURVE",
"772 314 OFFCURVE",
"676 314 CURVE SMOOTH",
"575 314 OFFCURVE",
"474 381 OFFCURVE",
"474 538 CURVE SMOOTH",
"474 695 OFFCURVE",
"575 757 OFFCURVE",
"676 757 CURVE SMOOTH",
"770 757 OFFCURVE",
"874 694 OFFCURVE",
"874 561 CURVE SMOOTH",
"874 557 OFFCURVE",
"874 552 OFFCURVE",
"874 548 CURVE",
"1016 548 LINE",
"1016 556 OFFCURVE",
"1016 563 OFFCURVE",
"1016 571 CURVE SMOOTH",
"1016 866 OFFCURVE",
"815 1084 OFFCURVE",
"560 1084 CURVE SMOOTH",
"303 1084 OFFCURVE",
"58 890 OFFCURVE",
"58 538 CURVE SMOOTH",
"58 166 OFFCURVE",
"293 -26 OFFCURVE",
"560 -26 CURVE SMOOTH"
);
},
{
closed = 1;
nodes = (
"1278 1563 LINE",
"874 1563 LINE",
"874 0 LINE",
"1278 0 LINE"
);
}
);
width = 1388;
},
{
anchors = (
{
name = bottom;
position = "{451, -19}";
},
{
name = center;
position = "{1222, 1298}";
},
{
name = top;
position = "{868, 1580}";
},
{
name = topright;
position = "{1482, 1062}";
}
);
layerId = "3FDD6C00-F7FD-4E85-84B0-0136AF7D7529";
paths = (
{
closed = 1;
nodes = (
"692 -26 OFFCURVE",
"941 210 OFFCURVE",
"1004 505 CURVE",
"864 515 LINE",
"836 382 OFFCURVE",
"719 314 OFFCURVE",
"623 314 CURVE SMOOTH",
"532 314 OFFCURVE",
"466 375 OFFCURVE",
"466 487 CURVE SMOOTH",
"466 642 OFFCURVE",
"567 757 OFFCURVE",
"717 757 CURVE SMOOTH",
"799 757 OFFCURVE",
"879 709 OFFCURVE",
"879 608 CURVE SMOOTH",
"879 593 OFFCURVE",
"875 564 OFFCURVE",
"871 548 CURVE",
"1013 548 LINE",
"1024 591 OFFCURVE",
"1032 654 OFFCURVE",
"1032 697 CURVE SMOOTH",
"1032 923 OFFCURVE",
"886 1084 OFFCURVE",
"669 1084 CURVE SMOOTH",
"315 1084 OFFCURVE",
"47 778 OFFCURVE",
"47 414 CURVE SMOOTH",
"47 130 OFFCURVE",
"198 -26 OFFCURVE",
"437 -26 CURVE SMOOTH"
);
},
{
closed = 1;
nodes = (
"1491 1563 LINE",
"1087 1563 LINE",
"754 0 LINE",
"1158 0 LINE"
);
}
);
width = 1389;
},
{
anchors = (
{
name = bottom;
position = "{477, -12}";
},
{
name = center;
position = "{1161, 1295}";
},
{
name = top;
position = "{829, 1563}";
},
{
name = topright;
position = "{1166, 1062}";
}
);
layerId = "2503C51C-5A6C-4B2C-A968-78FEA18C2585";
paths = (
{
closed = 1;
nodes = (
"737 -17 OFFCURVE",
"930 172 OFFCURVE",
"975 383 CURVE",
"946 383 LINE",
"904 186 OFFCURVE",
"713 11 OFFCURVE",
"477 11 CURVE SMOOTH",
"269 11 OFFCURVE",
"168 163 OFFCURVE",
"168 389 CURVE SMOOTH",
"168 739 OFFCURVE",
"356 1045 OFFCURVE",
"687 1045 CURVE SMOOTH",
"878 1045 OFFCURVE",
"1015 910 OFFCURVE",
"1015 742 CURVE SMOOTH",
"1015 717 OFFCURVE",
"1011 692 OFFCURVE",
"1005 661 CURVE",
"1034 657 LINE",
"1034 659 OFFCURVE",
"1045 702 OFFCURVE",
"1045 747 CURVE SMOOTH",
"1045 927 OFFCURVE",
"900 1073 OFFCURVE",
"688 1073 CURVE SMOOTH",
"338 1073 OFFCURVE",
"136 760 OFFCURVE",
"136 387 CURVE SMOOTH",
"136 145 OFFCURVE",
"249 -17 OFFCURVE",
"475 -17 CURVE SMOOTH"
);
},
{
closed = 1;
nodes = (
"1227 1563 LINE",
"1197 1563 LINE",
"864 0 LINE",
"894 0 LINE"
);
}
);
width = 1212;
}
);
leftKerningGroup = o;
leftMetricsKey = o;
note = d;
rightKerningGroup = l;
unicode = 0064;
},
{
glyphname = eth;
lastChange = "2020-05-25 15:30:06 +0000";
layers = (
{
components = (
{
name = o;
}
);
layerId = "A1A0948C-E637-4A65-8CCC-05505AD98C44";
paths = (
{
closed = 1;
nodes = (
"714 1339 LINE",
"935 1509 LINE",
"908 1530 LINE",
"687 1360 LINE"
);
},
{
closed = 1;
nodes = (
"1152 533 LINE",
"1152 1182 OFFCURVE",
"905 1446 OFFCURVE",
"579 1554 CURVE",
"551 1530 LINE",
"869 1437 OFFCURVE",
"1121 1173 OFFCURVE",
"1121 533 CURVE"
);
}
);
width = 1368;
},
{
components = (
{
name = o;
}
);
layerId = "584F9D0D-8480-40C6-ABEA-8DD6EE64252D";
paths = (
{
closed = 1;
nodes = (
"609 1103 LINE",
"997 1468 LINE",
"782 1591 LINE",
"392 1222 LINE"
);
},
{
closed = 1;
nodes = (
"1258 530 LINE",
"1258 1179 OFFCURVE",
"918 1475 OFFCURVE",
"481 1576 CURVE",
"312 1394 LINE",
"652 1306 OFFCURVE",
"860 1173 OFFCURVE",
"862 530 CURVE"
);
}
);
width = 1380;
},
{
components = (
{
name = o;
}
);
layerId = "3FDD6C00-F7FD-4E85-84B0-0136AF7D7529";
paths = (
{
closed = 1;
nodes = (
"639 1103 LINE",
"1027 1468 LINE",
"812 1591 LINE",
"422 1222 LINE"
);
},
{
closed = 1;
nodes = (
"1266 627 LINE",
"1266 1192 OFFCURVE",
"948 1475 OFFCURVE",
"511 1576 CURVE",
"342 1394 LINE",
"682 1306 OFFCURVE",
"872 1172 OFFCURVE",
"872 643 CURVE"
);
}
);
width = 1390;
},
{
components = (
{
name = o;
}
);
layerId = "2503C51C-5A6C-4B2C-A968-78FEA18C2585";
paths = (
{
closed = 1;
nodes = (
"841 1339 LINE",
"1062 1509 LINE",
"1035 1530 LINE",
"814 1360 LINE"
);
},
{
closed = 1;
nodes = (
"1162 653 LINE",
"1162 1150 OFFCURVE",
"988 1479 OFFCURVE",
"742 1554 CURVE",
"719 1531 LINE",
"964 1456 OFFCURVE",
"1131 1131 OFFCURVE",
"1131 649 CURVE"
);
}
);
width = 1357;
}
);
leftKerningGroup = o;
leftMetricsKey = o;
rightKerningGroup = d;
rightMetricsKey = d;
unicode = 00F0;
},
{
glyphname = dcroat;
lastChange = "2020-05-25 15:30:06 +0000";
layers = (
{
components = (
{
name = d;
}
);
layerId = "A1A0948C-E637-4A65-8CCC-05505AD98C44";
paths = (
{
closed = 1;
nodes = (
"1106 1362 LINE",
"1106 1388 LINE",
"618 1388 LINE",
"618 1362 LINE"
);
}
);
width = 1219;
},
{
components = (
{
name = d;
}
);
layerId = "584F9D0D-8480-40C6-ABEA-8DD6EE64252D";
paths = (
{
closed = 1;
nodes = (
"1403 1187 LINE",
"1403 1432 LINE",
"502 1432 LINE",
"502 1187 LINE"
);
}
);
width = 1344;
},
{
components = (
{
name = d;
}
);
layerId = "3FDD6C00-F7FD-4E85-84B0-0136AF7D7529";
paths = (
{
closed = 1;
nodes = (
"1530 1187 LINE",
"1585 1432 LINE",
"685 1432 LINE",
"629 1187 LINE"
);
}
);
width = 1330;
},
{
components = (
{
name = d;
}
);
layerId = "2503C51C-5A6C-4B2C-A968-78FEA18C2585";
paths = (
{
closed = 1;
nodes = (
"1290 1362 LINE",
"1296 1388 LINE",
"808 1388 LINE",
"802 1362 LINE"
);
}
);
width = 1212;
}
);
leftKerningGroup = o;
leftMetricsKey = o;
rightKerningGroup = l;
unicode = 0111;
},
{
glyphname = e;
lastChange = "2020-05-25 15:34:29 +0000";
layers = (
{
anchors = (
{
name = bottom;
position = "{642, -12}";
},
{
name = ogonek;
position = "{691, -10}";
},
{
name = top;
position = "{630, 1075}";
}
);
layerId = "A1A0948C-E637-4A65-8CCC-05505AD98C44";
paths = (
{
closed = 1;
nodes = (
"1117 512 LINE",
"1117 521 OFFCURVE",
"1117 535 OFFCURVE",
"1117 544 CURVE SMOOTH",
"1117 828 OFFCURVE",
"932 1075 OFFCURVE",
"643 1075 CURVE SMOOTH",
"355 1075 OFFCURVE",
"138 847 OFFCURVE",
"138 527 CURVE SMOOTH",
"138 207 OFFCURVE",
"356 -17 OFFCURVE",
"642 -17 CURVE SMOOTH",
"941 -17 OFFCURVE",
"1090 202 OFFCURVE",
"1101 332 CURVE",
"1070 332 LINE",
"1058 220 OFFCURVE",
"926 11 OFFCURVE",
"642 11 CURVE SMOOTH",
"373 11 OFFCURVE",
"169 234 OFFCURVE",
"169 527 CURVE SMOOTH",
"169 813 OFFCURVE",
"367 1047 OFFCURVE",
"643 1047 CURVE SMOOTH",
"914 1047 OFFCURVE",
"1086 806 OFFCURVE",
"1086 554 CURVE SMOOTH",
"1086 548 OFFCURVE",
"1086 546 OFFCURVE",
"1086 538 CURVE",
"1099 542 LINE",
"161 542 LINE",
"161 512 LINE"
);
}
);
width = 1260;
},
{
anchors = (
{
name = bottom;
position = "{668, -17}";
},
{
name = ogonek;
position = "{820, 17}";
},
{
name = top;
position = "{665, 1084}";
}
);
layerId = "584F9D0D-8480-40C6-ABEA-8DD6EE64252D";
paths = (
{
closed = 1;
nodes = (
"1272 421 LINE",
"1274 438 OFFCURVE",
"1276 466 OFFCURVE",
"1276 506 CURVE SMOOTH",
"1276 861 OFFCURVE",
"1043 1084 OFFCURVE",
"667 1084 CURVE SMOOTH",
"302 1084 OFFCURVE",
"58 863 OFFCURVE",
"58 529 CURVE SMOOTH",
"58 202 OFFCURVE",
"292 -26 OFFCURVE",
"667 -26 CURVE SMOOTH",
"1028 -26 OFFCURVE",
"1242 148 OFFCURVE",
"1262 336 CURVE",
"864 336 LINE",
"852 295 OFFCURVE",
"787 262 OFFCURVE",
"688 262 CURVE SMOOTH",
"496 262 OFFCURVE",
"447 362 OFFCURVE",
"447 539 CURVE SMOOTH",
"447 707 OFFCURVE",
"529 800 OFFCURVE",
"672 800 CURVE SMOOTH",
"809 800 OFFCURVE",
"871 711 OFFCURVE",
"871 643 CURVE SMOOTH",
"871 633 OFFCURVE",
"872 619 OFFCURVE",
"872 609 CURVE",
"901 661 LINE",
"355 661 LINE",
"355 421 LINE"
);
}
);
width = 1334;
},
{
anchors = (
{
name = bottom;
position = "{552, -17}";
},
{
name = ogonek;
position = "{704, 17}";
},
{
name = top;
position = "{759, 1062}";
}
);
layerId = "3FDD6C00-F7FD-4E85-84B0-0136AF7D7529";
paths = (
{
closed = 1;
nodes = (
"1242 421 LINE",
"1262 477 OFFCURVE",
"1279 575 OFFCURVE",
"1279 641 CURVE SMOOTH",
"1279 914 OFFCURVE",
"1073 1083 OFFCURVE",
"756 1083 CURVE SMOOTH",
"355 1083 OFFCURVE",
"49 818 OFFCURVE",
"49 427 CURVE SMOOTH",
"49 158 OFFCURVE",
"221 -25 OFFCURVE",
"564 -25 CURVE SMOOTH",
"935 -25 OFFCURVE",
"1154 148 OFFCURVE",
"1214 336 CURVE",
"816 336 LINE",
"795 295 OFFCURVE",
"723 262 OFFCURVE",
"624 262 CURVE SMOOTH",
"474 262 OFFCURVE",
"434 315 OFFCURVE",
"434 415 CURVE SMOOTH",
"434 623 OFFCURVE",
"530 800 OFFCURVE",
"723 800 CURVE SMOOTH",
"843 800 OFFCURVE",
"891 732 OFFCURVE",
"891 669 CURVE SMOOTH",
"891 659 OFFCURVE",
"886 629 OFFCURVE",
"882 609 CURVE",
"922 661 LINE",
"376 661 LINE",
"325 421 LINE"
);
}
);
width = 1325;
},
{
anchors = (
{
name = bottom;
position = "{535, -12}";
},
{
name = ogonek;
position = "{584, -10}";
},
{
name = top;
position = "{750, 1075}";
}
);
layerId = "2503C51C-5A6C-4B2C-A968-78FEA18C2585";
paths = (
{
closed = 1;
nodes = (
"1115 512 LINE",
"1127 564 OFFCURVE",
"1133 613 OFFCURVE",
"1133 664 CURVE SMOOTH",
"1133 894 OFFCURVE",
"1004 1075 OFFCURVE",
"757 1075 CURVE SMOOTH",
"410 1075 OFFCURVE",
"135 771 OFFCURVE",
"135 410 CURVE SMOOTH",
"135 163 OFFCURVE",
"275 -17 OFFCURVE",
"532 -17 CURVE SMOOTH",
"831 -17 OFFCURVE",
"1022 202 OFFCURVE",
"1061 332 CURVE",
"1030 332 LINE",
"994 220 OFFCURVE",
"815 11 OFFCURVE",
"534 11 CURVE SMOOTH",
"283 11 OFFCURVE",
"166 190 OFFCURVE",
"166 416 CURVE SMOOTH",
"166 752 OFFCURVE",
"428 1047 OFFCURVE",
"755 1047 CURVE SMOOTH",
"989 1047 OFFCURVE",
"1102 869 OFFCURVE",
"1102 661 CURVE SMOOTH",
"1102 632 OFFCURVE",
"1096 566 OFFCURVE",
"1089 538 CURVE",
"1104 542 LINE",
"166 542 LINE",
"159 512 LINE"
);
}
);
width = 1261;
}
);
leftKerningGroup = o;
leftMetricsKey = o;
note = e;
rightKerningGroup = o;
rightMetricsKey = o;
unicode = 0065;
},
{
glyphname = f;
lastChange = "2020-05-25 15:53:26 +0000";
layers = (
{
anchors = (
{
name = bottom;
position = "{404, 0}";
},
{
name = top;
position = "{404, 1563}";
}
);
layerId = "A1A0948C-E637-4A65-8CCC-05505AD98C44";
paths = (
{
closed = 1;
nodes = (
"339 0 LINE",
"339 1034 LINE",
"643 1034 LINE",
"643 1062 LINE",
"339 1062 LINE",
"339 1230 LINE SMOOTH",
"339 1373 OFFCURVE",
"366 1550 OFFCURVE",
"574 1550 CURVE SMOOTH",
"613 1550 OFFCURVE",
"650 1542 OFFCURVE",
"667 1536 CURVE",
"667 1564 LINE",
"653 1570 OFFCURVE",
"617 1578 OFFCURVE",
"574 1578 CURVE SMOOTH",
"326 1578 OFFCURVE",
"308 1356 OFFCURVE",
"308 1230 CURVE SMOOTH",
"308 1062 LINE",
"55 1062 LINE",
"55 1034 LINE",
"308 1034 LINE",
"308 0 LINE"
);
}
);
width = 717;
},
{
anchors = (
{
name = bottom;
position = "{455, 0}";
},
{
name = top;
position = "{455, 1563}";
}
);
layerId = "584F9D0D-8480-40C6-ABEA-8DD6EE64252D";
paths = (
{
closed = 1;
nodes = (
"628 0 LINE",
"628 762 LINE",
"867 762 LINE",
"867 1062 LINE",
"628 1062 LINE",
"628 1089 LINE SMOOTH",
"628 1204 OFFCURVE",
"674 1267 OFFCURVE",
"811 1267 CURVE SMOOTH",
"860 1267 OFFCURVE",
"908 1257 OFFCURVE",
"924 1252 CURVE",
"924 1555 LINE",
"908 1562 OFFCURVE",
"867 1577 OFFCURVE",
"765 1577 CURVE SMOOTH",
"575 1577 OFFCURVE",
"226 1519 OFFCURVE",
"226 1093 CURVE SMOOTH",
"226 1062 LINE",
"2 1062 LINE",
"2 762 LINE",
"226 762 LINE",
"226 0 LINE"
);
}
);
width = 940;
},
{
anchors = (
{
name = bottom;
position = "{317, 0}";
},
{
name = top;
position = "{679, 1563}";
}
);
layerId = "3FDD6C00-F7FD-4E85-84B0-0136AF7D7529";
paths = (
{
closed = 1;
nodes = (
"517 0 LINE",
"679 762 LINE",
"918 762 LINE",
"982 1062 LINE",
"743 1062 LINE",
"749 1089 LINE SMOOTH",
"775 1204 OFFCURVE",
"833 1267 OFFCURVE",
"970 1267 CURVE SMOOTH",
"1019 1267 OFFCURVE",
"1065 1257 OFFCURVE",
"1080 1252 CURVE",
"1147 1557 LINE",
"1130 1563 OFFCURVE",
"1061 1577 OFFCURVE",
"987 1577 CURVE SMOOTH",
"774 1577 OFFCURVE",
"444 1518 OFFCURVE",
"348 1093 CURVE SMOOTH",
"341 1062 LINE",
"117 1062 LINE",
"53 762 LINE",
"277 762 LINE",
"115 0 LINE"
);
}
);
width = 951;
},
{
anchors = (
{
name = bottom;
position = "{206, 0}";
},
{
name = top;
position = "{618, 1563}";
}
);
layerId = "2503C51C-5A6C-4B2C-A968-78FEA18C2585";
paths = (
{
closed = 1;
nodes = (
"223 0 LINE",
"444 1034 LINE",
"742 1034 LINE",
"748 1062 LINE",
"449 1062 LINE",
"485 1230 LINE SMOOTH",
"519 1389 OFFCURVE",
"595 1550 OFFCURVE",
"785 1550 CURVE SMOOTH",
"823 1550 OFFCURVE",
"857 1542 OFFCURVE",
"873 1536 CURVE",
"878 1564 LINE",
"865 1570 OFFCURVE",
"832 1578 OFFCURVE",
"790 1578 CURVE SMOOTH",
"571 1578 OFFCURVE",
"491 1403 OFFCURVE",
"454 1230 CURVE SMOOTH",
"418 1062 LINE",
"169 1062 LINE",
"164 1034 LINE",
"412 1034 LINE",
"192 0 LINE"
);
}
);
width = 717;
}
);
leftKerningGroup = f;
leftMetricsKey = t;
note = f;
rightKerningGroup = f;
unicode = 0066;
},
{
glyphname = g;
lastChange = "2020-05-25 15:34:40 +0000";
layers = (
{
anchors = (
{
name = bottom;
position = "{563, -440}";
},
{
name = top;
position = "{556, 1075}";
}
);
layerId = "A1A0948C-E637-4A65-8CCC-05505AD98C44";
paths = (
{
closed = 1;
nodes = (
"373 34 LINE SMOOTH",
"246 43 OFFCURVE",
"195 88 OFFCURVE",
"195 150 CURVE SMOOTH",
"195 221 OFFCURVE",
"270 265 OFFCURVE",
"313 274 CURVE",
"284 295 LINE",
"238 286 OFFCURVE",
"164 231 OFFCURVE",
"164 150 CURVE SMOOTH",
"164 64 OFFCURVE",
"240 14 OFFCURVE",
"363 5 CURVE SMOOTH",
"769 -24 LINE SMOOTH",
"904 -34 OFFCURVE",
"1003 -78 OFFCURVE",
"1003 -191 CURVE SMOOTH",
"1003 -303 OFFCURVE",
"879 -419 OFFCURVE",
"559 -419 CURVE SMOOTH",
"282 -419 OFFCURVE",
"134 -327 OFFCURVE",
"134 -185 CURVE SMOOTH",
"134 -133 OFFCURVE",
"149 -92 OFFCURVE",
"163 -71 CURVE",
"134 -64 LINE",
"119 -88 OFFCURVE",
"103 -129 OFFCURVE",
"103 -187 CURVE SMOOTH",
"103 -333 OFFCURVE",
"240 -447 OFFCURVE",
"552 -447 CURVE SMOOTH",
"898 -447 OFFCURVE",
"1034 -327 OFFCURVE",
"1034 -191 CURVE SMOOTH",
"1034 -63 OFFCURVE",
"926 -6 OFFCURVE",
"779 5 CURVE SMOOTH"
);
},
{
closed = 1;
nodes = (
"956 782 LINE",
"964 774 LINE",
"943 896 OFFCURVE",
"816 1075 OFFCURVE",
"559 1075 CURVE SMOOTH",
"297 1075 OFFCURVE",
"125 872 OFFCURVE",
"125 636 CURVE SMOOTH",
"125 402 OFFCURVE",
"277 201 OFFCURVE",
"556 201 CURVE SMOOTH",
"826 201 OFFCURVE",
"987 396 OFFCURVE",
"987 634 CURVE SMOOTH",
"987 1062 LINE",
"956 1062 LINE"
);
},
{
closed = 1;
nodes = (
"301 229 OFFCURVE",
"156 412 OFFCURVE",
"156 636 CURVE SMOOTH",
"156 853 OFFCURVE",
"318 1047 OFFCURVE",
"558 1047 CURVE SMOOTH",
"810 1047 OFFCURVE",
"956 859 OFFCURVE",
"956 640 CURVE SMOOTH",
"956 408 OFFCURVE",
"812 229 OFFCURVE",
"556 229 CURVE SMOOTH"
);
}
);
width = 1150;
},
{
anchors = (
{
name = bottom;
position = "{625, -437}";
},
{
name = top;
position = "{602, 1084}";
}
);
layerId = "584F9D0D-8480-40C6-ABEA-8DD6EE64252D";
paths = (
{
closed = 1;
nodes = (
"501 208 LINE SMOOTH",
"407 218 OFFCURVE",
"376 242 OFFCURVE",
"376 272 CURVE SMOOTH",
"376 298 OFFCURVE",
"406 320 OFFCURVE",
"426 323 CURVE",
"252 416 LINE",
"196 398 OFFCURVE",
"61 308 OFFCURVE",
"61 186 CURVE SMOOTH",
"61 54 OFFCURVE",
"180 -10 OFFCURVE",
"337 -30 CURVE SMOOTH",
"738 -80 LINE SMOOTH",
"794 -87 OFFCURVE",
"852 -100 OFFCURVE",
"852 -142 CURVE SMOOTH",
"852 -189 OFFCURVE",
"753 -220 OFFCURVE",
"622 -220 CURVE SMOOTH",
"491 -220 OFFCURVE",
"380 -190 OFFCURVE",
"380 -143 CURVE SMOOTH",
"380 -121 OFFCURVE",
"387 -108 OFFCURVE",
"391 -103 CURVE",
"30 -51 LINE",
"11 -80 OFFCURVE",
"0 -120 OFFCURVE",
"0 -165 CURVE SMOOTH",
"0 -345 OFFCURVE",
"232 -463 OFFCURVE",
"613 -463 CURVE SMOOTH",
"991 -463 OFFCURVE",
"1226 -345 OFFCURVE",
"1226 -117 CURVE SMOOTH",
"1226 78 OFFCURVE",
"1086 148 OFFCURVE",
"874 170 CURVE SMOOTH"
);
},
{
closed = 1;
nodes = (
"930 820 LINE",
"982 842 LINE",
"982 987 OFFCURVE",
"790 1084 OFFCURVE",
"590 1084 CURVE SMOOTH",
"294 1084 OFFCURVE",
"65 925 OFFCURVE",
"65 669 CURVE SMOOTH",
"65 414 OFFCURVE",
"285 270 OFFCURVE",
"624 270 CURVE SMOOTH",
"945 270 OFFCURVE",
"1078 429 OFFCURVE",
"1159 660 CURVE SMOOTH",
"1300 1062 LINE",
"951 1062 LINE"
);
},
{
closed = 1;
nodes = (
"531 548 OFFCURVE",
"459 590 OFFCURVE",
"459 671 CURVE SMOOTH",
"459 754 OFFCURVE",
"532 797 OFFCURVE",
"622 797 CURVE SMOOTH",
"713 797 OFFCURVE",
"784 754 OFFCURVE",
"784 673 CURVE SMOOTH",
"784 592 OFFCURVE",
"714 548 OFFCURVE",
"622 548 CURVE SMOOTH"
);
}
);
width = 1300;
},
{
anchors = (
{
name = bottom;
position = "{393, -437}";
},
{
name = top;
position = "{705, 1084}";
}
);
layerId = "3FDD6C00-F7FD-4E85-84B0-0136AF7D7529";
paths = (
{
closed = 1;
nodes = (
"433 208 LINE SMOOTH",
"350 217 OFFCURVE",
"321 237 OFFCURVE",
"321 263 CURVE SMOOTH",
"321 292 OFFCURVE",
"356 319 OFFCURVE",
"383 323 CURVE",
"228 416 LINE",
"168 398 OFFCURVE",
"-12 307 OFFCURVE",
"-12 157 CURVE SMOOTH",
"-12 51 OFFCURVE",
"90 -11 OFFCURVE",
"239 -30 CURVE SMOOTH",
"629 -80 LINE SMOOTH",
"677 -86 OFFCURVE",
"711 -97 OFFCURVE",
"711 -130 CURVE SMOOTH",
"711 -199 OFFCURVE",
"563 -220 OFFCURVE",
"463 -220 CURVE SMOOTH",
"332 -220 OFFCURVE",
"228 -190 OFFCURVE",
"238 -143 CURVE SMOOTH",
"242 -121 OFFCURVE",
"252 -108 OFFCURVE",
"257 -103 CURVE",
"-93 -51 LINE",
"-127 -91 OFFCURVE",
"-151 -154 OFFCURVE",
"-151 -206 CURVE SMOOTH",
"-151 -363 OFFCURVE",
"52 -463 OFFCURVE",
"403 -463 CURVE SMOOTH",
"752 -463 OFFCURVE",
"1091 -371 OFFCURVE",
"1091 -69 CURVE SMOOTH",
"1091 80 OFFCURVE",
"989 150 OFFCURVE",
"798 170 CURVE SMOOTH"
);
},
{
closed = 1;
nodes = (
"992 820 LINE",
"1049 842 LINE",
"1049 1021 OFFCURVE",
"854 1084 OFFCURVE",
"668 1084 CURVE SMOOTH",
"369 1084 OFFCURVE",
"93 914 OFFCURVE",
"93 614 CURVE SMOOTH",
"93 408 OFFCURVE",
"277 270 OFFCURVE",
"589 270 CURVE SMOOTH",
"910 270 OFFCURVE",
"1057 429 OFFCURVE",
"1187 660 CURVE SMOOTH",
"1414 1062 LINE",
"1065 1062 LINE"
);
},
{
closed = 1;
nodes = (
"546 548 OFFCURVE",
"487 581 OFFCURVE",
"487 645 CURVE SMOOTH",
"487 737 OFFCURVE",
"574 797 OFFCURVE",
"679 797 CURVE SMOOTH",
"760 797 OFFCURVE",
"818 763 OFFCURVE",
"818 699 CURVE SMOOTH",
"818 607 OFFCURVE",
"731 548 OFFCURVE",
"626 548 CURVE SMOOTH"
);
}
);
width = 1300;
},
{
anchors = (
{
name = bottom;
position = "{365, -440}";
},
{
name = top;
position = "{681, 1075}";
}
);
layerId = "2503C51C-5A6C-4B2C-A968-78FEA18C2585";
paths = (
{
closed = 1;
nodes = (
"261 34 LINE SMOOTH",
"144 42 OFFCURVE",
"117 84 OFFCURVE",
"117 134 CURVE SMOOTH",
"117 219 OFFCURVE",
"219 262 OFFCURVE",
"265 271 CURVE",
"237 295 LINE",
"188 286 OFFCURVE",
"86 228 OFFCURVE",
"86 132 CURVE SMOOTH",
"86 60 OFFCURVE",
"141 13 OFFCURVE",
"255 5 CURVE SMOOTH",
"654 -24 LINE SMOOTH",
"773 -33 OFFCURVE",
"857 -69 OFFCURVE",
"857 -156 CURVE SMOOTH",
"857 -333 OFFCURVE",
"608 -419 OFFCURVE",
"357 -419 CURVE SMOOTH",
"85 -419 OFFCURVE",
"-25 -362 OFFCURVE",
"-25 -230 CURVE SMOOTH",
"-25 -156 OFFCURVE",
"20 -92 OFFCURVE",
"38 -71 CURVE",
"11 -64 LINE",
"-10 -89 OFFCURVE",
"-56 -153 OFFCURVE",
"-56 -235 CURVE SMOOTH",
"-56 -369 OFFCURVE",
"51 -447 OFFCURVE",
"357 -447 CURVE SMOOTH",
"630 -447 OFFCURVE",
"888 -357 OFFCURVE",
"888 -153 CURVE SMOOTH",
"888 -51 OFFCURVE",
"790 -4 OFFCURVE",
"661 5 CURVE SMOOTH"
);
},
{
closed = 1;
nodes = (
"1013 782 LINE",
"1019 774 LINE",
"1024 896 OFFCURVE",
"926 1075 OFFCURVE",
"671 1075 CURVE SMOOTH",
"387 1075 OFFCURVE",
"148 833 OFFCURVE",
"148 540 CURVE SMOOTH",
"148 357 OFFCURVE",
"242 201 OFFCURVE",
"495 201 CURVE SMOOTH",
"765 201 OFFCURVE",
"961 396 OFFCURVE",
"1012 634 CURVE SMOOTH",
"1103 1062 LINE",
"1072 1062 LINE"
);
},
{
closed = 1;
nodes = (
"263 229 OFFCURVE",
"180 370 OFFCURVE",
"180 544 CURVE SMOOTH",
"180 813 OFFCURVE",
"407 1047 OFFCURVE",
"671 1047 CURVE SMOOTH",
"885 1047 OFFCURVE",
"993 911 OFFCURVE",
"993 737 CURVE SMOOTH",
"993 463 OFFCURVE",
"776 229 OFFCURVE",
"495 229 CURVE SMOOTH"
);
}
);
width = 1150;
}
);
leftKerningGroup = g;
note = g;
rightKerningGroup = g;
unicode = 0067;
},
{
glyphname = g.ss01;
lastChange = "2020-05-25 15:30:06 +0000";
layers = (
{
anchors = (
{
name = bottom;
position = "{537, -437}";
},
{
name = top;
position = "{537, 1062}";
}
);
components = (
{
name = a.ss01;
}
);
layerId = "A1A0948C-E637-4A65-8CCC-05505AD98C44";
paths = (
{
closed = 1;
nodes = (
"981 0 LINE",
"981 -318 OFFCURVE",
"795 -419 OFFCURVE",
"588 -419 CURVE SMOOTH",
"381 -419 OFFCURVE",
"196 -314 OFFCURVE",
"196 -104 CURVE",
"196 -102 OFFCURVE",
"196 -99 OFFCURVE",
"196 -97 CURVE",
"165 -97 LINE",
"165 -99 OFFCURVE",
"165 -102 OFFCURVE",
"165 -104 CURVE",
"165 -344 OFFCURVE",
"371 -447 OFFCURVE",
"588 -447 CURVE SMOOTH",
"805 -447 OFFCURVE",
"1012 -340 OFFCURVE",
"1012 0 CURVE"
);
}
);
width = 1197;
},
{
anchors = (
{
name = bottom;
position = "{664, -437}";
},
{
name = top;
position = "{664, 1062}";
}
);
components = (
{
name = a.ss01;
}
);
layerId = "584F9D0D-8480-40C6-ABEA-8DD6EE64252D";
paths = (
{
closed = 1;
nodes = (
"884 0 LINE",
"884 -115 OFFCURVE",
"822 -180 OFFCURVE",
"688 -180 CURVE SMOOTH",
"574 -180 OFFCURVE",
"507 -132 OFFCURVE",
"507 -85 CURVE",
"507 -80 OFFCURVE",
"507 -76 OFFCURVE",
"507 -71 CURVE",
"104 -71 LINE",
"104 -76 OFFCURVE",
"104 -80 OFFCURVE",
"104 -85 CURVE",
"104 -364 OFFCURVE",
"390 -457 OFFCURVE",
"679 -457 CURVE SMOOTH",
"968 -457 OFFCURVE",
"1287 -359 OFFCURVE",
"1287 0 CURVE"
);
}
);
width = 1387;
},
{
anchors = (
{
name = bottom;
position = "{451, -437}";
},
{
name = top;
position = "{770, 1062}";
}
);
components = (
{
name = a.ss01;
}
);
layerId = "3FDD6C00-F7FD-4E85-84B0-0136AF7D7529";
paths = (
{
closed = 1;
nodes = (
"765 0 LINE",
"740 -115 OFFCURVE",
"664 -180 OFFCURVE",
"530 -180 CURVE SMOOTH",
"425 -180 OFFCURVE",
"369 -139 OFFCURVE",
"369 -96 CURVE SMOOTH",
"369 -86 OFFCURVE",
"371 -76 OFFCURVE",
"372 -71 CURVE",
"-31 -71 LINE",
"-36 -94 OFFCURVE",
"-41 -122 OFFCURVE",
"-41 -157 CURVE SMOOTH",
"-41 -380 OFFCURVE",
"218 -457 OFFCURVE",
"481 -457 CURVE SMOOTH",
"770 -457 OFFCURVE",
"1091 -359 OFFCURVE",
"1168 0 CURVE"
);
}
);
width = 1392;
},
{
anchors = (
{
name = bottom;
position = "{343, -437}";
},
{
name = top;
position = "{662, 1062}";
}
);
components = (
{
name = a.ss01;
}
);
layerId = "2503C51C-5A6C-4B2C-A968-78FEA18C2585";
paths = (
{
closed = 1;
nodes = (
"875 0 LINE",
"807 -318 OFFCURVE",
"599 -419 OFFCURVE",
"392 -419 CURVE SMOOTH",
"208 -419 OFFCURVE",
"60 -336 OFFCURVE",
"60 -170 CURVE SMOOTH",
"60 -133 OFFCURVE",
"66 -106 OFFCURVE",
"69 -97 CURVE",
"38 -97 LINE",
"35 -105 OFFCURVE",
"28 -134 OFFCURVE",
"28 -177 CURVE SMOOTH",
"28 -365 OFFCURVE",
"205 -447 OFFCURVE",
"399 -447 CURVE SMOOTH",
"616 -447 OFFCURVE",
"833 -340 OFFCURVE",
"906 0 CURVE"
);
}
);
width = 1217;
}
);
leftKerningGroup = o;
leftMetricsKey = a;
rightKerningGroup = g;
rightMetricsKey = u;
},
{
glyphname = h;
lastChange = "2020-05-24 19:41:24 +0000";
layers = (
{
anchors = (
{
name = bottom;
position = "{542, 0}";
},
{
name = center;
position = "{171, 1295}";
},
{
name = top;
position = "{172, 1542}";
}
);
layerId = "A1A0948C-E637-4A65-8CCC-05505AD98C44";
paths = (
{
closed = 1;
nodes = (
"930 0 LINE",
"930 400 LINE SMOOTH",
"930 476 OFFCURVE",
"930 569 OFFCURVE",
"930 641 CURVE SMOOTH",
"930 911 OFFCURVE",
"843 1075 OFFCURVE",
"592 1075 CURVE SMOOTH",
"331 1075 OFFCURVE",
"158 887 OFFCURVE",
"158 699 CURVE",
"188 693 LINE",
"188 870 OFFCURVE",
"364 1047 OFFCURVE",
"591 1047 CURVE SMOOTH",
"813 1047 OFFCURVE",
"900 897 OFFCURVE",
"900 652 CURVE SMOOTH",
"900 582 OFFCURVE",
"900 481 OFFCURVE",
"900 413 CURVE SMOOTH",
"900 0 LINE"
);
},
{
closed = 1;
nodes = (
"188 0 LINE",
"188 1563 LINE",
"158 1563 LINE",
"158 0 LINE"
);
}
);
width = 1120;
},
{
anchors = (
{
name = bottom;
position = "{633, 0}";
},
{
name = center;
position = "{277, 1298}";
},
{
name = top;
position = "{282, 1563}";
}
);
layerId = "584F9D0D-8480-40C6-ABEA-8DD6EE64252D";
paths = (
{
closed = 1;
nodes = (
"1216 0 LINE",
"1216 340 LINE",
"1216 485 OFFCURVE",
"1216 583 OFFCURVE",
"1216 651 CURVE",
"1216 924 OFFCURVE",
"1103 1084 OFFCURVE",
"840 1084 CURVE SMOOTH",
"574 1084 OFFCURVE",
"399 903 OFFCURVE",
"399 612 CURVE",
"477 532 LINE",
"477 670 OFFCURVE",
"525 751 OFFCURVE",
"654 751 CURVE SMOOTH",
"786 751 OFFCURVE",
"813 667 OFFCURVE",
"813 532 CURVE",
"813 496 OFFCURVE",
"813 397 OFFCURVE",
"813 366 CURVE",
"813 0 LINE"
);
},
{
closed = 1;
nodes = (
"477 0 LINE",
"477 1563 LINE",
"74 1563 LINE",
"74 0 LINE"
);
}
);
width = 1286;
},
{
anchors = (
{
name = bottom;
position = "{515, 0}";
},
{
name = center;
position = "{427, 1298}";
},
{
name = top;
position = "{495, 1563}";
}
);
layerId = "3FDD6C00-F7FD-4E85-84B0-0136AF7D7529";
paths = (
{
closed = 1;
nodes = (
"1100 0 LINE",
"1206 497 LINE",
"1237 642 OFFCURVE",
"1257 740 OFFCURVE",
"1257 808 CURVE SMOOTH",
"1257 921 OFFCURVE",
"1216 1084 OFFCURVE",
"952 1084 CURVE SMOOTH",
"686 1084 OFFCURVE",
"475 903 OFFCURVE",
"413 612 CURVE",
"473 532 LINE",
"502 670 OFFCURVE",
"568 751 OFFCURVE",
"697 751 CURVE SMOOTH",
"800 751 OFFCURVE",
"823 702 OFFCURVE",
"823 641 CURVE SMOOTH",
"823 605 OFFCURVE",
"804 506 OFFCURVE",
"797 475 CURVE",
"697 0 LINE"
);
},
{
closed = 1;
nodes = (
"361 0 LINE",
"693 1563 LINE",
"290 1563 LINE",
"-42 0 LINE"
);
}
);
width = 1286;
},
{
anchors = (
{
name = bottom;
position = "{463, 0}";
},
{
name = center;
position = "{332, 1295}";
},
{
name = top;
position = "{386, 1546}";
}
);
layerId = "2503C51C-5A6C-4B2C-A968-78FEA18C2585";
paths = (
{
closed = 1;
nodes = (
"814 0 LINE",
"935 572 LINE",
"951 648 OFFCURVE",
"970 740 OFFCURVE",
"970 812 CURVE SMOOTH",
"970 893 OFFCURVE",
"963 1075 OFFCURVE",
"704 1075 CURVE SMOOTH",
"443 1075 OFFCURVE",
"231 887 OFFCURVE",
"191 699 CURVE",
"219 693 LINE",
"257 870 OFFCURVE",
"475 1047 OFFCURVE",
"702 1047 CURVE SMOOTH",
"925 1047 OFFCURVE",
"938 888 OFFCURVE",
"938 812 CURVE SMOOTH",
"938 742 OFFCURVE",
"921 642 OFFCURVE",
"906 573 CURVE",
"784 0 LINE"
);
},
{
closed = 1;
nodes = (
"72 0 LINE",
"404 1563 LINE",
"374 1563 LINE",
"42 0 LINE"
);
}
);
width = 1120;
}
);
leftKerningGroup = h;
note = h;
rightKerningGroup = n;
unicode = 0068;
},
{
glyphname = hbar;
lastChange = "2020-05-24 15:26:58 +0000";
layers = (
{
components = (
{
name = h;
}
);
layerId = "A1A0948C-E637-4A65-8CCC-05505AD98C44";
paths = (
{
closed = 1;
nodes = (
"540 1362 LINE",
"540 1388 LINE",
"49 1388 LINE",
"49 1362 LINE"
);
}
);
width = 1161;
},
{
components = (
{
name = h;
}
);
layerId = "584F9D0D-8480-40C6-ABEA-8DD6EE64252D";
paths = (
{
closed = 1;
nodes = (
"852 1187 LINE",
"852 1432 LINE",
"-14 1432 LINE",
"-14 1187 LINE"
);
}
);
width = 1286;
},
{
components = (
{
name = h;
}
);
layerId = "3FDD6C00-F7FD-4E85-84B0-0136AF7D7529";
paths = (
{
closed = 1;
nodes = (
"994 1187 LINE",
"1046 1432 LINE",
"180 1432 LINE",
"128 1187 LINE"
);
}
);
width = 1286;
},
{
components = (
{
name = h;
}
);
layerId = "2503C51C-5A6C-4B2C-A968-78FEA18C2585";
paths = (
{
closed = 1;
nodes = (
"715 1362 LINE",
"721 1388 LINE",
"230 1388 LINE",
"225 1362 LINE"
);
}
);
width = 1161;
}
);
leftKerningGroup = h;
rightKerningGroup = n;
unicode = 0127;
},
{
glyphname = i;
lastChange = "2020-05-24 19:36:15 +0000";
layers = (
{
anchors = (
{
name = bottom;
position = "{226, 0}";
}
);
layerId = "A1A0948C-E637-4A65-8CCC-05505AD98C44";
paths = (
{
closed = 1;
nodes = (
"242 0 LINE",
"242 1062 LINE",
"212 1062 LINE",
"212 0 LINE"
);
},
{
closed = 1;
nodes = (
"254 1377 OFFCURVE",
"277 1400 OFFCURVE",
"277 1429 CURVE SMOOTH",
"277 1457 OFFCURVE",
"254 1480 OFFCURVE",
"226 1480 CURVE SMOOTH",
"197 1480 OFFCURVE",
"174 1457 OFFCURVE",
"174 1429 CURVE SMOOTH",
"174 1400 OFFCURVE",
"197 1377 OFFCURVE",
"226 1377 CURVE SMOOTH"
);
}
);
width = 481;
},
{
anchors = (
{
name = bottom;
position = "{336, 0}";
}
);
layerId = "584F9D0D-8480-40C6-ABEA-8DD6EE64252D";
paths = (
{
closed = 1;
nodes = (
"538 0 LINE",
"538 1062 LINE",
"139 1062 LINE",
"139 0 LINE"
);
},
{
closed = 1;
nodes = (
"465 1154 OFFCURVE",
"576 1222 OFFCURVE",
"576 1344 CURVE SMOOTH",
"576 1467 OFFCURVE",
"465 1534 OFFCURVE",
"338 1534 CURVE SMOOTH",
"210 1534 OFFCURVE",
"100 1467 OFFCURVE",
"100 1344 CURVE SMOOTH",
"100 1222 OFFCURVE",
"210 1154 OFFCURVE",
"338 1154 CURVE SMOOTH"
);
}
);
width = 676;
},
{
anchors = (
{
name = bottom;
position = "{220, 0}";
}
);
layerId = "3FDD6C00-F7FD-4E85-84B0-0136AF7D7529";
paths = (
{
closed = 1;
nodes = (
"421 0 LINE",
"646 1062 LINE",
"245 1062 LINE",
"20 0 LINE"
);
},
{
closed = 1;
nodes = (
"624 1154 OFFCURVE",
"749 1229 OFFCURVE",
"749 1364 CURVE SMOOTH",
"749 1474 OFFCURVE",
"650 1534 OFFCURVE",
"530 1534 CURVE SMOOTH",
"395 1534 OFFCURVE",
"271 1460 OFFCURVE",
"271 1324 CURVE SMOOTH",
"271 1214 OFFCURVE",
"369 1154 OFFCURVE",
"490 1154 CURVE SMOOTH"
);
}
);
width = 676;
},
{
anchors = (
{
name = bottom;
position = "{99, 0}";
}
);
layerId = "2503C51C-5A6C-4B2C-A968-78FEA18C2585";
paths = (
{
closed = 1;
nodes = (
"114 0 LINE",
"339 1062 LINE",
"309 1062 LINE",
"84 0 LINE"
);
},
{
closed = 1;
nodes = (
"433 1377 OFFCURVE",
"456 1400 OFFCURVE",
"456 1429 CURVE SMOOTH",
"456 1457 OFFCURVE",
"433 1480 OFFCURVE",
"405 1480 CURVE SMOOTH",
"376 1480 OFFCURVE",
"353 1457 OFFCURVE",
"353 1429 CURVE SMOOTH",
"353 1400 OFFCURVE",
"376 1377 OFFCURVE",
"405 1377 CURVE SMOOTH"
);
}
);
width = 481;
}
);
leftKerningGroup = i;
note = i;
rightKerningGroup = i;
unicode = 0069;
},
{
glyphname = idotless;
lastChange = "2020-05-15 16:19:24 +0000";
layers = (
{
anchors = (
{
name = bottom;
position = "{224, 0}";
},
{
name = ogonek;
position = "{240, 0}";
},
{
name = top;
position = "{224, 1062}";
}
);
layerId = "A1A0948C-E637-4A65-8CCC-05505AD98C44";
paths = (
{
closed = 1;
nodes = (
"239 0 LINE",
"239 1062 LINE",
"209 1062 LINE",
"209 0 LINE"
);
}
);
width = 509;
},
{
anchors = (
{
name = bottom;
position = "{352, 0}";
},
{
name = ogonek;
position = "{553, 0}";
},
{
name = top;
position = "{352, 1062}";
}
);
layerId = "584F9D0D-8480-40C6-ABEA-8DD6EE64252D";
paths = (
{
closed = 1;
nodes = (
"553 0 LINE",
"553 1062 LINE",
"151 1062 LINE",
"151 0 LINE"
);
}
);
width = 683;
},
{
anchors = (
{
name = bottom;
position = "{229.132, 0}";
},
{
name = ogonek;
position = "{437, 0}";
},
{
name = top;
position = "{454.868, 1062}";
}
);
layerId = "3FDD6C00-F7FD-4E85-84B0-0136AF7D7529";
paths = (
{
closed = 1;
nodes = (
"437 0 LINE",
"663 1062 LINE",
"260 1062 LINE",
"35 0 LINE"
);
}
);
width = 684;
},
{
anchors = (
{
name = bottom;
position = "{113, 0}";
},
{
name = ogonek;
position = "{129, 0}";
},
{
name = top;
position = "{338, 1062}";
}
);
layerId = "2503C51C-5A6C-4B2C-A968-78FEA18C2585";
paths = (
{
closed = 1;
nodes = (
"129 0 LINE",
"355 1062 LINE",
"323 1062 LINE",
"98 0 LINE"
);
}
);
width = 512;
}
);
leftKerningGroup = idotless;
rightKerningGroup = idotless;
unicode = 0131;
},
{
glyphname = j;
lastChange = "2020-05-24 15:18:47 +0000";
layers = (
{
layerId = "A1A0948C-E637-4A65-8CCC-05505AD98C44";
paths = (
{
closed = 1;
nodes = (
"246 -435 OFFCURVE",
"300 -277 OFFCURVE",
"300 -102 CURVE SMOOTH",
"300 1062 LINE",
"270 1062 LINE",
"270 -96 LINE SMOOTH",
"270 -237 OFFCURVE",
"234 -407 OFFCURVE",
"9 -407 CURVE SMOOTH",
"-33 -407 OFFCURVE",
"-71 -398 OFFCURVE",
"-89 -391 CURVE",
"-89 -422 LINE",
"-73 -428 OFFCURVE",
"-36 -435 OFFCURVE",
"9 -435 CURVE SMOOTH"
);
},
{
closed = 1;
nodes = (
"317 1377 OFFCURVE",
"340 1400 OFFCURVE",
"340 1429 CURVE SMOOTH",
"340 1457 OFFCURVE",
"317 1480 OFFCURVE",
"289 1480 CURVE SMOOTH",
"260 1480 OFFCURVE",
"237 1457 OFFCURVE",
"237 1429 CURVE SMOOTH",
"237 1400 OFFCURVE",
"260 1377 OFFCURVE",
"289 1377 CURVE SMOOTH"
);
}
);
width = 569;
},
{
layerId = "584F9D0D-8480-40C6-ABEA-8DD6EE64252D";
paths = (
{
closed = 1;
nodes = (
"472 -464 OFFCURVE",
"553 -264 OFFCURVE",
"553 -89 CURVE SMOOTH",
"553 1062 LINE",
"151 1062 LINE",
"151 -81 LINE SMOOTH",
"151 -121 OFFCURVE",
"114 -173 OFFCURVE",
"-1 -173 CURVE SMOOTH",
"-43 -173 OFFCURVE",
"-94 -168 OFFCURVE",
"-121 -165 CURVE",
"-121 -460 LINE",
"-93 -462 OFFCURVE",
"-41 -464 OFFCURVE",
"-1 -464 CURVE SMOOTH"
);
},
{
closed = 1;
nodes = (
"482 1154 OFFCURVE",
"593 1222 OFFCURVE",
"593 1344 CURVE SMOOTH",
"593 1467 OFFCURVE",
"482 1534 OFFCURVE",
"355 1534 CURVE SMOOTH",
"227 1534 OFFCURVE",
"117 1467 OFFCURVE",
"117 1344 CURVE SMOOTH",
"117 1222 OFFCURVE",
"227 1154 OFFCURVE",
"355 1154 CURVE SMOOTH"
);
}
);
width = 678;
},
{
layerId = "3FDD6C00-F7FD-4E85-84B0-0136AF7D7529";
paths = (
{
closed = 1;
nodes = (
"252 -435 OFFCURVE",
"372 -235 OFFCURVE",
"409 -60 CURVE SMOOTH",
"648 1062 LINE",
"244 1062 LINE",
"6 -52 LINE SMOOTH",
"-5 -103 OFFCURVE",
"-52 -144 OFFCURVE",
"-148 -144 CURVE SMOOTH",
"-187 -144 OFFCURVE",
"-233 -140 OFFCURVE",
"-258 -136 CURVE",
"-316 -431 LINE",
"-289 -433 OFFCURVE",
"-241 -435 OFFCURVE",
"-204 -435 CURVE SMOOTH"
);
},
{
closed = 1;
nodes = (
"638 1154 OFFCURVE",
"763 1229 OFFCURVE",
"763 1364 CURVE SMOOTH",
"763 1474 OFFCURVE",
"664 1534 OFFCURVE",
"544 1534 CURVE SMOOTH",
"409 1534 OFFCURVE",
"285 1460 OFFCURVE",
"285 1324 CURVE SMOOTH",
"285 1214 OFFCURVE",
"383 1154 OFFCURVE",
"504 1154 CURVE SMOOTH"
);
}
);
width = 678;
},
{
layerId = "2503C51C-5A6C-4B2C-A968-78FEA18C2585";
paths = (
{
closed = 1;
nodes = (
"57 -435 OFFCURVE",
"134 -276 OFFCURVE",
"171 -103 CURVE SMOOTH",
"419 1062 LINE",
"388 1062 LINE",
"142 -94 LINE SMOOTH",
"112 -236 OFFCURVE",
"43 -407 OFFCURVE",
"-161 -407 CURVE SMOOTH",
"-199 -407 OFFCURVE",
"-234 -399 OFFCURVE",
"-249 -393 CURVE",
"-252 -422 LINE",
"-239 -428 OFFCURVE",
"-206 -435 OFFCURVE",
"-164 -435 CURVE SMOOTH"
);
},
{
closed = 1;
nodes = (
"514 1377 OFFCURVE",
"537 1400 OFFCURVE",
"537 1429 CURVE SMOOTH",
"537 1457 OFFCURVE",
"514 1480 OFFCURVE",
"486 1480 CURVE SMOOTH",
"457 1480 OFFCURVE",
"434 1457 OFFCURVE",
"434 1429 CURVE SMOOTH",
"434 1400 OFFCURVE",
"457 1377 OFFCURVE",
"486 1377 CURVE SMOOTH"
);
}
);
width = 569;
}
);
leftKerningGroup = j;
note = j;
rightKerningGroup = j;
unicode = 006A;
},
{
glyphname = jdotless;
lastChange = "2020-05-24 15:24:51 +0000";
layers = (
{
anchors = (
{
name = bottom;
position = "{240, -437}";
},
{
name = top;
position = "{285, 1062}";
}
);
layerId = "A1A0948C-E637-4A65-8CCC-05505AD98C44";
paths = (
{
closed = 1;
nodes = (
"246 -435 OFFCURVE",
"301 -278 OFFCURVE",
"301 -103 CURVE SMOOTH",
"301 1062 LINE",
"270 1062 LINE",
"270 -96 LINE SMOOTH",
"270 -237 OFFCURVE",
"234 -407 OFFCURVE",
"9 -407 CURVE SMOOTH",
"-33 -407 OFFCURVE",
"-71 -398 OFFCURVE",
"-89 -391 CURVE",
"-89 -422 LINE",
"-73 -428 OFFCURVE",
"-36 -435 OFFCURVE",
"9 -435 CURVE SMOOTH"
);
}
);
width = 530;
},
{
anchors = (
{
name = bottom;
position = "{319, -437}";
},
{
name = top;
position = "{349, 1062}";
}
);
layerId = "584F9D0D-8480-40C6-ABEA-8DD6EE64252D";
paths = (
{
closed = 1;
nodes = (
"472 -464 OFFCURVE",
"553 -263 OFFCURVE",
"553 -88 CURVE SMOOTH",
"553 1062 LINE",
"151 1062 LINE",
"151 -81 LINE SMOOTH",
"151 -121 OFFCURVE",
"114 -173 OFFCURVE",
"-1 -173 CURVE SMOOTH",
"-43 -173 OFFCURVE",
"-94 -168 OFFCURVE",
"-121 -165 CURVE",
"-121 -460 LINE",
"-93 -462 OFFCURVE",
"-41 -464 OFFCURVE",
"-1 -464 CURVE SMOOTH"
);
}
);
width = 638;
},
{
anchors = (
{
name = bottom;
position = "{74, -437}";
},
{
name = top;
position = "{404, 1062}";
}
);
layerId = "2503C51C-5A6C-4B2C-A968-78FEA18C2585";
paths = (
{
closed = 1;
nodes = (
"57 -435 OFFCURVE",
"135 -276 OFFCURVE",
"172 -103 CURVE SMOOTH",
"420 1062 LINE",
"388 1062 LINE",
"142 -94 LINE SMOOTH",
"112 -236 OFFCURVE",
"43 -407 OFFCURVE",
"-161 -407 CURVE SMOOTH",
"-199 -407 OFFCURVE",
"-234 -399 OFFCURVE",
"-249 -393 CURVE",
"-252 -422 LINE",
"-239 -428 OFFCURVE",
"-206 -435 OFFCURVE",
"-164 -435 CURVE"
);
}
);
width = 529;
},
{
anchors = (
{
name = bottom;
position = "{118, -437}";
},
{
name = top;
position = "{447, 1062}";
}
);
layerId = "3FDD6C00-F7FD-4E85-84B0-0136AF7D7529";
paths = (
{
closed = 1;
nodes = (
"252 -435 OFFCURVE",
"371 -234 OFFCURVE",
"408 -59 CURVE SMOOTH",
"648 1062 LINE",
"244 1062 LINE",
"6 -52 LINE SMOOTH",
"-5 -103 OFFCURVE",
"-52 -144 OFFCURVE",
"-148 -144 CURVE SMOOTH",
"-187 -144 OFFCURVE",
"-233 -140 OFFCURVE",
"-258 -136 CURVE",
"-316 -431 LINE",
"-289 -433 OFFCURVE",
"-241 -435 OFFCURVE",
"-204 -435 CURVE SMOOTH"
);
}
);
width = 622;
}
);
leftKerningGroup = j;
leftMetricsKey = j;
rightKerningGroup = j;
rightMetricsKey = j;
unicode = 0237;
},
{
glyphname = k;
lastChange = "2020-05-25 15:27:44 +0000";
layers = (
{
anchors = (
{
name = bottom;
position = "{488, 0}";
},
{
name = top;
position = "{498, 1563}";
}
);
layerId = "A1A0948C-E637-4A65-8CCC-05505AD98C44";
paths = (
{
closed = 1;
nodes = (
"188 0 LINE",
"188 531 LINE",
"176 507 LINE",
"327 627 LINE",
"301 640 LINE",
"841 0 LINE",
"879 0 LINE",
"330 653 LINE",
"329 630 LINE",
"861 1062 LINE",
"818 1062 LINE",
"179 544 LINE",
"188 542 LINE",
"188 1563 LINE",
"158 1563 LINE",
"158 0 LINE"
);
}
);
width = 1000;
},
{
anchors = (
{
name = bottom;
position = "{616, 0}";
},
{
name = top;
position = "{626, 1563}";
}
);
layerId = "584F9D0D-8480-40C6-ABEA-8DD6EE64252D";
paths = (
{
closed = 1;
nodes = (
"456 0 LINE",
"456 514 LINE",
"409 365 LINE",
"596 520 LINE",
"485 505 LINE",
"811 0 LINE",
"1232 0 LINE",
"730 734 LINE",
"673 587 LINE",
"1250 1062 LINE",
"763 1062 LINE",
"367 738 LINE",
"456 710 LINE",
"456 1563 LINE",
"74 1563 LINE",
"74 0 LINE"
);
}
);
width = 1255;
},
{
anchors = (
{
name = bottom;
position = "{505, 0}";
},
{
name = top;
position = "{847, 1563}";
}
);
layerId = "3FDD6C00-F7FD-4E85-84B0-0136AF7D7529";
paths = (
{
closed = 1;
nodes = (
"340 0 LINE",
"449 514 LINE",
"373 365 LINE",
"589 520 LINE",
"488 505 LINE",
"692 0 LINE",
"1100 0 LINE",
"766 734 LINE",
"680 587 LINE",
"1344 1062 LINE",
"850 1062 LINE",
"382 738 LINE",
"488 710 LINE",
"672 1563 LINE",
"290 1563 LINE",
"-42 0 LINE"
);
}
);
width = 1236;
},
{
anchors = (
{
name = bottom;
position = "{367, 0}";
},
{
name = top;
position = "{709, 1563}";
}
);
layerId = "2503C51C-5A6C-4B2C-A968-78FEA18C2585";
paths = (
{
closed = 1;
nodes = (
"72 0 LINE",
"185 531 LINE",
"169 507 LINE",
"342 627 LINE",
"330 630 LINE",
"712 0 LINE",
"748 0 LINE",
"352 653 LINE",
"344 630 LINE",
"956 1062 LINE",
"908 1062 LINE",
"174 549 LINE",
"187 542 LINE",
"404 1563 LINE",
"374 1563 LINE",
"42 0 LINE"
);
}
);
width = 1000;
}
);
leftKerningGroup = h;
leftMetricsKey = h;
note = k;
rightKerningGroup = k;
unicode = 006B;
},
{
glyphname = kgreenlandic;
lastChange = "2020-05-25 15:30:06 +0000";
layers = (
{
anchors = (
{
name = bottom;
position = "{430, 0}";
},
{
name = top;
position = "{430, 1062}";
}
);
layerId = "A1A0948C-E637-4A65-8CCC-05505AD98C44";
paths = (
{
closed = 1;
nodes = (
"681 1062 LINE",
"644 1062 LINE",
"174 447 LINE",
"188 446 LINE",
"188 1062 LINE",
"158 1062 LINE",
"158 0 LINE",
"188 0 LINE",
"188 433 LINE",
"181 412 LINE",
"294 555 LINE",
"267 559 LINE",
"676 0 LINE",
"715 0 LINE",
"292 579 LINE",
"299 560 LINE"
);
}
);
width = 836;
},
{
anchors = (
{
name = bottom;
position = "{591, 0}";
},
{
name = top;
position = "{591, 1062}";
}
);
layerId = "584F9D0D-8480-40C6-ABEA-8DD6EE64252D";
paths = (
{
closed = 1;
nodes = (
"1116 1062 LINE",
"701 1062 LINE",
"401 554 LINE",
"455 532 LINE",
"455 1062 LINE",
"74 1062 LINE",
"74 0 LINE",
"455 0 LINE",
"455 400 LINE",
"428 163 LINE",
"641 443 LINE",
"410 500 LINE",
"690 0 LINE",
"1116 0 LINE",
"682 722 LINE",
"714 500 LINE"
);
}
);
width = 1121;
},
{
anchors = (
{
name = bottom;
position = "{313, 0}";
},
{
name = top;
position = "{539, 1062}";
}
);
layerId = "2503C51C-5A6C-4B2C-A968-78FEA18C2585";
paths = (
{
closed = 1;
nodes = (
"791 1062 LINE",
"750 1062 LINE",
"149 447 LINE",
"167 446 LINE",
"298 1062 LINE",
"268 1062 LINE",
"42 0 LINE",
"72 0 LINE",
"164 433 LINE",
"153 412 LINE",
"296 555 LINE",
"276 559 LINE",
"564 0 LINE",
"599 0 LINE",
"299 579 LINE",
"302 560 LINE"
);
}
);
width = 851;
},
{
anchors = (
{
name = bottom;
position = "{466, 0}";
},
{
name = top;
position = "{692, 1062}";
}
);
layerId = "3FDD6C00-F7FD-4E85-84B0-0136AF7D7529";
paths = (
{
closed = 1;
nodes = (
"1236 1062 LINE",
"801 1062 LINE",
"393 554 LINE",
"452 532 LINE",
"565 1062 LINE",
"184 1062 LINE",
"-42 0 LINE",
"339 0 LINE",
"424 400 LINE",
"357 163 LINE",
"629 443 LINE",
"430 500 LINE",
"604 0 LINE",
"1000 0 LINE",
"720 722 LINE",
"714 500 LINE"
);
}
);
width = 1128;
}
);
leftKerningGroup = h;
leftMetricsKey = h;
rightKerningGroup = k;
rightMetricsKey = k;
unicode = 0138;
},
{
glyphname = l;
lastChange = "2020-05-24 20:10:51 +0000";
layers = (
{
anchors = (
{
name = bottom;
position = "{252, 0}";
},
{
name = center;
position = "{172, 767}";
},
{
name = top;
position = "{168, 1563}";
},
{
name = topright;
position = "{313, 1391}";
}
);
layerId = "A1A0948C-E637-4A65-8CCC-05505AD98C44";
paths = (
{
closed = 1;
nodes = (
"353 -7 OFFCURVE",
"385 -3 OFFCURVE",
"400 0 CURVE",
"400 28 LINE",
"385 25 OFFCURVE",
"353 21 OFFCURVE",
"321 21 CURVE SMOOTH",
"261 21 OFFCURVE",
"188 42 OFFCURVE",
"188 186 CURVE SMOOTH",
"188 203 OFFCURVE",
"188 222 OFFCURVE",
"188 244 CURVE SMOOTH",
"188 1563 LINE",
"158 1563 LINE",
"158 252 LINE SMOOTH",
"158 228 OFFCURVE",
"158 207 OFFCURVE",
"158 188 CURVE SMOOTH",
"158 9 OFFCURVE",
"252 -7 OFFCURVE",
"320 -7 CURVE SMOOTH"
);
}
);
width = 450;
},
{
anchors = (
{
name = bottom;
position = "{382, -20}";
},
{
name = center;
position = "{362, 767}";
},
{
name = top;
position = "{273, 1563}";
},
{
name = topright;
position = "{511, 1082}";
}
);
layerId = "584F9D0D-8480-40C6-ABEA-8DD6EE64252D";
paths = (
{
closed = 1;
nodes = (
"568 -26 OFFCURVE",
"645 -10 OFFCURVE",
"684 1 CURVE",
"684 293 LINE",
"657 281 OFFCURVE",
"615 271 OFFCURVE",
"570 271 CURVE SMOOTH",
"498 271 OFFCURVE",
"478 297 OFFCURVE",
"478 388 CURVE SMOOTH",
"478 400 OFFCURVE",
"478 414 OFFCURVE",
"478 430 CURVE SMOOTH",
"478 1563 LINE",
"74 1563 LINE",
"74 415 LINE SMOOTH",
"74 382 OFFCURVE",
"74 353 OFFCURVE",
"74 326 CURVE SMOOTH",
"74 8 OFFCURVE",
"298 -26 OFFCURVE",
"489 -26 CURVE SMOOTH"
);
}
);
width = 704;
},
{
anchors = (
{
name = bottom;
position = "{307, -20}";
},
{
name = center;
position = "{412, 767}";
},
{
name = top;
position = "{498, 1563}";
},
{
name = topright;
position = "{586, 1082}";
}
);
layerId = "3FDD6C00-F7FD-4E85-84B0-0136AF7D7529";
paths = (
{
closed = 1;
nodes = (
"461 -26 OFFCURVE",
"530 -11 OFFCURVE",
"571 1 CURVE",
"633 293 LINE",
"604 281 OFFCURVE",
"560 271 OFFCURVE",
"515 271 CURVE SMOOTH",
"462 271 OFFCURVE",
"435 282 OFFCURVE",
"435 317 CURVE SMOOTH",
"435 343 OFFCURVE",
"438 359 OFFCURVE",
"453 430 CURVE SMOOTH",
"697 1563 LINE",
"293 1563 LINE",
"46 415 LINE SMOOTH",
"29 334 OFFCURVE",
"19 282 OFFCURVE",
"19 228 CURVE SMOOTH",
"19 2 OFFCURVE",
"213 -26 OFFCURVE",
"362 -26 CURVE SMOOTH"
);
}
);
width = 704;
},
{
anchors = (
{
name = bottom;
position = "{139, 0}";
},
{
name = center;
position = "{302, 767}";
},
{
name = top;
position = "{390, 1563}";
},
{
name = topright;
position = "{494, 1391}";
}
);
layerId = "2503C51C-5A6C-4B2C-A968-78FEA18C2585";
paths = (
{
closed = 1;
nodes = (
"235 -7 OFFCURVE",
"268 -3 OFFCURVE",
"284 0 CURVE",
"290 28 LINE",
"274 25 OFFCURVE",
"241 21 OFFCURVE",
"209 21 CURVE SMOOTH",
"161 21 OFFCURVE",
"102 34 OFFCURVE",
"102 114 CURVE SMOOTH",
"102 143 OFFCURVE",
"106 164 OFFCURVE",
"111 186 CURVE SMOOTH",
"404 1563 LINE",
"374 1563 LINE",
"82 188 LINE SMOOTH",
"77 164 OFFCURVE",
"73 143 OFFCURVE",
"73 114 CURVE SMOOTH",
"73 5 OFFCURVE",
"147 -7 OFFCURVE",
"202 -7 CURVE SMOOTH"
);
}
);
width = 450;
}
);
leftKerningGroup = h;
leftMetricsKey = h;
rightKerningGroup = l;
unicode = 006C;
},
{
glyphname = l.ss01;
lastChange = "2020-05-24 20:06:26 +0000";
layers = (
{
anchors = (
{
name = bottom;
position = "{171, 0}";
},
{
name = center;
position = "{171, 782}";
},
{
name = top;
position = "{171, 1563}";
},
{
name = topright;
position = "{245, 1062}";
}
);
layerId = "A1A0948C-E637-4A65-8CCC-05505AD98C44";
paths = (
{
closed = 1;
nodes = (
"158 1563 LINE",
"158 0 LINE",
"188 0 LINE",
"188 1563 LINE"
);
}
);
width = 404;
},
{
anchors = (
{
name = bottom;
position = "{267, 0}";
},
{
name = center;
position = "{267, 782}";
},
{
name = top;
position = "{267, 1563}";
},
{
name = topright;
position = "{517, 1062}";
}
);
layerId = "584F9D0D-8480-40C6-ABEA-8DD6EE64252D";
paths = (
{
closed = 1;
nodes = (
"74 1563 LINE",
"74 0 LINE",
"471 0 LINE",
"471 1563 LINE"
);
}
);
width = 591;
},
{
anchors = (
{
name = bottom;
position = "{153, 0}";
},
{
name = center;
position = "{319, 782}";
},
{
name = top;
position = "{485, 1563}";
},
{
name = topright;
position = "{637, 1062}";
}
);
layerId = "3FDD6C00-F7FD-4E85-84B0-0136AF7D7529";
paths = (
{
closed = 1;
nodes = (
"290 1563 LINE",
"-42 0 LINE",
"359 0 LINE",
"691 1563 LINE"
);
}
);
width = 592;
},
{
anchors = (
{
name = bottom;
position = "{56, 0}";
},
{
name = center;
position = "{222, 782}";
},
{
name = top;
position = "{388, 1563}";
},
{
name = topright;
position = "{359, 1062}";
}
);
layerId = "2503C51C-5A6C-4B2C-A968-78FEA18C2585";
paths = (
{
closed = 1;
nodes = (
"374 1563 LINE",
"42 0 LINE",
"72 0 LINE",
"404 1563 LINE"
);
}
);
width = 431;
}
);
leftKerningGroup = h;
leftMetricsKey = h;
note = l;
},
{
glyphname = lslash;
lastChange = "2020-05-21 00:34:04 +0000";
layers = (
{
components = (
{
name = l;
}
);
layerId = "A1A0948C-E637-4A65-8CCC-05505AD98C44";
paths = (
{
closed = 1;
nodes = (
"7 774 LINE",
"364 1038 LINE",
"342 1062 LINE",
"-15 798 LINE"
);
}
);
width = 404;
},
{
components = (
{
name = l;
}
);
layerId = "584F9D0D-8480-40C6-ABEA-8DD6EE64252D";
paths = (
{
closed = 1;
nodes = (
"-9 575 LINE",
"650 878 LINE",
"552 1086 LINE",
"-107 782 LINE"
);
}
);
width = 591;
},
{
components = (
{
name = l;
}
);
layerId = "3FDD6C00-F7FD-4E85-84B0-0136AF7D7529";
paths = (
{
closed = 1;
nodes = (
"0 575 LINE",
"723 878 LINE",
"669 1086 LINE",
"-54 782 LINE"
);
}
);
width = 592;
},
{
components = (
{
name = l;
}
);
layerId = "2503C51C-5A6C-4B2C-A968-78FEA18C2585";
paths = (
{
closed = 1;
nodes = (
"56 774 LINE",
"470 1038 LINE",
"453 1062 LINE",
"39 798 LINE"
);
}
);
width = 431;
}
);
leftKerningGroup = lslash;
rightKerningGroup = lslash;
unicode = 0142;
},
{
glyphname = m;
lastChange = "2020-05-25 15:15:18 +0000";
layers = (
{
anchors = (
{
name = bottom;
position = "{819, 0}";
},
{
name = top;
position = "{837, 1075}";
}
);
layerId = "A1A0948C-E637-4A65-8CCC-05505AD98C44";
paths = (
{
closed = 1;
nodes = (
"831 0 LINE",
"831 523 LINE SMOOTH",
"831 602 OFFCURVE",
"831 673 OFFCURVE",
"831 723 CURVE SMOOTH",
"831 945 OFFCURVE",
"756 1075 OFFCURVE",
"537 1075 CURVE SMOOTH",
"297 1075 OFFCURVE",
"160 879 OFFCURVE",
"160 671 CURVE",
"188 662 LINE",
"188 788 OFFCURVE",
"269 1047 OFFCURVE",
"538 1047 CURVE SMOOTH",
"789 1047 OFFCURVE",
"801 822 OFFCURVE",
"801 719 CURVE SMOOTH",
"801 677 OFFCURVE",
"801 614 OFFCURVE",
"801 526 CURVE SMOOTH",
"801 0 LINE"
);
},
{
closed = 1;
nodes = (
"188 0 LINE",
"188 1062 LINE",
"158 1062 LINE",
"158 0 LINE"
);
},
{
closed = 1;
nodes = (
"1473 0 LINE",
"1473 551 LINE SMOOTH",
"1473 624 OFFCURVE",
"1473 699 OFFCURVE",
"1473 750 CURVE SMOOTH",
"1473 970 OFFCURVE",
"1372 1075 OFFCURVE",
"1173 1075 CURVE SMOOTH",
"931 1075 OFFCURVE",
"803 881 OFFCURVE",
"803 692 CURVE",
"831 687 LINE",
"831 787 OFFCURVE",
"901 1047 OFFCURVE",
"1174 1047 CURVE SMOOTH",
"1441 1047 OFFCURVE",
"1443 818 OFFCURVE",
"1443 726 CURVE SMOOTH",
"1443 681 OFFCURVE",
"1443 627 OFFCURVE",
"1443 528 CURVE SMOOTH",
"1443 0 LINE"
);
}
);
width = 1663;
},
{
anchors = (
{
name = bottom;
position = "{956, 0}";
},
{
name = top;
position = "{982, 1084}";
}
);
layerId = "584F9D0D-8480-40C6-ABEA-8DD6EE64252D";
paths = (
{
closed = 1;
nodes = (
"1144 0 LINE",
"1144 330 LINE",
"1144 485 OFFCURVE",
"1144 591 OFFCURVE",
"1144 651 CURVE SMOOTH",
"1144 878 OFFCURVE",
"1083 1084 OFFCURVE",
"803 1084 CURVE SMOOTH",
"550 1084 OFFCURVE",
"400 903 OFFCURVE",
"400 612 CURVE",
"477 522 LINE",
"477 659 OFFCURVE",
"525 751 OFFCURVE",
"619 751 CURVE SMOOTH",
"730 751 OFFCURVE",
"744 650 OFFCURVE",
"744 542 CURVE SMOOTH",
"744 504 OFFCURVE",
"744 447 OFFCURVE",
"744 373 CURVE",
"744 0 LINE"
);
},
{
closed = 1;
nodes = (
"477 0 LINE",
"477 1062 LINE",
"74 1062 LINE",
"74 0 LINE"
);
},
{
closed = 1;
nodes = (
"1812 0 LINE",
"1812 333 LINE",
"1812 489 OFFCURVE",
"1812 588 OFFCURVE",
"1812 651 CURVE SMOOTH",
"1812 878 OFFCURVE",
"1748 1084 OFFCURVE",
"1469 1084 CURVE SMOOTH",
"1216 1084 OFFCURVE",
"1067 903 OFFCURVE",
"1067 612 CURVE",
"1144 522 LINE",
"1144 659 OFFCURVE",
"1191 751 OFFCURVE",
"1285 751 CURVE SMOOTH",
"1390 751 OFFCURVE",
"1409 666 OFFCURVE",
"1409 542 CURVE SMOOTH",
"1409 505 OFFCURVE",
"1409 446 OFFCURVE",
"1409 371 CURVE",
"1409 0 LINE"
);
}
);
width = 1882;
},
{
anchors = (
{
name = bottom;
position = "{845, 0}";
},
{
name = top;
position = "{1093, 1084}";
}
);
layerId = "3FDD6C00-F7FD-4E85-84B0-0136AF7D7529";
paths = (
{
closed = 1;
nodes = (
"1028 0 LINE",
"1098 330 LINE",
"1153 587 OFFCURVE",
"1178 707 OFFCURVE",
"1178 801 CURVE SMOOTH",
"1178 957 OFFCURVE",
"1111 1084 OFFCURVE",
"895 1084 CURVE SMOOTH",
"642 1084 OFFCURVE",
"476 903 OFFCURVE",
"414 612 CURVE",
"471 522 LINE",
"500 659 OFFCURVE",
"569 751 OFFCURVE",
"663 751 CURVE SMOOTH",
"735 751 OFFCURVE",
"753 708 OFFCURVE",
"753 648 CURVE SMOOTH",
"753 597 OFFCURVE",
"738 513 OFFCURVE",
"707 370 CURVE",
"628 0 LINE"
);
},
{
closed = 1;
nodes = (
"361 0 LINE",
"587 1062 LINE",
"184 1062 LINE",
"-42 0 LINE"
);
},
{
closed = 1;
nodes = (
"1696 0 LINE",
"1771 333 LINE",
"1825 590 OFFCURVE",
"1845 697 OFFCURVE",
"1845 798 CURVE SMOOTH",
"1845 956 OFFCURVE",
"1777 1084 OFFCURVE",
"1561 1084 CURVE SMOOTH",
"1308 1084 OFFCURVE",
"1143 903 OFFCURVE",
"1081 612 CURVE",
"1138 522 LINE",
"1167 659 OFFCURVE",
"1235 751 OFFCURVE",
"1329 751 CURVE SMOOTH",
"1399 751 OFFCURVE",
"1420 713 OFFCURVE",
"1420 651 CURVE SMOOTH",
"1420 602 OFFCURVE",
"1404 522 OFFCURVE",
"1372 371 CURVE",
"1293 0 LINE"
);
}
);
width = 1886;
},
{
anchors = (
{
name = bottom;
position = "{699, 0}";
},
{
name = top;
position = "{940, 1075}";
}
);
layerId = "2503C51C-5A6C-4B2C-A968-78FEA18C2585";
paths = (
{
closed = 1;
nodes = (
"715 0 LINE",
"854 653 LINE SMOOTH",
"871 732 OFFCURVE",
"885 803 OFFCURVE",
"885 853 CURVE SMOOTH",
"885 994 OFFCURVE",
"813 1075 OFFCURVE",
"641 1075 CURVE SMOOTH",
"401 1075 OFFCURVE",
"231 881 OFFCURVE",
"186 673 CURVE",
"212 662 LINE",
"238 788 OFFCURVE",
"375 1047 OFFCURVE",
"644 1047 CURVE SMOOTH",
"813 1047 OFFCURVE",
"854 944 OFFCURVE",
"854 846 CURVE SMOOTH",
"854 804 OFFCURVE",
"843 741 OFFCURVE",
"824 653 CURVE SMOOTH",
"685 0 LINE"
);
},
{
closed = 1;
nodes = (
"72 0 LINE",
"298 1062 LINE",
"268 1062 LINE",
"42 0 LINE"
);
},
{
closed = 1;
nodes = (
"1357 0 LINE",
"1496 653 LINE SMOOTH",
"1512 726 OFFCURVE",
"1526 791 OFFCURVE",
"1526 852 CURVE SMOOTH",
"1526 1002 OFFCURVE",
"1442 1075 OFFCURVE",
"1277 1075 CURVE SMOOTH",
"1035 1075 OFFCURVE",
"875 883 OFFCURVE",
"835 694 CURVE",
"861 687 LINE",
"882 787 OFFCURVE",
"1007 1047 OFFCURVE",
"1280 1047 CURVE SMOOTH",
"1457 1047 OFFCURVE",
"1494 945 OFFCURVE",
"1494 851 CURVE SMOOTH",
"1494 806 OFFCURVE",
"1487 752 OFFCURVE",
"1466 653 CURVE SMOOTH",
"1327 0 LINE"
);
}
);
width = 1663;
}
);
leftKerningGroup = n;
leftMetricsKey = h;
note = m;
rightKerningGroup = n;
rightMetricsKey = h;
unicode = 006D;
},
{
glyphname = n;
lastChange = "2020-05-24 19:57:04 +0000";
layers = (
{
anchors = (
{
name = bottom;
position = "{557, 0}";
},
{
name = top;
position = "{579, 1075}";
}
);
layerId = "A1A0948C-E637-4A65-8CCC-05505AD98C44";
paths = (
{
closed = 1;
nodes = (
"928 0 LINE",
"928 563 LINE SMOOTH",
"928 596 OFFCURVE",
"928 657 OFFCURVE",
"928 707 CURVE SMOOTH",
"928 947 OFFCURVE",
"817 1075 OFFCURVE",
"586 1075 CURVE SMOOTH",
"383 1075 OFFCURVE",
"159 927 OFFCURVE",
"159 701 CURVE",
"188 690 LINE",
"188 898 OFFCURVE",
"392 1047 OFFCURVE",
"589 1047 CURVE SMOOTH",
"812 1047 OFFCURVE",
"898 906 OFFCURVE",
"898 707 CURVE SMOOTH",
"898 668 OFFCURVE",
"898 639 OFFCURVE",
"898 566 CURVE SMOOTH",
"898 0 LINE"
);
},
{
closed = 1;
nodes = (
"188 0 LINE",
"188 1062 LINE",
"158 1062 LINE",
"158 0 LINE"
);
}
);
width = 1118;
},
{
anchors = (
{
name = bottom;
position = "{631, 0}";
},
{
name = top;
position = "{658, 1084}";
}
);
layerId = "584F9D0D-8480-40C6-ABEA-8DD6EE64252D";
paths = (
{
closed = 1;
nodes = (
"1216 0 LINE",
"1216 375 LINE SMOOTH",
"1216 480 OFFCURVE",
"1216 577 OFFCURVE",
"1216 651 CURVE SMOOTH",
"1216 903 OFFCURVE",
"1120 1084 OFFCURVE",
"849 1084 CURVE SMOOTH",
"593 1084 OFFCURVE",
"399 903 OFFCURVE",
"399 612 CURVE",
"477 532 LINE",
"477 669 OFFCURVE",
"527 751 OFFCURVE",
"654 751 CURVE SMOOTH",
"799 751 OFFCURVE",
"813 641 OFFCURVE",
"813 532 CURVE SMOOTH",
"813 501 OFFCURVE",
"813 455 OFFCURVE",
"813 413 CURVE SMOOTH",
"813 0 LINE"
);
},
{
closed = 1;
nodes = (
"477 0 LINE",
"477 1062 LINE",
"74 1062 LINE",
"74 0 LINE"
);
}
);
width = 1286;
},
{
anchors = (
{
name = bottom;
position = "{527, 0}";
},
{
name = top;
position = "{770, 1084}";
}
);
layerId = "3FDD6C00-F7FD-4E85-84B0-0136AF7D7529";
paths = (
{
closed = 1;
nodes = (
"1100 0 LINE",
"1182 375 LINE SMOOTH",
"1226 577 OFFCURVE",
"1253 704 OFFCURVE",
"1253 793 CURVE SMOOTH",
"1253 969 OFFCURVE",
"1162 1084 OFFCURVE",
"944 1084 CURVE SMOOTH",
"688 1084 OFFCURVE",
"475 903 OFFCURVE",
"413 612 CURVE",
"473 532 LINE",
"502 669 OFFCURVE",
"571 751 OFFCURVE",
"698 751 CURVE SMOOTH",
"796 751 OFFCURVE",
"823 700 OFFCURVE",
"823 634 CURVE SMOOTH",
"823 588 OFFCURVE",
"811 523 OFFCURVE",
"787 413 CURVE SMOOTH",
"697 0 LINE"
);
},
{
closed = 1;
nodes = (
"361 0 LINE",
"587 1062 LINE",
"184 1062 LINE",
"-42 0 LINE"
);
}
);
width = 1289;
},
{
anchors = (
{
name = bottom;
position = "{442, 0}";
},
{
name = top;
position = "{702, 1075}";
}
);
layerId = "2503C51C-5A6C-4B2C-A968-78FEA18C2585";
paths = (
{
closed = 1;
nodes = (
"812 0 LINE",
"957 684 LINE SMOOTH",
"964 717 OFFCURVE",
"976 778 OFFCURVE",
"976 828 CURVE SMOOTH",
"976 989 OFFCURVE",
"883 1075 OFFCURVE",
"695 1075 CURVE SMOOTH",
"492 1075 OFFCURVE",
"245 935 OFFCURVE",
"192 701 CURVE",
"218 690 LINE",
"262 898 OFFCURVE",
"496 1047 OFFCURVE",
"693 1047 CURVE SMOOTH",
"871 1047 OFFCURVE",
"945 964 OFFCURVE",
"945 825 CURVE SMOOTH",
"945 786 OFFCURVE",
"942 757 OFFCURVE",
"927 684 CURVE SMOOTH",
"782 0 LINE"
);
},
{
closed = 1;
nodes = (
"72 0 LINE",
"298 1062 LINE",
"268 1062 LINE",
"42 0 LINE"
);
}
);
width = 1118;
}
);
leftKerningGroup = n;
leftMetricsKey = h;
note = n;
rightKerningGroup = n;
rightMetricsKey = h;
unicode = 006E;
},
{
glyphname = eng;
lastChange = "2020-05-24 20:29:35 +0000";
layers = (
{
components = (
{
name = n;
}
);
layerId = "A1A0948C-E637-4A65-8CCC-05505AD98C44";
paths = (
{
closed = 1;
nodes = (
"898 -96 LINE SMOOTH",
"898 -236 OFFCURVE",
"859 -407 OFFCURVE",
"635 -407 CURVE SMOOTH",
"594 -407 OFFCURVE",
"555 -399 OFFCURVE",
"537 -393 CURVE",
"537 -422 LINE",
"553 -428 OFFCURVE",
"590 -435 OFFCURVE",
"635 -435 CURVE SMOOTH",
"906 -435 OFFCURVE",
"928 -224 OFFCURVE",
"928 -96 CURVE SMOOTH",
"928 0 LINE",
"898 0 LINE"
);
}
);
width = 1118;
},
{
components = (
{
name = n;
}
);
layerId = "584F9D0D-8480-40C6-ABEA-8DD6EE64252D";
paths = (
{
closed = 1;
nodes = (
"813 -9 LINE SMOOTH",
"813 -92 OFFCURVE",
"786 -144 OFFCURVE",
"681 -144 CURVE SMOOTH",
"637 -144 OFFCURVE",
"599 -141 OFFCURVE",
"583 -138 CURVE",
"583 -428 LINE",
"599 -431 OFFCURVE",
"636 -435 OFFCURVE",
"681 -435 CURVE SMOOTH",
"1104 -435 OFFCURVE",
"1216 -186 OFFCURVE",
"1216 -9 CURVE SMOOTH",
"1216 0 LINE",
"813 0 LINE"
);
}
);
width = 1286;
},
{
components = (
{
name = n;
}
);
layerId = "3FDD6C00-F7FD-4E85-84B0-0136AF7D7529";
paths = (
{
closed = 1;
nodes = (
"694 -13 LINE SMOOTH",
"672 -109 OFFCURVE",
"617 -144 OFFCURVE",
"527 -144 CURVE SMOOTH",
"484 -144 OFFCURVE",
"447 -141 OFFCURVE",
"431 -138 CURVE",
"379 -428 LINE",
"394 -431 OFFCURVE",
"430 -435 OFFCURVE",
"475 -435 CURVE SMOOTH",
"889 -435 OFFCURVE",
"1059 -191 OFFCURVE",
"1097 -14 CURVE SMOOTH",
"1100 0 LINE",
"697 0 LINE"
);
}
);
width = 1289;
},
{
components = (
{
name = n;
}
);
layerId = "2503C51C-5A6C-4B2C-A968-78FEA18C2585";
paths = (
{
closed = 1;
nodes = (
"763 -94 LINE SMOOTH",
"732 -234 OFFCURVE",
"659 -407 OFFCURVE",
"438 -407 CURVE SMOOTH",
"400 -407 OFFCURVE",
"363 -401 OFFCURVE",
"345 -396 CURVE",
"341 -422 LINE",
"356 -428 OFFCURVE",
"392 -435 OFFCURVE",
"437 -435 CURVE SMOOTH",
"681 -435 OFFCURVE",
"758 -261 OFFCURVE",
"793 -98 CURVE SMOOTH",
"814 0 LINE",
"784 0 LINE"
);
}
);
width = 1120;
}
);
leftKerningGroup = n;
leftMetricsKey = n;
rightKerningGroup = n;
rightMetricsKey = n;
unicode = 014B;
},
{
glyphname = o;
lastChange = "2020-05-25 15:29:59 +0000";
layers = (
{
anchors = (
{
name = bottom;
position = "{645, -16}";
},
{
name = center;
position = "{647, 531}";
},
{
name = ogonek;
position = "{735, -2}";
},
{
name = top;
position = "{647, 1062}";
},
{
name = topright;
position = "{987, 929}";
}
);
layerId = "A1A0948C-E637-4A65-8CCC-05505AD98C44";
paths = (
{
closed = 1;
nodes = (
"941 -15 OFFCURVE",
"1152 222 OFFCURVE",
"1152 533 CURVE SMOOTH",
"1152 844 OFFCURVE",
"941 1073 OFFCURVE",
"645 1073 CURVE SMOOTH",
"349 1073 OFFCURVE",
"138 844 OFFCURVE",
"138 533 CURVE SMOOTH",
"138 222 OFFCURVE",
"349 -15 OFFCURVE",
"645 -15 CURVE SMOOTH"
);
},
{
closed = 1;
nodes = (
"368 13 OFFCURVE",
"169 243 OFFCURVE",
"169 533 CURVE SMOOTH",
"169 823 OFFCURVE",
"368 1045 OFFCURVE",
"645 1045 CURVE SMOOTH",
"922 1045 OFFCURVE",
"1121 823 OFFCURVE",
"1121 533 CURVE SMOOTH",
"1121 243 OFFCURVE",
"922 13 OFFCURVE",
"645 13 CURVE SMOOTH"
);
}
);
width = 1295;
},
{
anchors = (
{
name = bottom;
position = "{664, -25}";
},
{
name = center;
position = "{664, 531}";
},
{
name = ogonek;
position = "{761, 10}";
},
{
name = top;
position = "{664, 1083}";
},
{
name = topright;
position = "{934, 1023}";
}
);
layerId = "584F9D0D-8480-40C6-ABEA-8DD6EE64252D";
paths = (
{
closed = 1;
nodes = (
"1024 -26 OFFCURVE",
"1270 200 OFFCURVE",
"1270 530 CURVE SMOOTH",
"1270 860 OFFCURVE",
"1024 1084 OFFCURVE",
"664 1084 CURVE SMOOTH",
"304 1084 OFFCURVE",
"58 860 OFFCURVE",
"58 530 CURVE SMOOTH",
"58 200 OFFCURVE",
"304 -26 OFFCURVE",
"664 -26 CURVE SMOOTH"
);
},
{
closed = 1;
nodes = (
"541 280 OFFCURVE",
"463 378 OFFCURVE",
"463 530 CURVE SMOOTH",
"463 682 OFFCURVE",
"541 778 OFFCURVE",
"664 778 CURVE SMOOTH",
"787 778 OFFCURVE",
"865 682 OFFCURVE",
"865 530 CURVE SMOOTH",
"865 378 OFFCURVE",
"787 280 OFFCURVE",
"664 280 CURVE SMOOTH"
);
}
);
width = 1328;
},
{
anchors = (
{
name = bottom;
position = "{568, -25}";
},
{
name = center;
position = "{655, 531}";
},
{
name = ogonek;
position = "{675, 10}";
},
{
name = top;
position = "{758, 1084}";
},
{
name = topright;
position = "{1029, 1023}";
}
);
layerId = "3FDD6C00-F7FD-4E85-84B0-0136AF7D7529";
paths = (
{
closed = 1;
nodes = (
"967 -26 OFFCURVE",
"1278 241 OFFCURVE",
"1278 627 CURVE SMOOTH",
"1278 901 OFFCURVE",
"1072 1084 OFFCURVE",
"750 1084 CURVE SMOOTH",
"360 1084 OFFCURVE",
"50 819 OFFCURVE",
"50 433 CURVE SMOOTH",
"50 159 OFFCURVE",
"256 -26 OFFCURVE",
"578 -26 CURVE SMOOTH"
);
},
{
closed = 1;
nodes = (
"507 280 OFFCURVE",
"458 349 OFFCURVE",
"458 462 CURVE SMOOTH",
"458 634 OFFCURVE",
"557 778 OFFCURVE",
"717 778 CURVE SMOOTH",
"820 778 OFFCURVE",
"871 710 OFFCURVE",
"871 599 CURVE SMOOTH",
"871 428 OFFCURVE",
"770 280 OFFCURVE",
"611 280 CURVE SMOOTH"
);
}
);
width = 1328;
},
{
anchors = (
{
name = bottom;
position = "{532, -16}";
},
{
name = center;
position = "{644, 531}";
},
{
name = ogonek;
position = "{638, -2}";
},
{
name = top;
position = "{764, 1075}";
},
{
name = topright;
position = "{1066, 929}";
}
);
layerId = "2503C51C-5A6C-4B2C-A968-78FEA18C2585";
paths = (
{
closed = 1;
nodes = (
"880 -17 OFFCURVE",
"1162 262 OFFCURVE",
"1162 657 CURVE SMOOTH",
"1162 893 OFFCURVE",
"1016 1075 OFFCURVE",
"758 1075 CURVE SMOOTH",
"402 1075 OFFCURVE",
"135 777 OFFCURVE",
"135 406 CURVE SMOOTH",
"135 154 OFFCURVE",
"282 -17 OFFCURVE",
"538 -17 CURVE SMOOTH"
);
},
{
closed = 1;
nodes = (
"298 11 OFFCURVE",
"167 176 OFFCURVE",
"167 412 CURVE SMOOTH",
"167 760 OFFCURVE",
"421 1047 OFFCURVE",
"758 1047 CURVE SMOOTH",
"998 1047 OFFCURVE",
"1130 877 OFFCURVE",
"1130 650 CURVE SMOOTH",
"1130 272 OFFCURVE",
"860 11 OFFCURVE",
"538 11 CURVE SMOOTH"
);
}
);
width = 1295;
}
);
leftKerningGroup = o;
note = o;
rightKerningGroup = o;
unicode = 006F;
},
{
glyphname = p;
lastChange = "2020-05-25 15:16:04 +0000";
layers = (
{
anchors = (
{
name = bottom;
position = "{588, -17}";
},
{
name = top;
position = "{588, 1075}";
}
);
layerId = "A1A0948C-E637-4A65-8CCC-05505AD98C44";
paths = (
{
closed = 1;
nodes = (
"188 -437 LINE",
"188 1062 LINE",
"158 1062 LINE",
"158 -437 LINE"
);
},
{
closed = 1;
nodes = (
"847 -17 OFFCURVE",
"1022 181 OFFCURVE",
"1022 529 CURVE SMOOTH",
"1022 877 OFFCURVE",
"847 1075 OFFCURVE",
"588 1075 CURVE SMOOTH",
"348 1075 OFFCURVE",
"158 886 OFFCURVE",
"158 675 CURVE",
"188 675 LINE",
"188 872 OFFCURVE",
"372 1047 OFFCURVE",
"588 1047 CURVE SMOOTH",
"828 1047 OFFCURVE",
"991 858 OFFCURVE",
"991 529 CURVE SMOOTH",
"991 200 OFFCURVE",
"828 11 OFFCURVE",
"588 11 CURVE SMOOTH",
"372 11 OFFCURVE",
"188 186 OFFCURVE",
"188 383 CURVE SMOOTH",
"188 385 OFFCURVE",
"188 388 OFFCURVE",
"188 390 CURVE",
"158 390 LINE",
"158 388 OFFCURVE",
"158 385 OFFCURVE",
"158 383 CURVE SMOOTH",
"158 172 OFFCURVE",
"348 -17 OFFCURVE",
"588 -17 CURVE SMOOTH"
);
}
);
width = 1165;
},
{
anchors = (
{
name = bottom;
position = "{778, -26}";
},
{
name = top;
position = "{756, 1084}";
}
);
layerId = "584F9D0D-8480-40C6-ABEA-8DD6EE64252D";
paths = (
{
closed = 1;
nodes = (
"478 -437 LINE",
"478 1062 LINE",
"74 1062 LINE",
"74 -437 LINE"
);
},
{
closed = 1;
nodes = (
"1059 -26 OFFCURVE",
"1294 166 OFFCURVE",
"1294 538 CURVE SMOOTH",
"1294 890 OFFCURVE",
"1049 1084 OFFCURVE",
"792 1084 CURVE SMOOTH",
"537 1084 OFFCURVE",
"336 866 OFFCURVE",
"336 571 CURVE",
"478 561 LINE",
"478 694 OFFCURVE",
"582 757 OFFCURVE",
"676 757 CURVE SMOOTH",
"778 757 OFFCURVE",
"878 695 OFFCURVE",
"878 538 CURVE SMOOTH",
"878 381 OFFCURVE",
"777 314 OFFCURVE",
"676 314 CURVE SMOOTH",
"580 314 OFFCURVE",
"478 382 OFFCURVE",
"478 515 CURVE SMOOTH",
"478 519 OFFCURVE",
"478 524 OFFCURVE",
"478 528 CURVE",
"336 525 LINE",
"336 518 OFFCURVE",
"336 512 OFFCURVE",
"336 505 CURVE SMOOTH",
"336 210 OFFCURVE",
"537 -26 OFFCURVE",
"792 -26 CURVE SMOOTH"
);
}
);
width = 1352;
},
{
anchors = (
{
name = bottom;
position = "{686, -26}";
},
{
name = top;
position = "{907, 1084}";
}
);
layerId = "3FDD6C00-F7FD-4E85-84B0-0136AF7D7529";
paths = (
{
closed = 1;
nodes = (
"270 -437 LINE",
"588 1062 LINE",
"184 1062 LINE",
"-134 -437 LINE"
);
},
{
closed = 1;
nodes = (
"1058 -26 OFFCURVE",
"1295 252 OFFCURVE",
"1295 628 CURVE SMOOTH",
"1295 917 OFFCURVE",
"1126 1084 OFFCURVE",
"885 1084 CURVE SMOOTH",
"630 1084 OFFCURVE",
"405 866 OFFCURVE",
"342 571 CURVE",
"481 561 LINE",
"509 694 OFFCURVE",
"627 757 OFFCURVE",
"721 757 CURVE SMOOTH",
"815 757 OFFCURVE",
"878 706 OFFCURVE",
"878 593 CURVE SMOOTH",
"878 434 OFFCURVE",
"794 314 OFFCURVE",
"627 314 CURVE SMOOTH",
"543 314 OFFCURVE",
"467 366 OFFCURVE",
"467 467 CURVE SMOOTH",
"467 482 OFFCURVE",
"470 512 OFFCURVE",
"474 528 CURVE",
"332 525 LINE",
"323 501 OFFCURVE",
"315 457 OFFCURVE",
"315 386 CURVE SMOOTH",
"315 151 OFFCURVE",
"474 -26 OFFCURVE",
"693 -26 CURVE SMOOTH"
);
}
);
width = 1348;
},
{
anchors = (
{
name = bottom;
position = "{460, -17}";
},
{
name = top;
position = "{687, 1075}";
}
);
layerId = "2503C51C-5A6C-4B2C-A968-78FEA18C2585";
paths = (
{
closed = 1;
nodes = (
"-20 -437 LINE",
"298 1062 LINE",
"268 1062 LINE",
"-50 -437 LINE"
);
},
{
closed = 1;
nodes = (
"821 -17 OFFCURVE",
"1026 295 OFFCURVE",
"1026 664 CURVE SMOOTH",
"1026 920 OFFCURVE",
"924 1075 OFFCURVE",
"696 1075 CURVE SMOOTH",
"456 1075 OFFCURVE",
"232 886 OFFCURVE",
"187 675 CURVE",
"215 675 LINE",
"257 872 OFFCURVE",
"480 1047 OFFCURVE",
"696 1047 CURVE SMOOTH",
"905 1047 OFFCURVE",
"995 902 OFFCURVE",
"995 663 CURVE SMOOTH",
"995 317 OFFCURVE",
"804 11 OFFCURVE",
"476 11 CURVE SMOOTH",
"285 11 OFFCURVE",
"148 148 OFFCURVE",
"148 316 CURVE SMOOTH",
"148 347 OFFCURVE",
"155 388 OFFCURVE",
"155 390 CURVE",
"126 390 LINE",
"126 389 OFFCURVE",
"117 344 OFFCURVE",
"117 311 CURVE SMOOTH",
"117 131 OFFCURVE",
"264 -17 OFFCURVE",
"476 -17 CURVE SMOOTH"
);
}
);
width = 1161;
}
);
leftKerningGroup = p;
leftMetricsKey = h;
note = p;
rightKerningGroup = o;
rightMetricsKey = o;
unicode = 0070;
},
{
glyphname = thorn;
lastChange = "2020-05-23 20:45:43 +0000";
layers = (
{
components = (
{
name = b;
transform = "{1, 0, 0, 1, 1, 0}";
}
);
layerId = "A1A0948C-E637-4A65-8CCC-05505AD98C44";
paths = (
{
closed = 1;
nodes = (
"158 755 LINE",
"158 -437 LINE",
"190 -437 LINE",
"190 755 LINE"
);
}
);
width = 1167;
},
{
components = (
{
name = b;
}
);
layerId = "584F9D0D-8480-40C6-ABEA-8DD6EE64252D";
paths = (
{
closed = 1;
nodes = (
"74 654 LINE",
"74 -437 LINE",
"478 -437 LINE",
"478 654 LINE"
);
}
);
width = 1352;
},
{
components = (
{
name = b;
transform = "{1, 0, 0, 1, 3, 0}";
}
);
layerId = "3FDD6C00-F7FD-4E85-84B0-0136AF7D7529";
paths = (
{
closed = 1;
nodes = (
"96 623 LINE",
"-135 -437 LINE",
"271 -437 LINE",
"527 748 LINE"
);
}
);
width = 1351;
},
{
components = (
{
name = b;
transform = "{1, 0, 0, 1, 5, 0}";
}
);
layerId = "2503C51C-5A6C-4B2C-A968-78FEA18C2585";
paths = (
{
closed = 1;
nodes = (
"211 761 LINE",
"-51 -437 LINE",
"-15 -437 LINE",
"252 812 LINE"
);
}
);
width = 1166;
}
);
leftKerningGroup = h;
leftMetricsKey = b;
note = thorn;
rightKerningGroup = o;
rightMetricsKey = b;
unicode = 00FE;
},
{
glyphname = q;
lastChange = "2020-05-25 15:30:06 +0000";
layers = (
{
anchors = (
{
name = bottom;
position = "{569, -17}";
},
{
name = top;
position = "{569, 1075}";
}
);
layerId = "A1A0948C-E637-4A65-8CCC-05505AD98C44";
paths = (
{
closed = 1;
nodes = (
"1002 -437 LINE",
"1002 1062 LINE",
"972 1062 LINE",
"972 -437 LINE"
);
},
{
closed = 1;
nodes = (
"801 -17 OFFCURVE",
"1002 159 OFFCURVE",
"1002 390 CURVE",
"972 390 LINE",
"972 179 OFFCURVE",
"784 11 OFFCURVE",
"572 11 CURVE SMOOTH",
"332 11 OFFCURVE",
"169 200 OFFCURVE",
"169 529 CURVE SMOOTH",
"169 858 OFFCURVE",
"332 1047 OFFCURVE",
"572 1047 CURVE SMOOTH",
"788 1047 OFFCURVE",
"972 872 OFFCURVE",
"972 675 CURVE SMOOTH",
"972 670 OFFCURVE",
"972 666 OFFCURVE",
"972 661 CURVE",
"1002 657 LINE",
"1002 663 OFFCURVE",
"1002 669 OFFCURVE",
"1002 675 CURVE SMOOTH",
"1002 886 OFFCURVE",
"812 1075 OFFCURVE",
"572 1075 CURVE SMOOTH",
"313 1075 OFFCURVE",
"138 877 OFFCURVE",
"138 529 CURVE SMOOTH",
"138 181 OFFCURVE",
"313 -17 OFFCURVE",
"572 -17 CURVE SMOOTH"
);
}
);
width = 1218;
},
{
anchors = (
{
name = bottom;
position = "{542, -26}";
},
{
name = top;
position = "{550, 1084}";
}
);
layerId = "584F9D0D-8480-40C6-ABEA-8DD6EE64252D";
paths = (
{
closed = 1;
nodes = (
"1278 -437 LINE",
"1278 1062 LINE",
"874 1062 LINE",
"874 -437 LINE"
);
},
{
closed = 1;
nodes = (
"815 -26 OFFCURVE",
"1016 210 OFFCURVE",
"1016 505 CURVE",
"874 515 LINE",
"874 382 OFFCURVE",
"772 314 OFFCURVE",
"676 314 CURVE SMOOTH",
"575 314 OFFCURVE",
"474 381 OFFCURVE",
"474 538 CURVE SMOOTH",
"474 695 OFFCURVE",
"575 757 OFFCURVE",
"676 757 CURVE SMOOTH",
"770 757 OFFCURVE",
"874 694 OFFCURVE",
"874 561 CURVE SMOOTH",
"874 557 OFFCURVE",
"874 552 OFFCURVE",
"874 548 CURVE",
"1016 548 LINE",
"1016 556 OFFCURVE",
"1016 563 OFFCURVE",
"1016 571 CURVE SMOOTH",
"1016 866 OFFCURVE",
"815 1084 OFFCURVE",
"560 1084 CURVE SMOOTH",
"303 1084 OFFCURVE",
"58 890 OFFCURVE",
"58 538 CURVE SMOOTH",
"58 166 OFFCURVE",
"293 -26 OFFCURVE",
"560 -26 CURVE SMOOTH"
);
}
);
width = 1388;
},
{
anchors = (
{
name = bottom;
position = "{427, -26}";
},
{
name = top;
position = "{652, 1084}";
}
);
layerId = "3FDD6C00-F7FD-4E85-84B0-0136AF7D7529";
paths = (
{
closed = 1;
nodes = (
"1065 -437 LINE",
"1383 1062 LINE",
"979 1062 LINE",
"661 -437 LINE"
);
},
{
closed = 1;
nodes = (
"692 -26 OFFCURVE",
"941 210 OFFCURVE",
"1004 505 CURVE",
"864 515 LINE",
"836 382 OFFCURVE",
"719 314 OFFCURVE",
"623 314 CURVE SMOOTH",
"532 314 OFFCURVE",
"466 375 OFFCURVE",
"466 487 CURVE SMOOTH",
"466 642 OFFCURVE",
"567 757 OFFCURVE",
"717 757 CURVE SMOOTH",
"799 757 OFFCURVE",
"879 709 OFFCURVE",
"879 608 CURVE SMOOTH",
"879 593 OFFCURVE",
"875 564 OFFCURVE",
"871 548 CURVE",
"1013 548 LINE",
"1024 591 OFFCURVE",
"1032 654 OFFCURVE",
"1032 697 CURVE SMOOTH",
"1032 923 OFFCURVE",
"886 1084 OFFCURVE",
"669 1084 CURVE SMOOTH",
"315 1084 OFFCURVE",
"47 778 OFFCURVE",
"47 414 CURVE SMOOTH",
"47 130 OFFCURVE",
"198 -26 OFFCURVE",
"437 -26 CURVE SMOOTH"
);
}
);
width = 1388;
},
{
anchors = (
{
name = bottom;
position = "{476, -17}";
},
{
name = top;
position = "{689, 1075}";
}
);
layerId = "2503C51C-5A6C-4B2C-A968-78FEA18C2585";
paths = (
{
closed = 1;
nodes = (
"802 -437 LINE",
"1120 1062 LINE",
"1090 1062 LINE",
"772 -437 LINE"
);
},
{
closed = 1;
nodes = (
"737 -17 OFFCURVE",
"931 173 OFFCURVE",
"976 384 CURVE",
"946 383 LINE",
"904 186 OFFCURVE",
"713 11 OFFCURVE",
"477 11 CURVE SMOOTH",
"269 11 OFFCURVE",
"168 163 OFFCURVE",
"168 389 CURVE SMOOTH",
"168 739 OFFCURVE",
"356 1047 OFFCURVE",
"687 1047 CURVE SMOOTH",
"878 1047 OFFCURVE",
"1015 910 OFFCURVE",
"1015 742 CURVE SMOOTH",
"1015 717 OFFCURVE",
"1011 692 OFFCURVE",
"1005 661 CURVE",
"1033 657 LINE",
"1034 660 OFFCURVE",
"1045 702 OFFCURVE",
"1045 747 CURVE SMOOTH",
"1045 927 OFFCURVE",
"900 1075 OFFCURVE",
"688 1075 CURVE SMOOTH",
"338 1075 OFFCURVE",
"136 760 OFFCURVE",
"136 387 CURVE SMOOTH",
"136 145 OFFCURVE",
"249 -17 OFFCURVE",
"475 -17 CURVE SMOOTH"
);
}
);
width = 1212;
}
);
leftKerningGroup = o;
leftMetricsKey = o;
note = q;
rightKerningGroup = q;
rightMetricsKey = d;
unicode = 0071;
},
{
glyphname = r;
lastChange = "2020-05-24 19:54:38 +0000";
layers = (
{
anchors = (
{
name = bottom;
position = "{174, 0}";
},
{
name = top;
position = "{501, 1075}";
}
);
layerId = "A1A0948C-E637-4A65-8CCC-05505AD98C44";
paths = (
{
closed = 1;
nodes = (
"188 0 LINE",
"188 692 LINE",
"188 817 OFFCURVE",
"336 1047 OFFCURVE",
"565 1047 CURVE SMOOTH",
"649 1047 OFFCURVE",
"697 1027 OFFCURVE",
"711 1018 CURVE",
"725 1044 LINE",
"711 1053 OFFCURVE",
"653 1075 OFFCURVE",
"569 1075 CURVE SMOOTH",
"326 1075 OFFCURVE",
"198 861 OFFCURVE",
"179 776 CURVE",
"188 776 LINE",
"188 1062 LINE",
"158 1062 LINE",
"158 0 LINE"
);
}
);
width = 765;
},
{
anchors = (
{
name = bottom;
position = "{274, 0}";
},
{
name = top;
position = "{749, 1084}";
}
);
layerId = "584F9D0D-8480-40C6-ABEA-8DD6EE64252D";
paths = (
{
closed = 1;
nodes = (
"478 0 LINE",
"478 448 LINE",
"478 590 OFFCURVE",
"602 716 OFFCURVE",
"810 716 CURVE SMOOTH",
"869 716 OFFCURVE",
"913 697 OFFCURVE",
"925 690 CURVE",
"1000 1062 LINE",
"989 1068 OFFCURVE",
"946 1084 OFFCURVE",
"860 1084 CURVE SMOOTH",
"653 1084 OFFCURVE",
"489 949 OFFCURVE",
"449 723 CURVE",
"478 669 LINE",
"478 1062 LINE",
"74 1062 LINE",
"74 0 LINE"
);
}
);
width = 1005;
},
{
anchors = (
{
name = bottom;
position = "{167, 0}";
},
{
name = top;
position = "{847, 1084}";
}
);
layerId = "3FDD6C00-F7FD-4E85-84B0-0136AF7D7529";
paths = (
{
closed = 1;
nodes = (
"363 0 LINE",
"458 450 LINE",
"488 592 OFFCURVE",
"642 716 OFFCURVE",
"850 716 CURVE SMOOTH",
"909 716 OFFCURVE",
"949 697 OFFCURVE",
"959 690 CURVE",
"1110 1062 LINE",
"1101 1068 OFFCURVE",
"1063 1084 OFFCURVE",
"977 1084 CURVE SMOOTH",
"770 1084 OFFCURVE",
"575 949 OFFCURVE",
"487 723 CURVE",
"505 669 LINE",
"588 1062 LINE",
"184 1062 LINE",
"-41 0 LINE"
);
}
);
width = 1005;
},
{
anchors = (
{
name = bottom;
position = "{56, 0}";
},
{
name = top;
position = "{596, 1075}";
}
);
layerId = "2503C51C-5A6C-4B2C-A968-78FEA18C2585";
paths = (
{
closed = 1;
nodes = (
"73 0 LINE",
"220 692 LINE",
"246 817 OFFCURVE",
"443 1047 OFFCURVE",
"672 1047 CURVE SMOOTH",
"756 1047 OFFCURVE",
"798 1026 OFFCURVE",
"812 1018 CURVE",
"831 1044 LINE",
"817 1052 OFFCURVE",
"757 1075 OFFCURVE",
"673 1075 CURVE SMOOTH",
"430 1075 OFFCURVE",
"259 861 OFFCURVE",
"225 776 CURVE",
"238 776 LINE",
"298 1062 LINE",
"268 1062 LINE",
"43 0 LINE"
);
}
);
width = 765;
}
);
leftKerningGroup = n;
leftMetricsKey = h;
note = r;
rightKerningGroup = r;
unicode = 0072;
},
{
glyphname = s;
lastChange = "2020-05-25 15:30:06 +0000";
layers = (
{
anchors = (
{
name = bottom;
position = "{543, -12}";
},
{
name = top;
position = "{543, 1075}";
}
);
layerId = "A1A0948C-E637-4A65-8CCC-05505AD98C44";
paths = (
{
closed = 1;
nodes = (
"787 -17 OFFCURVE",
"945 86 OFFCURVE",
"945 256 CURVE SMOOTH",
"945 434 OFFCURVE",
"812 497 OFFCURVE",
"549 546 CURVE SMOOTH",
"334 586 OFFCURVE",
"188 642 OFFCURVE",
"188 807 CURVE SMOOTH",
"188 967 OFFCURVE",
"350 1047 OFFCURVE",
"543 1047 CURVE SMOOTH",
"728 1047 OFFCURVE",
"894 984 OFFCURVE",
"894 783 CURVE SMOOTH",
"894 776 OFFCURVE",
"894 766 OFFCURVE",
"894 759 CURVE",
"925 759 LINE",
"925 767 OFFCURVE",
"925 777 OFFCURVE",
"925 784 CURVE SMOOTH",
"925 994 OFFCURVE",
"752 1075 OFFCURVE",
"539 1075 CURVE SMOOTH",
"334 1075 OFFCURVE",
"157 980 OFFCURVE",
"157 808 CURVE SMOOTH",
"157 623 OFFCURVE",
"309 560 OFFCURVE",
"545 518 CURVE SMOOTH",
"782 476 OFFCURVE",
"914 421 OFFCURVE",
"914 256 CURVE SMOOTH",
"914 106 OFFCURVE",
"769 11 OFFCURVE",
"540 11 CURVE SMOOTH",
"311 11 OFFCURVE",
"179 104 OFFCURVE",
"170 259 CURVE SMOOTH",
"169 275 OFFCURVE",
"169 293 OFFCURVE",
"169 305 CURVE",
"138 305 LINE",
"138 293 OFFCURVE",
"138 276 OFFCURVE",
"139 261 CURVE SMOOTH",
"150 88 OFFCURVE",
"284 -17 OFFCURVE",
"542 -17 CURVE SMOOTH"
);
}
);
width = 1088;
},
{
anchors = (
{
name = bottom;
position = "{581, -17}";
},
{
name = top;
position = "{581, 1084}";
}
);
layerId = "584F9D0D-8480-40C6-ABEA-8DD6EE64252D";
paths = (
{
closed = 1;
nodes = (
"822 -26 OFFCURVE",
"1102 66 OFFCURVE",
"1102 335 CURVE SMOOTH",
"1102 585 OFFCURVE",
"801 643 OFFCURVE",
"650 665 CURVE SMOOTH",
"539 681 OFFCURVE",
"465 700 OFFCURVE",
"465 740 CURVE SMOOTH",
"465 785 OFFCURVE",
"539 796 OFFCURVE",
"580 796 CURVE SMOOTH",
"631 796 OFFCURVE",
"693 774 OFFCURVE",
"693 719 CURVE",
"693 716 OFFCURVE",
"693 712 OFFCURVE",
"693 709 CURVE",
"1088 709 LINE",
"1088 712 OFFCURVE",
"1088 716 OFFCURVE",
"1088 719 CURVE",
"1088 943 OFFCURVE",
"844 1084 OFFCURVE",
"583 1084 CURVE SMOOTH",
"307 1084 OFFCURVE",
"71 965 OFFCURVE",
"71 733 CURVE SMOOTH",
"71 507 OFFCURVE",
"347 415 OFFCURVE",
"529 396 CURVE SMOOTH",
"680 380 OFFCURVE",
"713 369 OFFCURVE",
"713 325 CURVE SMOOTH",
"713 280 OFFCURVE",
"634 265 OFFCURVE",
"590 265 CURVE SMOOTH",
"508 265 OFFCURVE",
"457 285 OFFCURVE",
"457 341 CURVE",
"457 344 OFFCURVE",
"457 348 OFFCURVE",
"457 351 CURVE",
"58 351 LINE",
"58 348 OFFCURVE",
"58 344 OFFCURVE",
"58 341 CURVE",
"58 93 OFFCURVE",
"328 -26 OFFCURVE",
"578 -26 CURVE SMOOTH"
);
}
);
width = 1160;
},
{
anchors = (
{
name = bottom;
position = "{464, -17}";
},
{
name = top;
position = "{687, 1084}";
}
);
layerId = "3FDD6C00-F7FD-4E85-84B0-0136AF7D7529";
paths = (
{
closed = 1;
nodes = (
"770 -26 OFFCURVE",
"1062 106 OFFCURVE",
"1062 385 CURVE SMOOTH",
"1062 595 OFFCURVE",
"802 645 OFFCURVE",
"666 665 CURVE SMOOTH",
"565 680 OFFCURVE",
"506 698 OFFCURVE",
"506 732 CURVE SMOOTH",
"506 784 OFFCURVE",
"591 796 OFFCURVE",
"634 796 CURVE SMOOTH",
"680 796 OFFCURVE",
"732 778 OFFCURVE",
"732 733 CURVE SMOOTH",
"732 724 OFFCURVE",
"730 714 OFFCURVE",
"728 709 CURVE",
"1123 709 LINE",
"1126 721 OFFCURVE",
"1131 751 OFFCURVE",
"1131 775 CURVE SMOOTH",
"1131 966 OFFCURVE",
"907 1084 OFFCURVE",
"678 1084 CURVE SMOOTH",
"387 1084 OFFCURVE",
"109 963 OFFCURVE",
"109 698 CURVE SMOOTH",
"109 495 OFFCURVE",
"339 414 OFFCURVE",
"508 396 CURVE SMOOTH",
"637 382 OFFCURVE",
"669 372 OFFCURVE",
"669 340 CURVE SMOOTH",
"669 283 OFFCURVE",
"586 265 OFFCURVE",
"531 265 CURVE SMOOTH",
"458 265 OFFCURVE",
"412 281 OFFCURVE",
"412 325 CURVE SMOOTH",
"412 333 OFFCURVE",
"414 343 OFFCURVE",
"416 351 CURVE",
"17 351 LINE",
"13 336 OFFCURVE",
"8 309 OFFCURVE",
"8 281 CURVE SMOOTH",
"8 74 OFFCURVE",
"257 -26 OFFCURVE",
"477 -26 CURVE SMOOTH"
);
}
);
width = 1156;
},
{
anchors = (
{
name = bottom;
position = "{432, -12}";
},
{
name = top;
position = "{653, 1075}";
}
);
layerId = "2503C51C-5A6C-4B2C-A968-78FEA18C2585";
paths = (
{
closed = 1;
nodes = (
"685 -17 OFFCURVE",
"901 96 OFFCURVE",
"901 316 CURVE SMOOTH",
"901 450 OFFCURVE",
"779 506 OFFCURVE",
"558 546 CURVE SMOOTH",
"373 580 OFFCURVE",
"248 630 OFFCURVE",
"248 758 CURVE SMOOTH",
"248 947 OFFCURVE",
"448 1047 OFFCURVE",
"660 1047 CURVE SMOOTH",
"824 1047 OFFCURVE",
"962 997 OFFCURVE",
"962 847 CURVE SMOOTH",
"962 804 OFFCURVE",
"955 777 OFFCURVE",
"950 759 CURVE",
"981 759 LINE",
"986 780 OFFCURVE",
"993 826 OFFCURVE",
"993 850 CURVE SMOOTH",
"993 1011 OFFCURVE",
"843 1075 OFFCURVE",
"660 1075 CURVE SMOOTH",
"432 1075 OFFCURVE",
"217 960 OFFCURVE",
"217 752 CURVE SMOOTH",
"217 610 OFFCURVE",
"356 554 OFFCURVE",
"558 518 CURVE SMOOTH",
"759 482 OFFCURVE",
"869 434 OFFCURVE",
"869 311 CURVE SMOOTH",
"869 114 OFFCURVE",
"667 11 OFFCURVE",
"437 11 CURVE SMOOTH",
"228 11 OFFCURVE",
"117 89 OFFCURVE",
"117 219 CURVE SMOOTH",
"117 245 OFFCURVE",
"121 278 OFFCURVE",
"128 305 CURVE",
"97 305 LINE",
"91 281 OFFCURVE",
"86 250 OFFCURVE",
"86 216 CURVE SMOOTH",
"86 70 OFFCURVE",
"206 -17 OFFCURVE",
"437 -17 CURVE SMOOTH"
);
}
);
width = 1096;
}
);
leftKerningGroup = o;
leftMetricsKey = o;
note = s;
rightKerningGroup = o;
rightMetricsKey = o;
unicode = 0073;
},
